<?xml version="1.0" standalone="no"?>
<!DOCTYPE svg PUBLIC "-//W3C//DTD SVG 1.1//EN" "http://www.w3.org/Graphics/SVG/1.1/DTD/svg11.dtd" >
<svg>
<metadata>
Created by FontForge 20110222 at Wed Oct  8 23:25:06 2014
 By Orthosie Webhosting
Digitized data copyright (c) 2010-2011, Google Corporation.
</metadata>
<defs>
<font id="OpenSans-CondensedBold" horiz-adv-x="614" >
  <font-face 
    font-family="Open Sans Condensed"
    font-weight="700"
    font-stretch="condensed"
    units-per-em="2048"
    panose-1="2 11 8 6 3 5 4 2 2 4"
    ascent="1638"
    descent="-410"
    x-height="1114"
    cap-height="1462"
    bbox="-1366 -592 2142 2173"
    underline-thickness="102"
    underline-position="-103"
    unicode-range="U+0020-FFFD"
  />
<missing-glyph horiz-adv-x="1192" 
d="M174 1462h842v-1462h-842v1462zM279 104h632v1254h-632v-1254z" />
    <glyph glyph-name="uniFB01" unicode="fi" horiz-adv-x="1108" 
d="M608 903h-184v-903h-266v903h-129v133l129 80v84q0 186 77 276.5t248 90.5q108 0 201 -45l-70 -203q-50 24 -102 24q-46 0 -67 -36t-21 -111v-82h184v-211zM993 0h-266v1114h266v-1114zM716 1405q0 66 38.5 104.5t107.5 38.5q65 0 104 -38.5t39 -104.5q0 -68 -40 -105.5
t-103 -37.5q-66 0 -106 37.5t-40 105.5z" />
    <glyph glyph-name="uniFB02" unicode="fl" horiz-adv-x="1102" 
d="M608 903h-184v-903h-266v903h-129v133l129 80v84q0 186 77 276.5t248 90.5q108 0 201 -45l-70 -203q-50 24 -102 24q-46 0 -67 -36t-21 -111v-82h184v-211zM991 0h-266v1556h266v-1556z" />
    <glyph glyph-name="uniFB03" unicode="ffi" horiz-adv-x="1737" 
d="M608 903h-184v-903h-266v903h-129v133l129 80v84q0 186 77 276.5t248 90.5q108 0 201 -45l-70 -203q-50 24 -102 24q-46 0 -67 -36t-21 -111v-82h184v-211zM1237 903h-184v-903h-266v903h-129v133l129 80v84q0 186 77 276.5t248 90.5q108 0 201 -45l-70 -203
q-50 24 -102 24q-46 0 -67 -36t-21 -111v-82h184v-211zM1622 0h-266v1114h266v-1114zM1345 1405q0 66 38.5 104.5t107.5 38.5q65 0 104 -38.5t39 -104.5q0 -68 -40 -105.5t-103 -37.5q-66 0 -106 37.5t-40 105.5z" />
    <glyph glyph-name="uniFB04" unicode="ffl" horiz-adv-x="1731" 
d="M608 903h-184v-903h-266v903h-129v133l129 80v84q0 186 77 276.5t248 90.5q108 0 201 -45l-70 -203q-50 24 -102 24q-46 0 -67 -36t-21 -111v-82h184v-211zM1237 903h-184v-903h-266v903h-129v133l129 80v84q0 186 77 276.5t248 90.5q108 0 201 -45l-70 -203
q-50 24 -102 24q-46 0 -67 -36t-21 -111v-82h184v-211zM1620 0h-266v1556h266v-1556z" />
    <glyph glyph-name="ff" unicode="ff" horiz-adv-x="1225" 
d="M1220 903h-184v-903h-266v903h-129v133l129 80v84q0 186 77 276.5t248 90.5q108 0 201 -45l-70 -203q-50 24 -102 24q-46 0 -67 -36t-21 -111v-82h184v-211zM608 903h-184v-903h-266v903h-129v133l129 80v84q0 186 77 276.5t248 90.5q108 0 201 -45l-70 -203
q-50 24 -102 24q-46 0 -67 -36t-21 -111v-82h184v-211z" />
    <glyph glyph-name=".notdef" horiz-adv-x="1192" 
d="M174 1462h842v-1462h-842v1462zM279 104h632v1254h-632v-1254z" />
    <glyph glyph-name="null" horiz-adv-x="0" 
 />
    <glyph glyph-name="nonmarkingreturn" horiz-adv-x="1044" 
 />
    <glyph glyph-name="space" unicode=" " horiz-adv-x="506" 
 />
    <glyph glyph-name="exclam" unicode="!" horiz-adv-x="555" 
d="M387 471h-219l-49 991h319zM111 137q0 78 41.5 121t123.5 43t124 -42.5t42 -121.5q0 -78 -43.5 -121t-122.5 -43q-81 0 -123 43.5t-42 120.5z" />
    <glyph glyph-name="quotedbl" unicode="&#x22;" horiz-adv-x="913" 
d="M383 1462l-41 -528h-180l-41 528h262zM793 1462l-41 -528h-181l-41 528h263z" />
    <glyph glyph-name="numbersign" unicode="#" horiz-adv-x="1114" 
d="M856 856l-37 -252h203v-194h-229l-60 -410h-192l61 410h-182l-58 -410h-192l59 410h-188v194h217l37 252h-201v193h230l59 413h188l-59 -413h182l62 413h188l-59 -413h190v-193h-219zM449 604h180l37 252h-183z" />
    <glyph glyph-name="dollar" unicode="$" horiz-adv-x="948" 
d="M874 457q0 -159 -89.5 -254.5t-254.5 -112.5v-209h-116v205q-190 6 -340 84v246q80 -47 169 -77t171 -34v338l-35 16q-170 81 -237.5 167.5t-67.5 217.5q0 150 89 241.5t251 109.5v161h116v-159q155 -10 308 -86l-80 -213q-128 62 -228 71v-317q31 -12 31 -14
q127 -55 190 -106.5t93 -118t30 -156.5zM639 451q0 45 -19.5 74.5t-89.5 64.5v-279q109 19 109 140zM309 1044q0 -51 24 -82.5t81 -54.5v262q-105 -16 -105 -125z" />
    <glyph glyph-name="percent" unicode="%" horiz-adv-x="1554" 
d="M276 1024q0 -139 18 -202.5t60 -63.5t61 63.5t19 202.5t-19.5 202.5t-60.5 63.5q-42 0 -60 -63.5t-18 -202.5zM647 1026q0 -226 -75.5 -343.5t-219.5 -117.5q-149 0 -219 115t-70 342q0 461 289 461q295 0 295 -457zM1120 440q0 -139 18 -202.5t60 -63.5t61 63.5
t19 202.5t-19.5 202t-60.5 63t-59.5 -63t-18.5 -202zM1491 442q0 -226 -76 -343t-219 -117q-150 0 -219.5 114.5t-69.5 341.5q0 224 71.5 342.5t217.5 118.5q295 0 295 -457zM1182 1462l-604 -1462h-207l602 1462h209z" />
    <glyph glyph-name="ampersand" unicode="&#x26;" horiz-adv-x="1190" 
d="M872 0l-71 102q-136 -122 -338 -122q-192 0 -298 109t-106 302q0 248 244 416q-77 119 -102 188t-25 146q0 156 97 249t255 93q152 0 242 -86.5t90 -239.5q0 -105 -55 -199.5t-184 -191.5l204 -287q34 62 53 138t33 151h232q-38 -280 -166 -498l194 -270h-299zM328 416
q0 -93 44 -146t120 -53q100 0 176 74l-240 346q-100 -90 -100 -221zM614 1133q0 65 -26.5 94.5t-63.5 29.5q-46 0 -73 -32.5t-27 -94.5q0 -55 23.5 -101.5t58.5 -94.5q61 47 84.5 91t23.5 108z" />
    <glyph glyph-name="quotesingle" unicode="'" horiz-adv-x="504" 
d="M383 1462l-41 -528h-180l-41 528h262z" />
    <glyph glyph-name="parenleft" unicode="(" horiz-adv-x="666" 
d="M74 561q0 265 77.5 496t223.5 405h235q-140 -193 -212 -424t-72 -475q0 -247 75 -477t207 -410h-233q-147 170 -224 397t-77 488z" />
    <glyph glyph-name="parenright" unicode=")" horiz-adv-x="666" 
d="M592 561q0 -263 -77.5 -490t-223.5 -395h-234q135 184 209 412.5t74 474.5q0 244 -72 475t-213 424h236q147 -175 224 -406.5t77 -494.5z" />
    <glyph glyph-name="asterisk" unicode="*" horiz-adv-x="952" 
d="M594 1556l-37 -307l311 86l33 -225l-285 -18l185 -246l-199 -109l-129 260l-117 -260l-204 109l182 246l-281 22l37 221l303 -86l-37 307h238z" />
    <glyph glyph-name="plus" unicode="+" horiz-adv-x="918" 
d="M360 618h-254v207h254v373h197v-373h254v-207h-254v-368h-197v368z" />
    <glyph glyph-name="comma" unicode="," horiz-adv-x="553" 
d="M430 215q-52 -202 -176 -479h-203q65 266 101 502h264z" />
    <glyph glyph-name="hyphen" unicode="-" horiz-adv-x="647" 
d="M72 432v234h503v-234h-503z" />
    <glyph glyph-name="period" unicode="." horiz-adv-x="553" 
d="M111 137q0 78 41.5 121t123.5 43t124 -42.5t42 -121.5q0 -78 -43.5 -121t-122.5 -43q-81 0 -123 43.5t-42 120.5z" />
    <glyph glyph-name="slash" unicode="/" horiz-adv-x="829" 
d="M817 1462l-545 -1462h-256l545 1462h256z" />
    <glyph glyph-name="zero" unicode="0" horiz-adv-x="948" 
d="M874 731q0 -397 -95.5 -574t-307.5 -177t-304.5 178t-92.5 573q0 396 97 575t304 179q211 0 305 -175t94 -579zM346 731q0 -307 26.5 -413.5t100.5 -106.5q50 0 77.5 46t39.5 152.5t12 321.5q0 302 -28 412t-101 110q-74 0 -100.5 -109.5t-26.5 -412.5z" />
    <glyph glyph-name="one" unicode="1" horiz-adv-x="948" 
d="M729 0h-268v858q0 140 14 322q-7 -10 -51.5 -61t-173.5 -183l-152 166l389 360h242v-1462z" />
    <glyph glyph-name="two" unicode="2" horiz-adv-x="948" 
d="M858 0h-784v203l260 368q107 152 147 225.5t59 141t19 139.5q0 84 -37.5 126t-97.5 42q-53 0 -99 -28t-112 -101l-152 160q105 119 195 163t195 44q177 0 276.5 -104t99.5 -289q0 -84 -18 -159t-54.5 -150.5t-91.5 -157t-284 -373.5v-8h479v-242z" />
    <glyph glyph-name="three" unicode="3" horiz-adv-x="948" 
d="M829 1133q0 -138 -68 -231.5t-192 -129.5v-8q138 -22 213.5 -108t75.5 -234q0 -202 -125.5 -322t-343.5 -120q-194 0 -326 69v244q66 -40 143 -63t148 -23q116 0 175 53.5t59 169.5q0 219 -269 219h-83v203h79q119 0 182.5 56t63.5 167q0 87 -40.5 131.5t-114.5 44.5
q-113 0 -220 -96l-123 180q148 148 373 148q185 0 289 -93.5t104 -256.5z" />
    <glyph glyph-name="four" unicode="4" horiz-adv-x="948" 
d="M918 307h-148v-307h-256v307h-477v221l442 934h291v-930h148v-225zM514 532v308l5 136l7 130h-8q-35 -109 -76 -197l-176 -377h248z" />
    <glyph glyph-name="five" unicode="5" horiz-adv-x="948" 
d="M500 915q165 0 262.5 -115t97.5 -315q0 -239 -121.5 -372t-337.5 -133q-192 0 -311 73v254q51 -37 131.5 -65.5t149.5 -28.5q215 0 215 250q0 233 -209 233q-83 0 -176 -32l-88 65l45 733h624v-243h-391l-20 -316q56 12 129 12z" />
    <glyph glyph-name="six" unicode="6" horiz-adv-x="948" 
d="M74 621q0 447 139 653.5t424 206.5q45 0 90 -5.5t68 -11.5v-225q-69 16 -136 16q-114 0 -187 -50t-111 -149.5t-46 -279.5h11q35 83 96 125.5t141 42.5q147 0 229 -119.5t82 -341.5q0 -232 -108 -367.5t-293 -135.5q-196 0 -297.5 162t-101.5 479zM475 209q60 0 96.5 66
t36.5 206q0 113 -32.5 178.5t-98.5 65.5q-59 0 -96 -61t-37 -154q0 -146 34.5 -223.5t96.5 -77.5z" />
    <glyph glyph-name="seven" unicode="7" horiz-adv-x="948" 
d="M180 0l410 1219h-510v241h784v-184l-403 -1276h-281z" />
    <glyph glyph-name="eight" unicode="8" horiz-adv-x="948" 
d="M475 1481q171 0 273 -97t102 -264q0 -103 -47.5 -186.5t-161.5 -159.5q128 -91 182 -186.5t54 -208.5q0 -179 -110 -289t-292 -110q-189 0 -296 101.5t-107 289.5q0 126 53.5 222.5t165.5 168.5q-104 83 -148.5 167.5t-44.5 190.5q0 164 105.5 262.5t271.5 98.5zM330 385
q0 -88 36.5 -140t104.5 -52q74 0 110.5 52t36.5 140q0 63 -29 119t-112 129l-14 14q-65 -48 -99 -109.5t-34 -152.5zM473 1270q-57 0 -86 -41.5t-29 -118.5q0 -66 24 -115t93 -104q66 51 90.5 102t24.5 117q0 160 -117 160z" />
    <glyph glyph-name="nine" unicode="9" horiz-adv-x="948" 
d="M868 825q0 -845 -565 -845q-94 0 -156 16v229q68 -22 127 -22q167 0 253.5 116t95.5 365h-9q-32 -79 -91.5 -123.5t-141.5 -44.5q-149 0 -231 122t-82 335q0 234 107.5 371t287.5 137q196 0 300.5 -169t104.5 -487zM465 1249q-60 0 -95.5 -65t-35.5 -205
q0 -115 31 -179.5t94 -64.5q57 0 99 65.5t42 149.5q0 130 -37 214.5t-98 84.5z" />
    <glyph glyph-name="colon" unicode=":" horiz-adv-x="553" 
d="M111 137q0 78 41.5 121t123.5 43t124 -42.5t42 -121.5q0 -78 -43.5 -121t-122.5 -43q-81 0 -123 43.5t-42 120.5zM111 973q0 78 41.5 121t123.5 43t124 -42.5t42 -121.5q0 -78 -43.5 -121t-122.5 -43q-81 0 -123 43.5t-42 120.5z" />
    <glyph glyph-name="semicolon" unicode=";" horiz-adv-x="553" 
d="M416 238l14 -23q-52 -202 -176 -479h-203q65 266 101 502h264zM111 973q0 78 41.5 121t123.5 43t124 -42.5t42 -121.5q0 -78 -43.5 -121t-122.5 -43q-81 0 -123 43.5t-42 120.5z" />
    <glyph glyph-name="less" unicode="&#x3c;" horiz-adv-x="918" 
d="M811 209l-705 436v156l705 434v-225l-487 -287l487 -289v-225z" />
    <glyph glyph-name="equal" unicode="=" horiz-adv-x="918" 
d="M106 815v205h705v-205h-705zM106 422v207h705v-207h-705z" />
    <glyph glyph-name="greater" unicode="&#x3e;" horiz-adv-x="918" 
d="M106 434l490 289l-490 287v225l705 -434v-156l-705 -436v225z" />
    <glyph glyph-name="question" unicode="?" horiz-adv-x="782" 
d="M219 471v70q0 96 29.5 167.5t107.5 153.5q74 81 94.5 127t20.5 117q0 65 -30 106t-95 41q-108 0 -227 -77l-94 200q157 107 348 107q165 0 260.5 -91.5t95.5 -254.5q0 -114 -33 -193.5t-137 -191.5q-67 -73 -85.5 -112.5t-18.5 -107.5v-61h-236zM172 137q0 79 42.5 121.5
t123.5 42.5q82 0 124 -43.5t42 -120.5q0 -76 -43 -120t-123 -44t-123 43t-43 121z" />
    <glyph glyph-name="at" unicode="@" horiz-adv-x="1485" 
d="M1411 748q0 -244 -82.5 -380.5t-230.5 -136.5q-69 0 -121 38.5t-68 101.5h-8q-34 -63 -87 -101.5t-122 -38.5q-123 0 -192.5 92.5t-69.5 280.5q0 223 98.5 356.5t264.5 133.5q118 0 256 -43l-21 -466v-38q0 -82 17.5 -113t54.5 -31q50 0 79 93.5t29 253.5q0 274 -110 411
t-312 137q-149 0 -265 -88t-179 -247.5t-63 -358.5q0 -279 122.5 -435.5t337.5 -156.5q178 0 365 90v-182q-165 -88 -367 -88t-352.5 91.5t-230.5 264.5t-80 406q0 260 89.5 462t253.5 311.5t374 109.5q294 0 457 -192t163 -537zM637 604q0 -96 22.5 -148.5t65.5 -52.5
q50 0 74 68.5t32 210.5l13 229q-24 11 -62 11q-65 0 -105 -90t-40 -228z" />
    <glyph glyph-name="A" unicode="A" horiz-adv-x="1094" 
d="M821 0l-84 369h-381l-84 -369h-272l362 1468h369l363 -1468h-273zM686 610l-78 340q-7 31 -31.5 155.5t-29.5 166.5q-13 -86 -33 -189.5t-104 -472.5h276z" />
    <glyph glyph-name="B" unicode="B" horiz-adv-x="1038" 
d="M129 1462h373q228 0 332 -88.5t104 -281.5q0 -127 -55 -212.5t-150 -103.5v-10q124 -31 179 -116t55 -226q0 -199 -106.5 -311.5t-291.5 -112.5h-440v1462zM385 874h125q86 0 121 46t35 137t-40 130.5t-126 39.5h-115v-353zM385 647v-409h137q85 0 126.5 52t41.5 161
q0 196 -172 196h-133z" />
    <glyph glyph-name="C" unicode="C" horiz-adv-x="948" 
d="M614 1245q-117 0 -184.5 -137t-67.5 -381q0 -508 265 -508q116 0 243 74v-242q-107 -71 -274 -71q-247 0 -379.5 196.5t-132.5 552.5t136.5 555t379.5 199q80 0 153.5 -22t157.5 -77l-90 -221q-45 31 -96 56.5t-111 25.5z" />
    <glyph glyph-name="D" unicode="D" horiz-adv-x="1143" 
d="M1059 745q0 -362 -147.5 -553.5t-424.5 -191.5h-358v1462h391q255 0 397 -188.5t142 -528.5zM780 737q0 490 -270 490h-109v-989h88q149 0 220 124.5t71 374.5z" />
    <glyph glyph-name="E" unicode="E" horiz-adv-x="872" 
d="M788 0h-659v1462h659v-235h-387v-348h359v-236h-359v-405h387v-238z" />
    <glyph glyph-name="F" unicode="F" horiz-adv-x="838" 
d="M399 0h-270v1462h655v-235h-385v-406h359v-235h-359v-586z" />
    <glyph glyph-name="G" unicode="G" horiz-adv-x="1112" 
d="M571 811h447v-750q-190 -81 -404 -81q-255 0 -392.5 194t-137.5 559q0 352 157.5 551t440.5 199q175 0 334 -90l-86 -222q-124 72 -232 72q-155 0 -245.5 -138.5t-90.5 -377.5q0 -246 65.5 -377t190.5 -131q66 0 134 17v335h-181v240z" />
    <glyph glyph-name="H" unicode="H" horiz-adv-x="1161" 
d="M1032 0h-272v641h-359v-641h-272v1462h272v-581h359v581h272v-1462z" />
    <glyph glyph-name="I.alt" 
d="M549 0h-486v162l115 57v1024l-115 57v162h486v-162l-115 -57v-1024l115 -57v-162z" />
    <glyph glyph-name="J" unicode="J" horiz-adv-x="530" 
d="M14 -422q-106 0 -168 25v237q65 -20 123 -20q83 0 121.5 53t38.5 158v1431h272v-1417q0 -144 -48.5 -250t-137 -161.5t-201.5 -55.5z" />
    <glyph glyph-name="K" unicode="K" horiz-adv-x="1040" 
d="M1040 0h-290l-240 625l-109 -109v-516h-272v1462h272v-725l95 219l249 506h291l-338 -633z" />
    <glyph glyph-name="L" unicode="L" horiz-adv-x="823" 
d="M129 0v1462h272v-1224h377v-238h-649z" />
    <glyph glyph-name="M" unicode="M" horiz-adv-x="1606" 
d="M651 0l-278 1245h-11q19 -144 19 -264v-981h-252v1462h418l250 -1149h8l248 1149h424v-1462h-258v991q0 123 14 252h-8l-277 -1243h-297z" />
    <glyph glyph-name="N" unicode="N" horiz-adv-x="1282" 
d="M1153 0h-332l-452 1059h-13q25 -121 25 -260v-799h-252v1462h334l448 -1048h11q-19 105 -19 250v798h250v-1462z" />
    <glyph glyph-name="O" unicode="O" horiz-adv-x="1219" 
d="M1135 733q0 -363 -136 -558t-389 -195q-254 0 -390 194.5t-136 560.5q0 363 136 556.5t392 193.5q253 0 388 -194.5t135 -557.5zM362 733q0 -250 63 -381t185 -131q246 0 246 512t-244 512q-124 0 -187 -130.5t-63 -381.5z" />
    <glyph glyph-name="P" unicode="P" horiz-adv-x="981" 
d="M926 1012q0 -233 -117.5 -357.5t-339.5 -124.5h-68v-530h-272v1462h371q426 0 426 -450zM401 766h52q100 0 149 55t49 180q0 115 -45 170.5t-139 55.5h-66v-461z" />
    <glyph glyph-name="Q" unicode="Q" horiz-adv-x="1219" 
d="M1135 733q0 -251 -66.5 -424t-196.5 -258l269 -399h-314l-202 328h-15q-254 0 -390 194.5t-136 560.5q0 363 136 556.5t392 193.5q253 0 388 -194.5t135 -557.5zM362 733q0 -250 63 -381t185 -131q246 0 246 512t-244 512q-124 0 -187 -130.5t-63 -381.5z" />
    <glyph glyph-name="R" unicode="R" horiz-adv-x="1024" 
d="M401 569v-569h-272v1462h356q226 0 333.5 -107t107.5 -327q0 -277 -187 -387l281 -641h-291l-231 569h-97zM401 803h70q96 0 138 54.5t42 162.5q0 112 -44.5 159.5t-137.5 47.5h-68v-424z" />
    <glyph glyph-name="S" unicode="S" horiz-adv-x="846" 
d="M795 403q0 -205 -103.5 -314t-298.5 -109q-191 0 -325 75v269q164 -107 301 -107q78 0 117.5 43t39.5 117q0 73 -47 133.5t-155 134.5q-94 65 -142.5 124.5t-75 133.5t-26.5 172q0 188 104.5 298t280.5 110q168 0 323 -94l-90 -218q-48 28 -100.5 50t-112.5 22
q-66 0 -101.5 -43.5t-35.5 -118.5q0 -74 42.5 -129t148.5 -125q143 -96 199.5 -196t56.5 -228z" />
    <glyph glyph-name="T" unicode="T" horiz-adv-x="885" 
d="M578 0h-271v1223h-280v239h831v-239h-280v-1223z" />
    <glyph glyph-name="U" unicode="U" horiz-adv-x="1151" 
d="M1028 1462v-946q0 -261 -118 -398.5t-341 -137.5q-218 0 -332 136.5t-114 403.5v942h270v-962q0 -279 185 -279q86 0 133 71t47 202v968h270z" />
    <glyph glyph-name="V" unicode="V" horiz-adv-x="1032" 
d="M758 1462h274l-344 -1462h-346l-342 1462h274l191 -893q26 -114 51 -327q21 181 53 327z" />
    <glyph glyph-name="W" unicode="W" horiz-adv-x="1622" 
d="M1341 0h-340l-143 766q-33 157 -47 371l-8 -74l-41 -301l-139 -762h-340l-265 1462h267l131 -825q19 -124 51 -389q25 268 47 383l156 831h282l156 -831q31 -185 49 -385q35 296 51 391l127 825h269z" />
    <glyph glyph-name="X" unicode="X" horiz-adv-x="969" 
d="M969 0h-283l-209 524l-194 -524h-283l334 760l-309 702h274l193 -481l167 481h285l-309 -714z" />
    <glyph glyph-name="Y" unicode="Y" horiz-adv-x="961" 
d="M481 885l195 577h285l-347 -876v-586h-268v575l-346 887h287z" />
    <glyph glyph-name="Z" unicode="Z" horiz-adv-x="877" 
d="M834 0h-791v190l467 1035h-453v237h762v-190l-467 -1034h482v-238z" />
    <glyph glyph-name="bracketleft" unicode="[" horiz-adv-x="649" 
d="M602 -324h-469v1786h469v-198h-223v-1389h223v-199z" />
    <glyph glyph-name="backslash" unicode="\" horiz-adv-x="829" 
d="M272 1462l545 -1462h-258l-545 1462h258z" />
    <glyph glyph-name="bracketright" unicode="]" horiz-adv-x="649" 
d="M47 -125h223v1389h-223v198h469v-1786h-469v199z" />
    <glyph glyph-name="asciicircum" unicode="^" horiz-adv-x="1090" 
d="M14 526l437 944h135l493 -944h-225l-330 660l-288 -660h-222z" />
    <glyph glyph-name="underscore" unicode="_" horiz-adv-x="696" 
d="M700 -324h-704v140h704v-140z" />
    <glyph glyph-name="grave" unicode="`" horiz-adv-x="1114" 
d="M614 1241q-75 60 -176 160.5t-127 146.5v21h318q27 -60 80.5 -155.5t91.5 -145.5v-27h-187z" />
    <glyph glyph-name="a" unicode="a" horiz-adv-x="956" 
d="M659 0l-53 152h-6q-59 -98 -122 -135t-159 -37q-123 0 -193.5 92t-70.5 256q0 176 96.5 261.5t288.5 94.5l148 6v80q0 156 -135 156q-100 0 -230 -78l-92 184q166 105 361 105q177 0 269.5 -101.5t92.5 -287.5v-748h-195zM428 188q73 0 116.5 65.5t43.5 174.5v94l-82 -4
q-91 -5 -133.5 -52t-42.5 -140q0 -138 98 -138z" />
    <glyph glyph-name="b" unicode="b" horiz-adv-x="1016" 
d="M616 1135q152 0 239 -151t87 -425q0 -277 -87.5 -428t-242.5 -151q-75 0 -132.5 32.5t-108.5 114.5h-17l-45 -127h-196v1556h266v-364q0 -23 -1 -48t-13 -175h14q49 92 106 129t131 37zM524 909q-76 0 -109.5 -71t-35.5 -250v-27q0 -194 34.5 -273t112.5 -79
q144 0 144 354q0 346 -146 346z" />
    <glyph glyph-name="c" unicode="c" horiz-adv-x="760" 
d="M481 -20q-199 0 -303 145t-104 426q0 294 98.5 439t304.5 145q62 0 130 -18t122 -52l-76 -207q-83 49 -147 49q-85 0 -122.5 -88.5t-37.5 -265.5q0 -173 37 -258.5t121 -85.5q100 0 209 70v-234q-105 -65 -232 -65z" />
    <glyph glyph-name="d" unicode="d" horiz-adv-x="1016" 
d="M406 -20q-154 0 -243 152t-89 423q0 272 87 426t240 154q76 0 131.5 -37.5t102.5 -126.5h16q-12 152 -12 213v372h266v-1556h-198l-45 145h-9q-85 -165 -247 -165zM492 205q74 0 108 67.5t37 245.5v35q0 194 -34.5 273t-113.5 79q-74 0 -107.5 -90.5t-33.5 -263.5
t34 -259.5t110 -86.5z" />
    <glyph glyph-name="e" unicode="e" horiz-adv-x="942" 
d="M524 -20q-209 0 -329.5 148.5t-120.5 420.5q0 276 109 431t304 155q182 0 287 -132.5t105 -371.5v-142h-535q3 -149 61 -221.5t160 -72.5q130 0 266 81v-219q-128 -77 -307 -77zM485 930q-57 0 -94 -60.5t-43 -187.5h270q-2 122 -37 185t-96 63z" />
    <glyph glyph-name="f" unicode="f" horiz-adv-x="612" 
d="M608 903h-184v-903h-266v903h-129v133l129 80v84q0 186 77 276.5t248 90.5q108 0 201 -45l-70 -203q-50 24 -102 24q-46 0 -67 -36t-21 -111v-82h184v-211z" />
    <glyph glyph-name="g" unicode="g" horiz-adv-x="936" 
d="M915 1112v-156l-133 -30q39 -70 39 -176q0 -177 -96 -277t-268 -100q-50 0 -74 8q-19 -17 -36 -38t-17 -52q0 -70 121 -70h161q142 0 218.5 -76.5t76.5 -230.5q0 -194 -130 -300t-374 -106q-185 0 -285 80.5t-100 229.5q0 93 57 163.5t158 102.5q-51 20 -83.5 62
t-32.5 98q0 34 10 61.5t28.5 52t75.5 72.5q-69 42 -109 129t-40 193q0 183 96 283t275 100q34 0 78 -7.5t67 -15.5h317zM260 -162q0 -66 41.5 -101.5t118.5 -35.5q121 0 181.5 46t60.5 126q0 63 -32.5 89t-121.5 26h-129q-54 0 -86.5 -40.5t-32.5 -109.5zM342 750
q0 -197 111 -197q108 0 108 199q0 204 -108 204q-111 0 -111 -206z" />
    <glyph glyph-name="h" unicode="h" horiz-adv-x="1038" 
d="M668 0v664q0 245 -123 245q-92 0 -129 -96.5t-37 -277.5v-535h-266v1556h266v-346q0 -67 -12 -239h14q80 164 246 164q153 0 231 -103.5t78 -304.5v-727h-268z" />
    <glyph glyph-name="i" unicode="i" horiz-adv-x="496" 
d="M381 0h-266v1114h266v-1114zM104 1405q0 66 38.5 104.5t107.5 38.5q65 0 104 -38.5t39 -104.5q0 -68 -40 -105.5t-103 -37.5q-66 0 -106 37.5t-40 105.5z" />
    <glyph glyph-name="j" unicode="j" horiz-adv-x="500" 
d="M80 -492q-84 0 -139 25v221q46 -18 86 -18q94 0 94 170v1208h266v-1243q0 -174 -80.5 -268.5t-226.5 -94.5zM111 1405q0 66 38.5 104.5t106.5 38.5q67 0 105 -39t38 -104q0 -67 -39 -105t-104 -38t-105 37t-40 106z" />
    <glyph glyph-name="k" unicode="k" horiz-adv-x="965" 
d="M375 600l67 133l220 381h282l-282 -457l301 -657h-279l-201 471l-104 -94v-377h-266v1556h266v-733l-12 -223h8z" />
    <glyph glyph-name="l" unicode="l" horiz-adv-x="489" 
d="M379 0h-266v1556h266v-1556z" />
    <glyph glyph-name="m" unicode="m" horiz-adv-x="1589" 
d="M1219 0v664q0 245 -121 245q-88 0 -126 -87.5t-38 -280.5v-541h-268v664q0 245 -123 245q-86 0 -125 -87t-39 -287v-535h-266v1114h211l32 -143h17q40 85 109.5 124.5t148.5 39.5q204 0 272 -193h10q85 193 273 193q148 0 224.5 -104t76.5 -304v-727h-268z" />
    <glyph glyph-name="n" unicode="n" horiz-adv-x="1038" 
d="M668 0v664q0 121 -29 183t-94 62q-86 0 -126 -85.5t-40 -288.5v-535h-266v1114h211l32 -143h17q36 77 103 120.5t157 43.5q152 0 227.5 -104t75.5 -304v-727h-268z" />
    <glyph glyph-name="o" unicode="o" horiz-adv-x="1012" 
d="M938 559q0 -274 -116 -426.5t-318 -152.5q-128 0 -226 70t-151 201.5t-53 307.5q0 271 115 423.5t319 152.5q197 0 313.5 -155.5t116.5 -420.5zM346 559q0 -174 38 -263t122 -89q160 0 160 352q0 175 -38.5 261.5t-121.5 86.5q-84 0 -122 -86.5t-38 -261.5z" />
    <glyph glyph-name="p" unicode="p" horiz-adv-x="1016" 
d="M610 -20q-72 0 -127.5 32.5t-103.5 114.5h-14q16 -136 16 -164v-455h-268v1606h206l46 -145h12q83 166 241 166q152 0 238 -150.5t86 -425.5q0 -271 -89 -425t-243 -154zM528 909q-78 0 -112.5 -72.5t-36.5 -240.5v-35q0 -184 35 -268t116 -84q140 0 140 354
q0 174 -34.5 260t-107.5 86z" />
    <glyph glyph-name="q" unicode="q" horiz-adv-x="1016" 
d="M406 -20q-156 0 -244 152t-88 423q0 273 86.5 426.5t238.5 153.5q78 0 135 -38t103 -126h14l29 143h225v-1606h-266v469q0 36 12 168h-10q-42 -86 -100 -125.5t-135 -39.5zM487 203q79 0 113.5 72.5t36.5 240.5v37q0 184 -35 268t-115 84q-139 0 -139 -354
q0 -177 33.5 -262.5t105.5 -85.5z" />
    <glyph glyph-name="r" unicode="r" horiz-adv-x="690" 
d="M588 1135q49 0 96 -15l-31 -258q-28 10 -73 10q-97 0 -149 -76.5t-52 -222.5v-573h-266v1114h219l30 -174h9q44 105 96 150t121 45z" />
    <glyph glyph-name="s" unicode="s" horiz-adv-x="766" 
d="M711 326q0 -163 -95.5 -254.5t-281.5 -91.5q-165 0 -273 65v231q55 -38 128.5 -63t129.5 -25q62 0 94.5 30.5t32.5 80.5q0 51 -34 89t-125 93q-121 72 -173.5 153.5t-52.5 192.5q0 142 97.5 225t267.5 83q148 0 279 -78l-87 -191q-107 58 -188 58q-51 0 -76.5 -27
t-25.5 -66q0 -45 31.5 -80t117.5 -87q104 -63 146 -107t65 -100t23 -131z" />
    <glyph glyph-name="t" unicode="t" horiz-adv-x="664" 
d="M500 205q56 0 121 28v-208q-65 -45 -195 -45q-145 0 -215 86.5t-70 259.5v577h-108v119l139 96l68 236h170v-240h202v-211h-202v-586q0 -112 90 -112z" />
    <glyph glyph-name="u" unicode="u" horiz-adv-x="1038" 
d="M715 0l-33 143h-14q-37 -76 -105.5 -119.5t-156.5 -43.5q-150 0 -227 102t-77 305v727h269v-663q0 -122 29 -184t94 -62q86 0 125.5 86t39.5 289v534h269v-1114h-213z" />
    <glyph glyph-name="v" unicode="v" horiz-adv-x="913" 
d="M291 0l-291 1114h276l142 -645q9 -45 21.5 -131.5t15.5 -124.5h4q1 30 8.5 86t15.5 103t154 712h276l-292 -1114h-330z" />
    <glyph glyph-name="w" unicode="w" horiz-adv-x="1479" 
d="M889 0l-111 647l-39 273h-4q-15 -133 -24 -192.5t-127 -727.5h-342l-222 1114h267l102 -614q18 -102 33 -299h6q2 53 14 161.5t17 139.5l110 612h342l109 -614q19 -98 33 -299h4q14 179 35 299l106 614h260l-223 -1114h-346z" />
    <glyph glyph-name="x" unicode="x" horiz-adv-x="889" 
d="M305 569l-278 545h276l148 -340l137 340h274l-280 -545l292 -569h-278l-158 356l-147 -356h-277z" />
    <glyph glyph-name="y" unicode="y" horiz-adv-x="913" 
d="M0 1114h276l154 -629q23 -84 37 -235h6q1 24 9 85.5t13 96.5t138 682h280l-319 -1194q-58 -220 -154 -316t-256 -96q-79 0 -141 17v223q41 -12 92 -12q134 0 176 176l19 70z" />
    <glyph glyph-name="z" unicode="z" horiz-adv-x="731" 
d="M690 0h-649v170l342 729h-320v215h613v-188l-332 -711h346v-215z" />
    <glyph glyph-name="braceleft" unicode="{" horiz-adv-x="737" 
d="M283 276q0 99 -67 140t-191 41v223q124 0 191 40t67 132v8v320q0 108 41.5 167.5t133 87t247.5 27.5v-211q-101 -3 -138 -37.5t-37 -107.5v-303q-3 -194 -231 -228v-12q231 -34 231 -215v-12v-303q0 -73 36.5 -108t138.5 -38v-211q-158 0 -248.5 27.5t-132 87.5
t-41.5 168v317z" />
    <glyph glyph-name="bar" unicode="|" horiz-adv-x="1038" 
d="M416 1552h207v-2023h-207v2023z" />
    <glyph glyph-name="braceright" unicode="}" horiz-adv-x="737" 
d="M457 -41q0 -156 -95.5 -219.5t-328.5 -63.5v211q102 3 139 37.5t37 108.5v303v9q0 91 59.5 146t173.5 72v12q-229 34 -233 228v303q0 74 -37 108t-139 37v211q234 0 329 -63.5t95 -218.5v-320v-8q0 -92 65.5 -132t190.5 -40v-223q-125 0 -190.5 -41t-65.5 -140v-317z" />
    <glyph glyph-name="asciitilde" unicode="~" horiz-adv-x="918" 
d="M264 678q-88 0 -190 -121v219q90 109 207 109q43 0 80.5 -10.5t123.5 -53.5q67 -34 99 -44.5t73 -10.5q87 0 187 121v-219q-81 -109 -207 -109q-51 0 -99.5 16.5t-107.5 47.5q-82 41 -108 48t-58 7z" />
    <glyph glyph-name="nonbreakingspace" unicode="&#xa0;" horiz-adv-x="532" 
 />
    <glyph glyph-name="exclamdown" unicode="&#xa1;" horiz-adv-x="555" 
d="M164 621h221l51 -990h-323zM442 954q0 -79 -43 -121t-125 -42q-78 0 -120.5 42t-42.5 121q0 78 43.5 121t119.5 43q82 0 125 -43.5t43 -120.5z" />
    <glyph glyph-name="cent" unicode="&#xa2;" horiz-adv-x="948" 
d="M786 233q-77 -50 -174 -61v-192h-166v200q-299 79 -299 557q0 252 73.5 395t225.5 179v168h166v-160q106 -16 193 -66l-78 -209q-85 50 -147 50q-85 0 -122.5 -87.5t-37.5 -267.5q0 -171 37 -257.5t121 -86.5q100 0 208 72v-234z" />
    <glyph glyph-name="sterling" unicode="&#xa3;" horiz-adv-x="948" 
d="M598 1483q157 0 283 -72l-84 -211q-92 53 -183 53q-114 0 -114 -186v-213h241v-203h-241v-133q0 -91 -30.5 -158.5t-100.5 -117.5h534v-242h-827v229q92 49 124.5 108.5t32.5 156.5v157h-155v203h155v219q0 199 93.5 304.5t271.5 105.5z" />
    <glyph glyph-name="currency" unicode="&#xa4;" horiz-adv-x="1112" 
d="M162 723q0 102 57 201l-129 127l137 137l127 -127q93 55 201 55q107 0 199 -57l129 129l139 -133l-129 -129q55 -93 55 -203q0 -114 -55 -203l125 -125l-135 -135l-129 125q-93 -53 -199 -53q-120 0 -203 53l-125 -123l-135 135l127 125q-57 92 -57 201zM356 723
q0 -83 58 -141t141 -58q85 0 144 58.5t59 140.5q0 84 -59 142.5t-144 58.5q-83 0 -141 -58t-58 -143z" />
    <glyph glyph-name="yen" unicode="&#xa5;" horiz-adv-x="948" 
d="M475 844l184 618h283l-276 -751h186v-170h-244v-142h244v-170h-244v-229h-266v229h-246v170h246v142h-246v170h187l-277 751h283z" />
    <glyph glyph-name="brokenbar" unicode="&#xa6;" horiz-adv-x="1038" 
d="M416 1552h207v-809h-207v809zM416 338h207v-809h-207v809z" />
    <glyph glyph-name="section" unicode="&#xa7;" horiz-adv-x="872" 
d="M94 776q0 79 34.5 142.5t94.5 103.5q-59 40 -91 106t-32 142q0 133 92.5 211t253.5 78q97 0 175.5 -20.5t150.5 -49.5l-65 -184q-63 27 -127 49t-136 22q-58 0 -86 -28.5t-28 -73.5q0 -37 31 -71t104 -75l84 -49q125 -71 177 -149t52 -178q0 -167 -125 -260
q56 -41 85.5 -90t29.5 -121q0 -148 -94 -232t-271 -84q-113 0 -187 14.5t-134 43.5v192q152 -72 295 -72q81 0 120.5 28t39.5 91q0 34 -31.5 66.5t-102.5 73.5q-143 80 -198 130.5t-83 110t-28 133.5zM307 797q0 -56 32 -94t114 -87l61 -36q43 62 43 137q0 63 -49 118.5
t-135 98.5q-26 -16 -46 -52t-20 -85z" />
    <glyph glyph-name="dieresis" unicode="&#xa8;" horiz-adv-x="1130" 
d="M233 1403q0 61 35 95t97 34t97.5 -35.5t35.5 -93.5q0 -57 -35.5 -92t-97.5 -35t-97 33.5t-35 93.5zM631 1403q0 60 35 94.5t98 34.5q61 0 97 -34t36 -95q0 -59 -35.5 -93t-97.5 -34t-97.5 34.5t-35.5 92.5z" />
    <glyph glyph-name="copyright" unicode="&#xa9;" horiz-adv-x="1688" 
d="M887 1018q-102 0 -157.5 -75.5t-55.5 -211.5q0 -140 49.5 -214.5t163.5 -74.5q56 0 124 16.5t115 41.5v-181q-116 -55 -245 -55q-201 0 -312.5 123.5t-111.5 345.5q0 219 110 341t307 122q142 0 295 -74l-71 -161q-111 57 -211 57zM92 731q0 200 100 375t275 276t377 101
q197 0 370 -97t277 -272t104 -383q0 -204 -100.5 -376.5t-273 -273.5t-377.5 -101q-207 0 -382 103.5t-272.5 276.5t-97.5 371zM227 731q0 -165 83 -308.5t225.5 -225.5t308.5 -82t309 82t225 225t82 309t-82 308.5t-225 225.5t-309 83q-165 0 -308.5 -82.5t-226 -225.5
t-82.5 -309z" />
    <glyph glyph-name="ordfeminine" unicode="&#xaa;" horiz-adv-x="682" 
d="M469 770l-27 104q-32 -55 -81 -85.5t-109 -30.5q-89 0 -142 53t-53 166q0 108 66.5 161.5t212.5 61.5l82 4v8q0 119 -103 119q-69 0 -163 -57l-56 127q128 78 256 78q116 0 175 -68.5t59 -193.5v-447h-117zM229 979q0 -78 64 -78q57 0 91 40t34 112v39l-72 -7
q-58 -5 -87.5 -30t-29.5 -76z" />
    <glyph glyph-name="guillemotleft" unicode="&#xab;" horiz-adv-x="1141" 
d="M74 569l307 447l199 -111l-220 -348l220 -348l-199 -111l-307 445v26zM561 569l307 447l199 -111l-219 -348l219 -348l-199 -111l-307 445v26z" />
    <glyph glyph-name="logicalnot" unicode="&#xac;" horiz-adv-x="918" 
d="M811 250h-195v368h-510v207h705v-575z" />
    <glyph glyph-name="uni00AD" unicode="&#xad;" horiz-adv-x="647" 
d="M72 432v234h503v-234h-503z" />
    <glyph glyph-name="registered" unicode="&#xae;" horiz-adv-x="1688" 
d="M1147 907q0 -170 -148 -233l19 -29l219 -371h-238l-184 342h-57v-342h-215v912h258q180 0 263 -68t83 -211zM758 776h39q71 0 102 29.5t31 97.5q0 70 -33 95.5t-102 25.5h-37v-248zM92 731q0 200 100 375t275 276t377 101q197 0 370 -97t277 -272t104 -383
q0 -204 -100.5 -376.5t-273 -273.5t-377.5 -101q-207 0 -382 103.5t-272.5 276.5t-97.5 371zM227 731q0 -165 83 -308.5t225.5 -225.5t308.5 -82t309 82t225 225t82 309t-82 308.5t-225 225.5t-309 83q-165 0 -308.5 -82.5t-226 -225.5t-82.5 -309z" />
    <glyph glyph-name="overscore" unicode="&#xaf;" horiz-adv-x="1024" 
d="M1030 1556h-1036v189h1036v-189z" />
    <glyph glyph-name="degree" unicode="&#xb0;" horiz-adv-x="831" 
d="M76 1143q0 139 99 239.5t241 100.5q139 0 239.5 -100t100.5 -240q0 -141 -99 -239.5t-241 -98.5q-143 0 -241.5 98.5t-98.5 239.5zM252 1143q0 -67 49 -114.5t115 -47.5t114 47.5t48 114.5q0 68 -47.5 116t-114.5 48t-115.5 -49t-48.5 -115z" />
    <glyph glyph-name="plusminus" unicode="&#xb1;" horiz-adv-x="918" 
d="M360 618h-254v207h254v373h197v-373h254v-207h-254v-368h-197v368zM106 0v207h705v-207h-705z" />
    <glyph glyph-name="twosuperior" unicode="&#xb2;" horiz-adv-x="688" 
d="M623 586h-570v157l199 222q95 107 122 153.5t27 98.5q0 42 -23.5 65t-62.5 23q-75 0 -163 -88l-103 139q127 127 289 127q122 0 191 -67t69 -183q0 -81 -38.5 -154t-160.5 -200l-102 -107h326v-186z" />
    <glyph glyph-name="threesuperior" unicode="&#xb3;" horiz-adv-x="688" 
d="M588 1251q0 -149 -148 -200v-11q89 -21 131.5 -78.5t42.5 -130.5q0 -121 -78 -191.5t-229 -70.5q-156 0 -244 56v176q106 -72 230 -72q135 0 135 117q0 112 -154 112h-98v150h84q73 0 110.5 27.5t37.5 89.5q0 43 -24 68.5t-71 25.5q-44 0 -82.5 -19t-87.5 -59l-86 133
q71 59 137 83t140 24q111 0 182.5 -62.5t71.5 -167.5z" />
    <glyph glyph-name="acute" unicode="&#xb4;" horiz-adv-x="1114" 
d="M311 1241v27q41 53 95 151t77 150h318v-21q-24 -43 -119 -138.5t-184 -168.5h-187z" />
    <glyph glyph-name="mu" unicode="&#xb5;" horiz-adv-x="1038" 
d="M371 414q0 -114 30 -161.5t93 -47.5q86 0 125.5 86t39.5 289v534h269v-1114h-213l-33 143h-16q-63 -163 -199 -163q-59 0 -105 40q9 -130 9 -272v-240h-269v1606h269v-700z" />
    <glyph glyph-name="paragraph" unicode="&#xb6;" horiz-adv-x="1083" 
d="M948 -260h-153v1624h-162v-1624h-154v819q-45 -18 -106 -18q-160 0 -235 125t-75 376q0 257 80.5 385.5t255.5 128.5h549v-1816z" />
    <glyph glyph-name="periodcentered" unicode="&#xb7;" horiz-adv-x="553" 
d="M111 723q0 78 41.5 121t123.5 43t124 -42.5t42 -121.5q0 -78 -43.5 -121t-122.5 -43q-81 0 -123 43.5t-42 120.5z" />
    <glyph glyph-name="cedilla" unicode="&#xb8;" horiz-adv-x="416" 
d="M397 -260q0 -107 -71 -169.5t-220 -62.5q-73 0 -131 21v154q61 -17 121 -17q88 0 88 66q0 84 -157 110l79 158h173l-37 -76q68 -17 111.5 -63t43.5 -121z" />
    <glyph glyph-name="onesuperior" unicode="&#xb9;" horiz-adv-x="688" 
d="M500 586h-197v461l3 112l5 96q-7 -10 -22 -24t-131 -113l-92 117l272 227h162v-876z" />
    <glyph glyph-name="ordmasculine" unicode="&#xba;" horiz-adv-x="686" 
d="M625 1120q0 -171 -76 -266.5t-207 -95.5q-130 0 -205.5 98.5t-75.5 263.5q0 170 75 264.5t208 94.5q128 0 204.5 -96.5t76.5 -262.5zM233 1120q0 -106 27 -157.5t84 -51.5t83 51.5t26 157.5t-26 155.5t-83 49.5t-84 -49.5t-27 -155.5z" />
    <glyph glyph-name="guillemotright" unicode="&#xbb;" horiz-adv-x="1141" 
d="M1067 543l-307 -445l-199 111l219 348l-219 348l199 111l307 -447v-26zM580 543l-308 -445l-198 111l219 348l-219 348l198 111l308 -447v-26z" />
    <glyph glyph-name="onequarter" unicode="&#xbc;" horiz-adv-x="1597" 
d="M1481 160h-111v-159h-196v159h-345v146l347 577h194v-563h111v-160zM1174 320v170l4 187q-12 -33 -34.5 -84t-35.5 -72l-121 -201h187zM493 586h-197v461l3 112l5 96q-7 -10 -22 -24t-131 -113l-92 117l272 227h162v-876zM1222 1462l-743 -1462h-203l742 1462h204z" />
    <glyph glyph-name="onehalf" unicode="&#xbd;" horiz-adv-x="1597" 
d="M1518 1h-570v157l199 222q95 107 122 153.5t27 98.5q0 42 -23.5 65t-62.5 23q-75 0 -163 -88l-103 139q127 127 289 127q122 0 191 -67t69 -183q0 -81 -38.5 -154t-160.5 -200l-102 -107h326v-186zM493 586h-197v461l3 112l5 96q-7 -10 -22 -24t-131 -113l-92 117
l272 227h162v-876zM1222 1462l-743 -1462h-203l742 1462h204z" />
    <glyph glyph-name="threequarters" unicode="&#xbe;" horiz-adv-x="1597" 
d="M1487 160h-111v-159h-196v159h-345v146l347 577h194v-563h111v-160zM1180 320v170l4 187q-12 -33 -34.5 -84t-35.5 -72l-121 -201h187zM592 1251q0 -149 -148 -200v-11q89 -21 131.5 -78.5t42.5 -130.5q0 -121 -78 -191.5t-229 -70.5q-156 0 -244 56v176q106 -72 230 -72
q135 0 135 117q0 112 -154 112h-98v150h84q73 0 110.5 27.5t37.5 89.5q0 43 -24 68.5t-71 25.5q-44 0 -82.5 -19t-87.5 -59l-86 133q71 59 137 83t140 24q111 0 182.5 -62.5t71.5 -167.5zM1257 1462l-743 -1462h-203l742 1462h204z" />
    <glyph glyph-name="questiondown" unicode="&#xbf;" horiz-adv-x="782" 
d="M563 621v-72q0 -94 -29.5 -165.5t-107.5 -156.5q-74 -81 -94.5 -127t-20.5 -116q0 -63 31 -104.5t94 -41.5q109 0 226 78l96 -201q-158 -106 -348 -106q-167 0 -262 90.5t-95 255.5q0 76 14 134t44 109.5t112 141.5q66 70 85.5 111.5t19.5 107.5v62h235zM610 954
q0 -79 -43 -121t-125 -42q-78 0 -120.5 42t-42.5 121q0 78 43.5 121t119.5 43q82 0 125 -43.5t43 -120.5z" />
    <glyph glyph-name="Agrave" unicode="&#xc0;" horiz-adv-x="1094" 
d="M821 0l-84 369h-381l-84 -369h-272l362 1468h369l363 -1468h-273zM686 610l-78 340q-7 31 -31.5 155.5t-29.5 166.5q-13 -86 -33 -189.5t-104 -472.5h276zM496 1579q-75 60 -176 160.5t-127 146.5v21h318q27 -60 80.5 -155.5t91.5 -145.5v-27h-187z" />
    <glyph glyph-name="Aacute" unicode="&#xc1;" horiz-adv-x="1094" 
d="M821 0l-84 369h-381l-84 -369h-272l362 1468h369l363 -1468h-273zM686 610l-78 340q-7 31 -31.5 155.5t-29.5 166.5q-13 -86 -33 -189.5t-104 -472.5h276zM405 1579v27q41 53 95 151t77 150h318v-21q-24 -43 -119 -138.5t-184 -168.5h-187z" />
    <glyph glyph-name="Acircumflex" unicode="&#xc2;" horiz-adv-x="1094" 
d="M821 0l-84 369h-381l-84 -369h-272l362 1468h369l363 -1468h-273zM686 610l-78 340q-7 31 -31.5 155.5t-29.5 166.5q-13 -86 -33 -189.5t-104 -472.5h276zM735 1579q-96 72 -189 178q-89 -100 -186 -178h-168v27q177 223 217 301h277q47 -87 217 -301v-27h-168z" />
    <glyph glyph-name="Atilde" unicode="&#xc3;" horiz-adv-x="1094" 
d="M821 0l-84 369h-381l-84 -369h-272l362 1468h369l363 -1468h-273zM686 610l-78 340q-7 31 -31.5 155.5t-29.5 166.5q-13 -86 -33 -189.5t-104 -472.5h276zM429 1686q-31 0 -49.5 -23.5t-28.5 -85.5h-141q11 153 68.5 227t150.5 74q43 0 77.5 -16.5t64.5 -36.5t58 -36.5
t58 -16.5q34 0 49.5 26t26.5 82h141q-11 -152 -69.5 -226.5t-149.5 -74.5q-44 0 -78.5 16.5t-64 37t-56.5 37t-57 16.5z" />
    <glyph glyph-name="Adieresis" unicode="&#xc4;" horiz-adv-x="1094" 
d="M821 0l-84 369h-381l-84 -369h-272l362 1468h369l363 -1468h-273zM686 610l-78 340q-7 31 -31.5 155.5t-29.5 166.5q-13 -86 -33 -189.5t-104 -472.5h276zM216 1741q0 61 35 95t97 34t97.5 -35.5t35.5 -93.5q0 -57 -35.5 -92t-97.5 -35t-97 33.5t-35 93.5zM614 1741
q0 60 35 94.5t98 34.5q61 0 97 -34t36 -95q0 -59 -35.5 -93t-97.5 -34t-97.5 34.5t-35.5 92.5z" />
    <glyph glyph-name="Aring" unicode="&#xc5;" horiz-adv-x="1094" 
d="M821 0l-84 369h-381l-84 -369h-272l362 1468h369l363 -1468h-273zM686 610l-78 340q-7 31 -31.5 155.5t-29.5 166.5q-13 -86 -33 -189.5t-104 -472.5h276zM796 1571q0 -107 -69.5 -171.5t-180.5 -64.5q-110 0 -177 62.5t-67 171.5q0 108 67 170.5t177 62.5
q109 0 179.5 -64t70.5 -167zM646 1569q0 46 -28.5 73t-71.5 27t-71.5 -27t-28.5 -73q0 -47 25 -74t75 -27q43 0 71.5 27t28.5 74z" />
    <glyph glyph-name="AE" unicode="&#xc6;" horiz-adv-x="1425" 
d="M1339 0h-655v369h-299l-113 -369h-272l473 1462h866v-235h-383v-348h355v-236h-355v-405h383v-238zM645 1227l-14 -49l-170 -568h223v617h-39z" />
    <glyph glyph-name="Ccedilla" unicode="&#xc7;" horiz-adv-x="948" 
d="M614 1245q-117 0 -184.5 -137t-67.5 -381q0 -508 265 -508q116 0 243 74v-242q-107 -71 -274 -71q-247 0 -379.5 196.5t-132.5 552.5t136.5 555t379.5 199q80 0 153.5 -22t157.5 -77l-90 -221q-45 31 -96 56.5t-111 25.5zM747 -260q0 -107 -71 -169.5t-220 -62.5
q-73 0 -131 21v154q61 -17 121 -17q88 0 88 66q0 84 -157 110l79 158h173l-37 -76q68 -17 111.5 -63t43.5 -121z" />
    <glyph glyph-name="Egrave" unicode="&#xc8;" horiz-adv-x="872" 
d="M788 0h-659v1462h659v-235h-387v-348h359v-236h-359v-405h387v-238zM392 1579q-75 60 -176 160.5t-127 146.5v21h318q27 -60 80.5 -155.5t91.5 -145.5v-27h-187z" />
    <glyph glyph-name="Eacute" unicode="&#xc9;" horiz-adv-x="872" 
d="M788 0h-659v1462h659v-235h-387v-348h359v-236h-359v-405h387v-238zM336 1579v27q41 53 95 151t77 150h318v-21q-24 -43 -119 -138.5t-184 -168.5h-187z" />
    <glyph glyph-name="Ecircumflex" unicode="&#xca;" horiz-adv-x="872" 
d="M788 0h-659v1462h659v-235h-387v-348h359v-236h-359v-405h387v-238zM646 1579q-96 72 -189 178q-89 -100 -186 -178h-168v27q177 223 217 301h277q47 -87 217 -301v-27h-168z" />
    <glyph glyph-name="Edieresis" unicode="&#xcb;" horiz-adv-x="872" 
d="M788 0h-659v1462h659v-235h-387v-348h359v-236h-359v-405h387v-238zM130 1741q0 61 35 95t97 34t97.5 -35.5t35.5 -93.5q0 -57 -35.5 -92t-97.5 -35t-97 33.5t-35 93.5zM528 1741q0 60 35 94.5t98 34.5q61 0 97 -34t36 -95q0 -59 -35.5 -93t-97.5 -34t-97.5 34.5
t-35.5 92.5z" />
    <glyph glyph-name="Igrave.alt" 
d="M549 0h-486v162l115 57v1024l-115 57v162h486v-162l-115 -57v-1024l115 -57v-162zM255 1579q-75 60 -176 160.5t-127 146.5v21h318q27 -60 80.5 -155.5t91.5 -145.5v-27h-187z" />
    <glyph glyph-name="Iacute.alt" 
d="M549 0h-486v162l115 57v1024l-115 57v162h486v-162l-115 -57v-1024l115 -57v-162zM167 1579v27q41 53 95 151t77 150h318v-21q-24 -43 -119 -138.5t-184 -168.5h-187z" />
    <glyph glyph-name="Icircumflex.alt" 
d="M549 0h-486v162l115 57v1024l-115 57v162h486v-162l-115 -57v-1024l115 -57v-162zM497 1579q-96 72 -189 178q-89 -100 -186 -178h-168v27q177 223 217 301h277q47 -87 217 -301v-27h-168z" />
    <glyph glyph-name="Idieresis.alt" 
d="M549 0h-486v162l115 57v1024l-115 57v162h486v-162l-115 -57v-1024l115 -57v-162zM-18 1741q0 61 35 95t97 34t97.5 -35.5t35.5 -93.5q0 -57 -35.5 -92t-97.5 -35t-97 33.5t-35 93.5zM380 1741q0 60 35 94.5t98 34.5q61 0 97 -34t36 -95q0 -59 -35.5 -93t-97.5 -34
t-97.5 34.5t-35.5 92.5z" />
    <glyph glyph-name="Eth" unicode="&#xd0;" horiz-adv-x="1143" 
d="M0 842h129v620h391q255 0 397 -188.5t142 -528.5q0 -362 -147.5 -553.5t-424.5 -191.5h-358v604h-129v238zM780 737q0 490 -270 490h-109v-385h183v-238h-183v-366h88q149 0 220 124.5t71 374.5z" />
    <glyph glyph-name="Ntilde" unicode="&#xd1;" horiz-adv-x="1282" 
d="M1153 0h-332l-452 1059h-13q25 -121 25 -260v-799h-252v1462h334l448 -1048h11q-19 105 -19 250v798h250v-1462zM522 1686q-31 0 -49.5 -23.5t-28.5 -85.5h-141q11 153 68.5 227t150.5 74q43 0 77.5 -16.5t64.5 -36.5t58 -36.5t58 -16.5q34 0 49.5 26t26.5 82h141
q-11 -152 -69.5 -226.5t-149.5 -74.5q-44 0 -78.5 16.5t-64 37t-56.5 37t-57 16.5z" />
    <glyph glyph-name="Ograve" unicode="&#xd2;" horiz-adv-x="1219" 
d="M1135 733q0 -363 -136 -558t-389 -195q-254 0 -390 194.5t-136 560.5q0 363 136 556.5t392 193.5q253 0 388 -194.5t135 -557.5zM362 733q0 -250 63 -381t185 -131q246 0 246 512t-244 512q-124 0 -187 -130.5t-63 -381.5zM547 1579q-75 60 -176 160.5t-127 146.5v21h318
q27 -60 80.5 -155.5t91.5 -145.5v-27h-187z" />
    <glyph glyph-name="Oacute" unicode="&#xd3;" horiz-adv-x="1219" 
d="M1135 733q0 -363 -136 -558t-389 -195q-254 0 -390 194.5t-136 560.5q0 363 136 556.5t392 193.5q253 0 388 -194.5t135 -557.5zM362 733q0 -250 63 -381t185 -131q246 0 246 512t-244 512q-124 0 -187 -130.5t-63 -381.5zM477 1579v27q41 53 95 151t77 150h318v-21
q-24 -43 -119 -138.5t-184 -168.5h-187z" />
    <glyph glyph-name="Ocircumflex" unicode="&#xd4;" horiz-adv-x="1219" 
d="M1135 733q0 -363 -136 -558t-389 -195q-254 0 -390 194.5t-136 560.5q0 363 136 556.5t392 193.5q253 0 388 -194.5t135 -557.5zM362 733q0 -250 63 -381t185 -131q246 0 246 512t-244 512q-124 0 -187 -130.5t-63 -381.5zM795 1579q-96 72 -189 178q-89 -100 -186 -178
h-168v27q177 223 217 301h277q47 -87 217 -301v-27h-168z" />
    <glyph glyph-name="Otilde" unicode="&#xd5;" horiz-adv-x="1219" 
d="M1135 733q0 -363 -136 -558t-389 -195q-254 0 -390 194.5t-136 560.5q0 363 136 556.5t392 193.5q253 0 388 -194.5t135 -557.5zM362 733q0 -250 63 -381t185 -131q246 0 246 512t-244 512q-124 0 -187 -130.5t-63 -381.5zM491 1686q-31 0 -49.5 -23.5t-28.5 -85.5h-141
q11 153 68.5 227t150.5 74q43 0 77.5 -16.5t64.5 -36.5t58 -36.5t58 -16.5q34 0 49.5 26t26.5 82h141q-11 -152 -69.5 -226.5t-149.5 -74.5q-44 0 -78.5 16.5t-64 37t-56.5 37t-57 16.5z" />
    <glyph glyph-name="Odieresis" unicode="&#xd6;" horiz-adv-x="1219" 
d="M1135 733q0 -363 -136 -558t-389 -195q-254 0 -390 194.5t-136 560.5q0 363 136 556.5t392 193.5q253 0 388 -194.5t135 -557.5zM362 733q0 -250 63 -381t185 -131q246 0 246 512t-244 512q-124 0 -187 -130.5t-63 -381.5zM276 1741q0 61 35 95t97 34t97.5 -35.5
t35.5 -93.5q0 -57 -35.5 -92t-97.5 -35t-97 33.5t-35 93.5zM674 1741q0 60 35 94.5t98 34.5q61 0 97 -34t36 -95q0 -59 -35.5 -93t-97.5 -34t-97.5 34.5t-35.5 92.5z" />
    <glyph glyph-name="multiply" unicode="&#xd7;" horiz-adv-x="918" 
d="M92 389l246 334l-246 330l152 112l213 -282l215 282l151 -112l-245 -330l245 -334l-151 -113l-215 289l-213 -289z" />
    <glyph glyph-name="Oslash" unicode="&#xd8;" horiz-adv-x="1219" 
d="M1135 733q0 -363 -136 -558t-389 -195q-135 0 -241 57l-70 -139l-166 77l96 187q-145 193 -145 573q0 363 136 556.5t392 193.5q137 0 252 -68l72 142l166 -76l-101 -197q134 -192 134 -553zM856 733q0 152 -12 236l-363 -709q48 -39 129 -39q246 0 246 512zM362 733
q0 -158 21 -266l371 729q-53 49 -142 49q-124 0 -187 -130.5t-63 -381.5z" />
    <glyph glyph-name="Ugrave" unicode="&#xd9;" horiz-adv-x="1151" 
d="M1028 1462v-946q0 -261 -118 -398.5t-341 -137.5q-218 0 -332 136.5t-114 403.5v942h270v-962q0 -279 185 -279q86 0 133 71t47 202v968h270zM513 1579q-75 60 -176 160.5t-127 146.5v21h318q27 -60 80.5 -155.5t91.5 -145.5v-27h-187z" />
    <glyph glyph-name="Uacute" unicode="&#xda;" horiz-adv-x="1151" 
d="M1028 1462v-946q0 -261 -118 -398.5t-341 -137.5q-218 0 -332 136.5t-114 403.5v942h270v-962q0 -279 185 -279q86 0 133 71t47 202v968h270zM444 1579v27q41 53 95 151t77 150h318v-21q-24 -43 -119 -138.5t-184 -168.5h-187z" />
    <glyph glyph-name="Ucircumflex" unicode="&#xdb;" horiz-adv-x="1151" 
d="M1028 1462v-946q0 -261 -118 -398.5t-341 -137.5q-218 0 -332 136.5t-114 403.5v942h270v-962q0 -279 185 -279q86 0 133 71t47 202v968h270zM762 1579q-96 72 -189 178q-89 -100 -186 -178h-168v27q177 223 217 301h277q47 -87 217 -301v-27h-168z" />
    <glyph glyph-name="Udieresis" unicode="&#xdc;" horiz-adv-x="1151" 
d="M1028 1462v-946q0 -261 -118 -398.5t-341 -137.5q-218 0 -332 136.5t-114 403.5v942h270v-962q0 -279 185 -279q86 0 133 71t47 202v968h270zM243 1741q0 61 35 95t97 34t97.5 -35.5t35.5 -93.5q0 -57 -35.5 -92t-97.5 -35t-97 33.5t-35 93.5zM641 1741q0 60 35 94.5
t98 34.5q61 0 97 -34t36 -95q0 -59 -35.5 -93t-97.5 -34t-97.5 34.5t-35.5 92.5z" />
    <glyph glyph-name="Yacute" unicode="&#xdd;" horiz-adv-x="961" 
d="M481 885l195 577h285l-347 -876v-586h-268v575l-346 887h287zM346 1579v27q41 53 95 151t77 150h318v-21q-24 -43 -119 -138.5t-184 -168.5h-187z" />
    <glyph glyph-name="Thorn" unicode="&#xde;" horiz-adv-x="981" 
d="M926 778q0 -233 -117 -358t-340 -125h-68v-295h-272v1462h272v-233h97q428 0 428 -451zM401 530h52q100 0 149 56t49 182q0 227 -182 227h-68v-465z" />
    <glyph glyph-name="germandbls" unicode="&#xdf;" horiz-adv-x="1108" 
d="M963 1245q0 -151 -106 -263l-51 -53q-56 -58 -56 -93q0 -36 26.5 -69t126.5 -114q95 -76 128.5 -146.5t33.5 -168.5q0 -169 -100 -263.5t-283 -94.5q-140 0 -231 53v225q105 -70 208 -70q134 0 134 129q0 55 -27 95.5t-115 109.5q-89 66 -127.5 129t-38.5 148
q0 62 25 113.5t79 104.5q58 57 80.5 96.5t22.5 86.5q0 68 -38.5 107t-112.5 39q-162 0 -162 -203v-1143h-266v1151q0 202 112.5 309t319.5 107q196 0 307 -85t111 -237z" />
    <glyph glyph-name="agrave" unicode="&#xe0;" horiz-adv-x="956" 
d="M659 0l-53 152h-6q-59 -98 -122 -135t-159 -37q-123 0 -193.5 92t-70.5 256q0 176 96.5 261.5t288.5 94.5l148 6v80q0 156 -135 156q-100 0 -230 -78l-92 184q166 105 361 105q177 0 269.5 -101.5t92.5 -287.5v-748h-195zM428 188q73 0 116.5 65.5t43.5 174.5v94l-82 -4
q-91 -5 -133.5 -52t-42.5 -140q0 -138 98 -138zM449 1241q-75 60 -176 160.5t-127 146.5v21h318q27 -60 80.5 -155.5t91.5 -145.5v-27h-187z" />
    <glyph glyph-name="aacute" unicode="&#xe1;" horiz-adv-x="956" 
d="M659 0l-53 152h-6q-59 -98 -122 -135t-159 -37q-123 0 -193.5 92t-70.5 256q0 176 96.5 261.5t288.5 94.5l148 6v80q0 156 -135 156q-100 0 -230 -78l-92 184q166 105 361 105q177 0 269.5 -101.5t92.5 -287.5v-748h-195zM428 188q73 0 116.5 65.5t43.5 174.5v94l-82 -4
q-91 -5 -133.5 -52t-42.5 -140q0 -138 98 -138zM362 1241v27q41 53 95 151t77 150h318v-21q-24 -43 -119 -138.5t-184 -168.5h-187z" />
    <glyph glyph-name="acircumflex" unicode="&#xe2;" horiz-adv-x="956" 
d="M659 0l-53 152h-6q-59 -98 -122 -135t-159 -37q-123 0 -193.5 92t-70.5 256q0 176 96.5 261.5t288.5 94.5l148 6v80q0 156 -135 156q-100 0 -230 -78l-92 184q166 105 361 105q177 0 269.5 -101.5t92.5 -287.5v-748h-195zM428 188q73 0 116.5 65.5t43.5 174.5v94l-82 -4
q-91 -5 -133.5 -52t-42.5 -140q0 -138 98 -138zM683 1240q-96 72 -189 178q-89 -100 -186 -178h-168v27q177 223 217 301h277q47 -87 217 -301v-27h-168z" />
    <glyph glyph-name="atilde" unicode="&#xe3;" horiz-adv-x="956" 
d="M659 0l-53 152h-6q-59 -98 -122 -135t-159 -37q-123 0 -193.5 92t-70.5 256q0 176 96.5 261.5t288.5 94.5l148 6v80q0 156 -135 156q-100 0 -230 -78l-92 184q166 105 361 105q177 0 269.5 -101.5t92.5 -287.5v-748h-195zM428 188q73 0 116.5 65.5t43.5 174.5v94l-82 -4
q-91 -5 -133.5 -52t-42.5 -140q0 -138 98 -138zM380 1348q-31 0 -49.5 -23.5t-28.5 -85.5h-141q11 153 68.5 227t150.5 74q43 0 77.5 -16.5t64.5 -36.5t58 -36.5t58 -16.5q34 0 49.5 26t26.5 82h141q-11 -152 -69.5 -226.5t-149.5 -74.5q-44 0 -78.5 16.5t-64 37t-56.5 37
t-57 16.5z" />
    <glyph glyph-name="adieresis" unicode="&#xe4;" horiz-adv-x="956" 
d="M659 0l-53 152h-6q-59 -98 -122 -135t-159 -37q-123 0 -193.5 92t-70.5 256q0 176 96.5 261.5t288.5 94.5l148 6v80q0 156 -135 156q-100 0 -230 -78l-92 184q166 105 361 105q177 0 269.5 -101.5t92.5 -287.5v-748h-195zM428 188q73 0 116.5 65.5t43.5 174.5v94l-82 -4
q-91 -5 -133.5 -52t-42.5 -140q0 -138 98 -138zM164 1403q0 61 35 95t97 34t97.5 -35.5t35.5 -93.5q0 -57 -35.5 -92t-97.5 -35t-97 33.5t-35 93.5zM562 1403q0 60 35 94.5t98 34.5q61 0 97 -34t36 -95q0 -59 -35.5 -93t-97.5 -34t-97.5 34.5t-35.5 92.5z" />
    <glyph glyph-name="aring" unicode="&#xe5;" horiz-adv-x="956" 
d="M659 0l-53 152h-6q-59 -98 -122 -135t-159 -37q-123 0 -193.5 92t-70.5 256q0 176 96.5 261.5t288.5 94.5l148 6v80q0 156 -135 156q-100 0 -230 -78l-92 184q166 105 361 105q177 0 269.5 -101.5t92.5 -287.5v-748h-195zM428 188q73 0 116.5 65.5t43.5 174.5v94l-82 -4
q-91 -5 -133.5 -52t-42.5 -140q0 -138 98 -138zM743 1475q0 -107 -69.5 -171.5t-180.5 -64.5q-110 0 -177 62.5t-67 171.5q0 108 67 170.5t177 62.5q109 0 179.5 -64t70.5 -167zM593 1473q0 46 -28.5 73t-71.5 27t-71.5 -27t-28.5 -73q0 -47 25 -74t75 -27q43 0 71.5 27
t28.5 74z" />
    <glyph glyph-name="ae" unicode="&#xe6;" horiz-adv-x="1446" 
d="M1028 -20q-231 0 -344 180q-57 -93 -132.5 -136.5t-180.5 -43.5q-154 0 -235 88.5t-81 259.5q0 176 96.5 261.5t288.5 94.5l148 6v78q0 158 -135 158q-100 0 -230 -78l-92 184q166 105 361 105q165 0 258 -93q99 91 241 91q184 0 287.5 -134t103.5 -370v-142h-534
q3 -149 61 -221.5t160 -72.5q135 0 266 81v-219q-127 -77 -307 -77zM588 522l-82 -4q-91 -5 -133.5 -52t-42.5 -140q0 -138 98 -138q73 0 116.5 65.5t43.5 174.5v94zM991 930q-125 0 -137 -248h270q-2 122 -37 185t-96 63z" />
    <glyph glyph-name="ccedilla" unicode="&#xe7;" horiz-adv-x="760" 
d="M481 -20q-199 0 -303 145t-104 426q0 294 98.5 439t304.5 145q62 0 130 -18t122 -52l-76 -207q-83 49 -147 49q-85 0 -122.5 -88.5t-37.5 -265.5q0 -173 37 -258.5t121 -85.5q100 0 209 70v-234q-105 -65 -232 -65zM643 -260q0 -107 -71 -169.5t-220 -62.5q-73 0 -131 21
v154q61 -17 121 -17q88 0 88 66q0 84 -157 110l79 158h173l-37 -76q68 -17 111.5 -63t43.5 -121z" />
    <glyph glyph-name="egrave" unicode="&#xe8;" horiz-adv-x="942" 
d="M524 -20q-209 0 -329.5 148.5t-120.5 420.5q0 276 109 431t304 155q182 0 287 -132.5t105 -371.5v-142h-535q3 -149 61 -221.5t160 -72.5q130 0 266 81v-219q-128 -77 -307 -77zM485 930q-57 0 -94 -60.5t-43 -187.5h270q-2 122 -37 185t-96 63zM447 1241
q-75 60 -176 160.5t-127 146.5v21h318q27 -60 80.5 -155.5t91.5 -145.5v-27h-187z" />
    <glyph glyph-name="eacute" unicode="&#xe9;" horiz-adv-x="942" 
d="M524 -20q-209 0 -329.5 148.5t-120.5 420.5q0 276 109 431t304 155q182 0 287 -132.5t105 -371.5v-142h-535q3 -149 61 -221.5t160 -72.5q130 0 266 81v-219q-128 -77 -307 -77zM485 930q-57 0 -94 -60.5t-43 -187.5h270q-2 122 -37 185t-96 63zM348 1241v27
q41 53 95 151t77 150h318v-21q-24 -43 -119 -138.5t-184 -168.5h-187z" />
    <glyph glyph-name="ecircumflex" unicode="&#xea;" horiz-adv-x="942" 
d="M524 -20q-209 0 -329.5 148.5t-120.5 420.5q0 276 109 431t304 155q182 0 287 -132.5t105 -371.5v-142h-535q3 -149 61 -221.5t160 -72.5q130 0 266 81v-219q-128 -77 -307 -77zM485 930q-57 0 -94 -60.5t-43 -187.5h270q-2 122 -37 185t-96 63zM675 1241
q-96 72 -189 178q-89 -100 -186 -178h-168v27q177 223 217 301h277q47 -87 217 -301v-27h-168z" />
    <glyph glyph-name="edieresis" unicode="&#xeb;" horiz-adv-x="942" 
d="M524 -20q-209 0 -329.5 148.5t-120.5 420.5q0 276 109 431t304 155q182 0 287 -132.5t105 -371.5v-142h-535q3 -149 61 -221.5t160 -72.5q130 0 266 81v-219q-128 -77 -307 -77zM485 930q-57 0 -94 -60.5t-43 -187.5h270q-2 122 -37 185t-96 63zM156 1403q0 61 35 95
t97 34t97.5 -35.5t35.5 -93.5q0 -57 -35.5 -92t-97.5 -35t-97 33.5t-35 93.5zM554 1403q0 60 35 94.5t98 34.5q61 0 97 -34t36 -95q0 -59 -35.5 -93t-97.5 -34t-97.5 34.5t-35.5 92.5z" />
    <glyph glyph-name="igrave" unicode="&#xec;" horiz-adv-x="496" 
d="M381 0h-266v1114h266v-1114zM193 1241q-75 60 -176 160.5t-127 146.5v21h318q27 -60 80.5 -155.5t91.5 -145.5v-27h-187z" />
    <glyph glyph-name="iacute" unicode="&#xed;" horiz-adv-x="496" 
d="M381 0h-266v1114h266v-1114zM113 1241v27q41 53 95 151t77 150h318v-21q-24 -43 -119 -138.5t-184 -168.5h-187z" />
    <glyph glyph-name="icircumflex" unicode="&#xee;" horiz-adv-x="496" 
d="M381 0h-266v1114h266v-1114zM433 1241q-96 72 -189 178q-89 -100 -186 -178h-168v27q177 223 217 301h277q47 -87 217 -301v-27h-168z" />
    <glyph glyph-name="idieresis" unicode="&#xef;" horiz-adv-x="496" 
d="M381 0h-266v1114h266v-1114zM-85 1403q0 61 35 95t97 34t97.5 -35.5t35.5 -93.5q0 -57 -35.5 -92t-97.5 -35t-97 33.5t-35 93.5zM313 1403q0 60 35 94.5t98 34.5q61 0 97 -34t36 -95q0 -59 -35.5 -93t-97.5 -34t-97.5 34.5t-35.5 92.5z" />
    <glyph glyph-name="eth" unicode="&#xf0;" horiz-adv-x="1012" 
d="M938 569q0 -275 -114.5 -432t-321.5 -157q-198 0 -313 135.5t-115 367.5q0 240 100.5 374t284.5 134q121 0 205 -117l12 3q-48 178 -182 317l-220 -145l-96 145l193 123q-49 38 -154 96l94 158q148 -77 234 -144l207 140l94 -144l-170 -110q135 -141 198.5 -325.5
t63.5 -418.5zM666 530q0 116 -42.5 183t-113.5 67q-88 0 -126 -74t-38 -223q0 -133 41.5 -204.5t120.5 -71.5q85 0 121.5 81t36.5 242z" />
    <glyph glyph-name="ntilde" unicode="&#xf1;" horiz-adv-x="1038" 
d="M668 0v664q0 121 -29 183t-94 62q-86 0 -126 -85.5t-40 -288.5v-535h-266v1114h211l32 -143h17q36 77 103 120.5t157 43.5q152 0 227.5 -104t75.5 -304v-727h-268zM402 1348q-31 0 -49.5 -23.5t-28.5 -85.5h-141q11 153 68.5 227t150.5 74q43 0 77.5 -16.5t64.5 -36.5
t58 -36.5t58 -16.5q34 0 49.5 26t26.5 82h141q-11 -152 -69.5 -226.5t-149.5 -74.5q-44 0 -78.5 16.5t-64 37t-56.5 37t-57 16.5z" />
    <glyph glyph-name="ograve" unicode="&#xf2;" horiz-adv-x="1012" 
d="M938 559q0 -274 -116 -426.5t-318 -152.5q-128 0 -226 70t-151 201.5t-53 307.5q0 271 115 423.5t319 152.5q197 0 313.5 -155.5t116.5 -420.5zM346 559q0 -174 38 -263t122 -89q160 0 160 352q0 175 -38.5 261.5t-121.5 86.5q-84 0 -122 -86.5t-38 -261.5zM459 1241
q-75 60 -176 160.5t-127 146.5v21h318q27 -60 80.5 -155.5t91.5 -145.5v-27h-187z" />
    <glyph glyph-name="oacute" unicode="&#xf3;" horiz-adv-x="1012" 
d="M938 559q0 -274 -116 -426.5t-318 -152.5q-128 0 -226 70t-151 201.5t-53 307.5q0 271 115 423.5t319 152.5q197 0 313.5 -155.5t116.5 -420.5zM346 559q0 -174 38 -263t122 -89q160 0 160 352q0 175 -38.5 261.5t-121.5 86.5q-84 0 -122 -86.5t-38 -261.5zM366 1241v27
q41 53 95 151t77 150h318v-21q-24 -43 -119 -138.5t-184 -168.5h-187z" />
    <glyph glyph-name="ocircumflex" unicode="&#xf4;" horiz-adv-x="1012" 
d="M938 559q0 -274 -116 -426.5t-318 -152.5q-128 0 -226 70t-151 201.5t-53 307.5q0 271 115 423.5t319 152.5q197 0 313.5 -155.5t116.5 -420.5zM346 559q0 -174 38 -263t122 -89q160 0 160 352q0 175 -38.5 261.5t-121.5 86.5q-84 0 -122 -86.5t-38 -261.5zM694 1241
q-96 72 -189 178q-89 -100 -186 -178h-168v27q177 223 217 301h277q47 -87 217 -301v-27h-168z" />
    <glyph glyph-name="otilde" unicode="&#xf5;" horiz-adv-x="1012" 
d="M938 559q0 -274 -116 -426.5t-318 -152.5q-128 0 -226 70t-151 201.5t-53 307.5q0 271 115 423.5t319 152.5q197 0 313.5 -155.5t116.5 -420.5zM346 559q0 -174 38 -263t122 -89q160 0 160 352q0 175 -38.5 261.5t-121.5 86.5q-84 0 -122 -86.5t-38 -261.5zM388 1348
q-31 0 -49.5 -23.5t-28.5 -85.5h-141q11 153 68.5 227t150.5 74q43 0 77.5 -16.5t64.5 -36.5t58 -36.5t58 -16.5q34 0 49.5 26t26.5 82h141q-11 -152 -69.5 -226.5t-149.5 -74.5q-44 0 -78.5 16.5t-64 37t-56.5 37t-57 16.5z" />
    <glyph glyph-name="odieresis" unicode="&#xf6;" horiz-adv-x="1012" 
d="M938 559q0 -274 -116 -426.5t-318 -152.5q-128 0 -226 70t-151 201.5t-53 307.5q0 271 115 423.5t319 152.5q197 0 313.5 -155.5t116.5 -420.5zM346 559q0 -174 38 -263t122 -89q160 0 160 352q0 175 -38.5 261.5t-121.5 86.5q-84 0 -122 -86.5t-38 -261.5zM175 1403
q0 61 35 95t97 34t97.5 -35.5t35.5 -93.5q0 -57 -35.5 -92t-97.5 -35t-97 33.5t-35 93.5zM573 1403q0 60 35 94.5t98 34.5q61 0 97 -34t36 -95q0 -59 -35.5 -93t-97.5 -34t-97.5 34.5t-35.5 92.5z" />
    <glyph glyph-name="divide" unicode="&#xf7;" horiz-adv-x="918" 
d="M106 618v207h705v-207h-705zM332 373q0 145 125 145q61 0 92 -37.5t31 -107.5q0 -68 -32.5 -107t-90.5 -39q-54 0 -89.5 34.5t-35.5 111.5zM332 1071q0 146 125 146q61 0 92 -37.5t31 -108.5q0 -67 -32.5 -106t-90.5 -39q-54 0 -89.5 34t-35.5 111z" />
    <glyph glyph-name="oslash" unicode="&#xf8;" horiz-adv-x="1012" 
d="M938 559q0 -274 -116 -426.5t-318 -152.5q-92 0 -166 36l-57 -112l-162 76l78 151q-57 71 -90 179.5t-33 248.5q0 271 115 423.5t319 152.5q98 0 176 -41l51 96l160 -74l-72 -141q115 -148 115 -416zM338 559v-73l2 -70l244 475q-34 16 -78 16q-168 0 -168 -348zM676 559
l-4 117l-234 -457q25 -12 68 -12q83 0 126.5 89t43.5 263z" />
    <glyph glyph-name="ugrave" unicode="&#xf9;" horiz-adv-x="1038" 
d="M715 0l-33 143h-14q-37 -76 -105.5 -119.5t-156.5 -43.5q-150 0 -227 102t-77 305v727h269v-663q0 -122 29 -184t94 -62q86 0 125.5 86t39.5 289v534h269v-1114h-213zM463 1241q-75 60 -176 160.5t-127 146.5v21h318q27 -60 80.5 -155.5t91.5 -145.5v-27h-187z" />
    <glyph glyph-name="uacute" unicode="&#xfa;" horiz-adv-x="1038" 
d="M715 0l-33 143h-14q-37 -76 -105.5 -119.5t-156.5 -43.5q-150 0 -227 102t-77 305v727h269v-663q0 -122 29 -184t94 -62q86 0 125.5 86t39.5 289v534h269v-1114h-213zM381 1241v27q41 53 95 151t77 150h318v-21q-24 -43 -119 -138.5t-184 -168.5h-187z" />
    <glyph glyph-name="ucircumflex" unicode="&#xfb;" horiz-adv-x="1038" 
d="M715 0l-33 143h-14q-37 -76 -105.5 -119.5t-156.5 -43.5q-150 0 -227 102t-77 305v727h269v-663q0 -122 29 -184t94 -62q86 0 125.5 86t39.5 289v534h269v-1114h-213zM706 1241q-96 72 -189 178q-89 -100 -186 -178h-168v27q177 223 217 301h277q47 -87 217 -301v-27
h-168z" />
    <glyph glyph-name="udieresis" unicode="&#xfc;" horiz-adv-x="1038" 
d="M715 0l-33 143h-14q-37 -76 -105.5 -119.5t-156.5 -43.5q-150 0 -227 102t-77 305v727h269v-663q0 -122 29 -184t94 -62q86 0 125.5 86t39.5 289v534h269v-1114h-213zM185 1403q0 61 35 95t97 34t97.5 -35.5t35.5 -93.5q0 -57 -35.5 -92t-97.5 -35t-97 33.5t-35 93.5z
M583 1403q0 60 35 94.5t98 34.5q61 0 97 -34t36 -95q0 -59 -35.5 -93t-97.5 -34t-97.5 34.5t-35.5 92.5z" />
    <glyph glyph-name="yacute" unicode="&#xfd;" horiz-adv-x="913" 
d="M0 1114h276l154 -629q23 -84 37 -235h6q1 24 9 85.5t13 96.5t138 682h280l-319 -1194q-58 -220 -154 -316t-256 -96q-79 0 -141 17v223q41 -12 92 -12q134 0 176 176l19 70zM310 1241v27q41 53 95 151t77 150h318v-21q-24 -43 -119 -138.5t-184 -168.5h-187z" />
    <glyph glyph-name="thorn" unicode="&#xfe;" horiz-adv-x="1016" 
d="M379 969q49 93 106 129.5t133 36.5q152 0 238 -150.5t86 -425.5q0 -271 -89 -425t-245 -154q-70 0 -126 33t-103 114h-14q16 -136 16 -164v-455h-268v2048h266v-364q0 -23 -1 -48t-13 -175h14zM528 909q-78 0 -112.5 -72.5t-36.5 -240.5v-35q0 -184 35 -268t116 -84
q140 0 140 354q0 174 -34.5 260t-107.5 86z" />
    <glyph glyph-name="ydieresis" unicode="&#xff;" horiz-adv-x="913" 
d="M0 1114h276l154 -629q23 -84 37 -235h6q1 24 9 85.5t13 96.5t138 682h280l-319 -1194q-58 -220 -154 -316t-256 -96q-79 0 -141 17v223q41 -12 92 -12q134 0 176 176l19 70zM125 1403q0 61 35 95t97 34t97.5 -35.5t35.5 -93.5q0 -57 -35.5 -92t-97.5 -35t-97 33.5
t-35 93.5zM523 1403q0 60 35 94.5t98 34.5q61 0 97 -34t36 -95q0 -59 -35.5 -93t-97.5 -34t-97.5 34.5t-35.5 92.5z" />
    <glyph glyph-name="Amacron" unicode="&#x100;" horiz-adv-x="1094" 
d="M821 0l-84 369h-381l-84 -369h-272l362 1468h369l363 -1468h-273zM686 610l-78 340q-7 31 -31.5 155.5t-29.5 166.5q-13 -86 -33 -189.5t-104 -472.5h276zM244 1813h606v-199h-606v199z" />
    <glyph glyph-name="amacron" unicode="&#x101;" horiz-adv-x="956" 
d="M659 0l-53 152h-6q-59 -98 -122 -135t-159 -37q-123 0 -193.5 92t-70.5 256q0 176 96.5 261.5t288.5 94.5l148 6v80q0 156 -135 156q-100 0 -230 -78l-92 184q166 105 361 105q177 0 269.5 -101.5t92.5 -287.5v-748h-195zM428 188q73 0 116.5 65.5t43.5 174.5v94l-82 -4
q-91 -5 -133.5 -52t-42.5 -140q0 -138 98 -138zM194 1475h606v-199h-606v199z" />
    <glyph glyph-name="Abreve" unicode="&#x102;" horiz-adv-x="1094" 
d="M821 0l-84 369h-381l-84 -369h-272l362 1468h369l363 -1468h-273zM686 610l-78 340q-7 31 -31.5 155.5t-29.5 166.5q-13 -86 -33 -189.5t-104 -472.5h276zM857 1905q-11 -157 -92.5 -241.5t-220.5 -84.5q-146 0 -223.5 85.5t-83.5 240.5h160q7 -71 36.5 -98t112.5 -27
q78 0 109 28.5t41 96.5h161z" />
    <glyph glyph-name="abreve" unicode="&#x103;" horiz-adv-x="956" 
d="M659 0l-53 152h-6q-59 -98 -122 -135t-159 -37q-123 0 -193.5 92t-70.5 256q0 176 96.5 261.5t288.5 94.5l148 6v80q0 156 -135 156q-100 0 -230 -78l-92 184q166 105 361 105q177 0 269.5 -101.5t92.5 -287.5v-748h-195zM428 188q73 0 116.5 65.5t43.5 174.5v94l-82 -4
q-91 -5 -133.5 -52t-42.5 -140q0 -138 98 -138zM805 1567q-11 -157 -92.5 -241.5t-220.5 -84.5q-146 0 -223.5 85.5t-83.5 240.5h160q7 -71 36.5 -98t112.5 -27q78 0 109 28.5t41 96.5h161z" />
    <glyph glyph-name="Aogonek" unicode="&#x104;" horiz-adv-x="1094" 
d="M821 0l-84 369h-381l-84 -369h-272l362 1468h369l363 -1468h-273zM686 610l-78 340q-7 31 -31.5 155.5t-29.5 166.5q-13 -86 -33 -189.5t-104 -472.5h276zM936 -229q0 -44 20.5 -64t51.5 -20q40 0 80 14v-168q-69 -16 -121 -16q-104 0 -167.5 59t-63.5 160q0 141 159 264
h168q-127 -131 -127 -229z" />
    <glyph glyph-name="aogonek" unicode="&#x105;" horiz-adv-x="956" 
d="M659 0l-53 152h-6q-59 -98 -122 -135t-159 -37q-123 0 -193.5 92t-70.5 256q0 176 96.5 261.5t288.5 94.5l148 6v80q0 156 -135 156q-100 0 -230 -78l-92 184q166 105 361 105q177 0 269.5 -101.5t92.5 -287.5v-748h-195zM428 188q73 0 116.5 65.5t43.5 174.5v94l-82 -4
q-91 -5 -133.5 -52t-42.5 -140q0 -138 98 -138zM735 -229q0 -44 20.5 -64t51.5 -20q40 0 80 14v-168q-69 -16 -121 -16q-104 0 -167.5 59t-63.5 160q0 141 159 264h168q-127 -131 -127 -229z" />
    <glyph glyph-name="Cacute" unicode="&#x106;" horiz-adv-x="948" 
d="M614 1245q-117 0 -184.5 -137t-67.5 -381q0 -508 265 -508q116 0 243 74v-242q-107 -71 -274 -71q-247 0 -379.5 196.5t-132.5 552.5t136.5 555t379.5 199q80 0 153.5 -22t157.5 -77l-90 -221q-45 31 -96 56.5t-111 25.5zM415 1579v27q41 53 95 151t77 150h318v-21
q-24 -43 -119 -138.5t-184 -168.5h-187z" />
    <glyph glyph-name="cacute" unicode="&#x107;" horiz-adv-x="760" 
d="M481 -20q-199 0 -303 145t-104 426q0 294 98.5 439t304.5 145q62 0 130 -18t122 -52l-76 -207q-83 49 -147 49q-85 0 -122.5 -88.5t-37.5 -265.5q0 -173 37 -258.5t121 -85.5q100 0 209 70v-234q-105 -65 -232 -65zM287 1241v27q41 53 95 151t77 150h318v-21
q-24 -43 -119 -138.5t-184 -168.5h-187z" />
    <glyph glyph-name="Ccircumflex" unicode="&#x108;" horiz-adv-x="948" 
d="M614 1245q-117 0 -184.5 -137t-67.5 -381q0 -508 265 -508q116 0 243 74v-242q-107 -71 -274 -71q-247 0 -379.5 196.5t-132.5 552.5t136.5 555t379.5 199q80 0 153.5 -22t157.5 -77l-90 -221q-45 31 -96 56.5t-111 25.5zM741 1579q-96 72 -189 178q-89 -100 -186 -178
h-168v27q177 223 217 301h277q47 -87 217 -301v-27h-168z" />
    <glyph glyph-name="ccircumflex" unicode="&#x109;" horiz-adv-x="760" 
d="M481 -20q-199 0 -303 145t-104 426q0 294 98.5 439t304.5 145q62 0 130 -18t122 -52l-76 -207q-83 49 -147 49q-85 0 -122.5 -88.5t-37.5 -265.5q0 -173 37 -258.5t121 -85.5q100 0 209 70v-234q-105 -65 -232 -65zM632 1241q-96 72 -189 178q-89 -100 -186 -178h-168v27
q177 223 217 301h277q47 -87 217 -301v-27h-168z" />
    <glyph glyph-name="Cdot" unicode="&#x10a;" horiz-adv-x="948" 
d="M614 1245q-117 0 -184.5 -137t-67.5 -381q0 -508 265 -508q116 0 243 74v-242q-107 -71 -274 -71q-247 0 -379.5 196.5t-132.5 552.5t136.5 555t379.5 199q80 0 153.5 -22t157.5 -77l-90 -221q-45 31 -96 56.5t-111 25.5zM393 1743q0 143 154 143q153 0 153 -143
q0 -71 -40 -107t-113 -36q-75 0 -114.5 36t-39.5 107z" />
    <glyph glyph-name="cdot" unicode="&#x10b;" horiz-adv-x="760" 
d="M481 -20q-199 0 -303 145t-104 426q0 294 98.5 439t304.5 145q62 0 130 -18t122 -52l-76 -207q-83 49 -147 49q-85 0 -122.5 -88.5t-37.5 -265.5q0 -173 37 -258.5t121 -85.5q100 0 209 70v-234q-105 -65 -232 -65zM293 1405q0 143 154 143q153 0 153 -143
q0 -71 -40 -107t-113 -36q-75 0 -114.5 36t-39.5 107z" />
    <glyph glyph-name="Ccaron" unicode="&#x10c;" horiz-adv-x="948" 
d="M614 1245q-117 0 -184.5 -137t-67.5 -381q0 -508 265 -508q116 0 243 74v-242q-107 -71 -274 -71q-247 0 -379.5 196.5t-132.5 552.5t136.5 555t379.5 199q80 0 153.5 -22t157.5 -77l-90 -221q-45 31 -96 56.5t-111 25.5zM909 1907v-27q-165 -208 -217 -301h-277
q-44 82 -217 301v27h168q95 -69 190 -178q93 103 185 178h168z" />
    <glyph glyph-name="ccaron" unicode="&#x10d;" horiz-adv-x="760" 
d="M481 -20q-199 0 -303 145t-104 426q0 294 98.5 439t304.5 145q62 0 130 -18t122 -52l-76 -207q-83 49 -147 49q-85 0 -122.5 -88.5t-37.5 -265.5q0 -173 37 -258.5t121 -85.5q100 0 209 70v-234q-105 -65 -232 -65zM798 1569v-27q-165 -208 -217 -301h-277
q-44 82 -217 301v27h168q95 -69 190 -178q93 103 185 178h168z" />
    <glyph glyph-name="Dcaron" unicode="&#x10e;" horiz-adv-x="1143" 
d="M1059 745q0 -362 -147.5 -553.5t-424.5 -191.5h-358v1462h391q255 0 397 -188.5t142 -528.5zM780 737q0 490 -270 490h-109v-989h88q149 0 220 124.5t71 374.5zM894 1907v-27q-165 -208 -217 -301h-277q-44 82 -217 301v27h168q95 -69 190 -178q93 103 185 178h168z" />
    <glyph glyph-name="dcaron" unicode="&#x10f;" horiz-adv-x="1081" 
d="M406 -20q-154 0 -243 152t-89 423q0 272 87 426t240 154q76 0 131.5 -37.5t102.5 -126.5h16q-12 152 -12 213v372h266v-1556h-198l-45 145h-9q-85 -165 -247 -165zM492 205q74 0 108 67.5t37 245.5v35q0 194 -34.5 273t-113.5 79q-74 0 -107.5 -90.5t-33.5 -263.5
t34 -259.5t110 -86.5zM996 1255q45 169 61 301h262v-20q-75 -171 -162 -307h-161v26z" />
    <glyph glyph-name="Dcroat" unicode="&#x110;" horiz-adv-x="1143" 
d="M0 842h129v620h391q255 0 397 -188.5t142 -528.5q0 -362 -147.5 -553.5t-424.5 -191.5h-358v604h-129v238zM780 737q0 490 -270 490h-109v-385h183v-238h-183v-366h88q149 0 220 124.5t71 374.5z" />
    <glyph glyph-name="dcroat" unicode="&#x111;" horiz-adv-x="1016" 
d="M406 -20q-153 0 -242.5 144t-89.5 406q0 259 87 407t242 148q75 0 130.5 -37.5t101.5 -125.5h16q-12 148 -12 249v33h-240v187h240v165h266v-165h123v-187h-123v-1204h-198l-43 145h-11q-85 -165 -247 -165zM492 205q82 0 113.5 78.5t31.5 236.5v29q0 169 -34 238
t-114 69q-143 0 -143 -330q0 -161 35 -241t111 -80z" />
    <glyph glyph-name="Emacron" unicode="&#x112;" horiz-adv-x="872" 
d="M788 0h-659v1462h659v-235h-387v-348h359v-236h-359v-405h387v-238zM157 1813h606v-199h-606v199z" />
    <glyph glyph-name="emacron" unicode="&#x113;" horiz-adv-x="942" 
d="M524 -20q-209 0 -329.5 148.5t-120.5 420.5q0 276 109 431t304 155q182 0 287 -132.5t105 -371.5v-142h-535q3 -149 61 -221.5t160 -72.5q130 0 266 81v-219q-128 -77 -307 -77zM485 930q-57 0 -94 -60.5t-43 -187.5h270q-2 122 -37 185t-96 63zM186 1475h606v-199h-606
v199z" />
    <glyph glyph-name="Ebreve" unicode="&#x114;" horiz-adv-x="872" 
d="M788 0h-659v1462h659v-235h-387v-348h359v-236h-359v-405h387v-238zM769 1905q-11 -157 -92.5 -241.5t-220.5 -84.5q-146 0 -223.5 85.5t-83.5 240.5h160q7 -71 36.5 -98t112.5 -27q78 0 109 28.5t41 96.5h161z" />
    <glyph glyph-name="ebreve" unicode="&#x115;" horiz-adv-x="942" 
d="M524 -20q-209 0 -329.5 148.5t-120.5 420.5q0 276 109 431t304 155q182 0 287 -132.5t105 -371.5v-142h-535q3 -149 61 -221.5t160 -72.5q130 0 266 81v-219q-128 -77 -307 -77zM485 930q-57 0 -94 -60.5t-43 -187.5h270q-2 122 -37 185t-96 63zM797 1567
q-11 -157 -92.5 -241.5t-220.5 -84.5q-146 0 -223.5 85.5t-83.5 240.5h160q7 -71 36.5 -98t112.5 -27q78 0 109 28.5t41 96.5h161z" />
    <glyph glyph-name="Edotaccent" unicode="&#x116;" horiz-adv-x="872" 
d="M788 0h-659v1462h659v-235h-387v-348h359v-236h-359v-405h387v-238zM305 1714q0 143 154 143q153 0 153 -143q0 -71 -40 -107t-113 -36q-75 0 -114.5 36t-39.5 107z" />
    <glyph glyph-name="edotaccent" unicode="&#x117;" horiz-adv-x="942" 
d="M524 -20q-209 0 -329.5 148.5t-120.5 420.5q0 276 109 431t304 155q182 0 287 -132.5t105 -371.5v-142h-535q3 -149 61 -221.5t160 -72.5q130 0 266 81v-219q-128 -77 -307 -77zM485 930q-57 0 -94 -60.5t-43 -187.5h270q-2 122 -37 185t-96 63zM332 1405q0 143 154 143
q153 0 153 -143q0 -71 -40 -107t-113 -36q-75 0 -114.5 36t-39.5 107z" />
    <glyph glyph-name="Eogonek" unicode="&#x118;" horiz-adv-x="872" 
d="M788 0h-659v1462h659v-235h-387v-348h359v-236h-359v-405h387v-238zM602 -229q0 -44 20.5 -64t51.5 -20q40 0 80 14v-168q-69 -16 -121 -16q-104 0 -167.5 59t-63.5 160q0 141 159 264h168q-127 -131 -127 -229z" />
    <glyph glyph-name="eogonek" unicode="&#x119;" horiz-adv-x="942" 
d="M524 -20q-209 0 -329.5 148.5t-120.5 420.5q0 276 109 431t304 155q182 0 287 -132.5t105 -371.5v-142h-535q3 -149 61 -221.5t160 -72.5q130 0 266 81v-219q-128 -77 -307 -77zM485 930q-57 0 -94 -60.5t-43 -187.5h270q-2 122 -37 185t-96 63zM630 -206q0 -44 20.5 -64
t51.5 -20q40 0 80 14v-168q-69 -16 -121 -16q-104 0 -167.5 59t-63.5 160q0 141 159 264h168q-127 -131 -127 -229z" />
    <glyph glyph-name="Ecaron" unicode="&#x11a;" horiz-adv-x="872" 
d="M788 0h-659v1462h659v-235h-387v-348h359v-236h-359v-405h387v-238zM814 1907v-27q-165 -208 -217 -301h-277q-44 82 -217 301v27h168q95 -69 190 -178q93 103 185 178h168z" />
    <glyph glyph-name="ecaron" unicode="&#x11b;" horiz-adv-x="942" 
d="M524 -20q-209 0 -329.5 148.5t-120.5 420.5q0 276 109 431t304 155q182 0 287 -132.5t105 -371.5v-142h-535q3 -149 61 -221.5t160 -72.5q130 0 266 81v-219q-128 -77 -307 -77zM485 930q-57 0 -94 -60.5t-43 -187.5h270q-2 122 -37 185t-96 63zM841 1569v-27
q-165 -208 -217 -301h-277q-44 82 -217 301v27h168q95 -69 190 -178q93 103 185 178h168z" />
    <glyph glyph-name="Gcircumflex" unicode="&#x11c;" horiz-adv-x="1112" 
d="M571 811h447v-750q-190 -81 -404 -81q-255 0 -392.5 194t-137.5 559q0 352 157.5 551t440.5 199q175 0 334 -90l-86 -222q-124 72 -232 72q-155 0 -245.5 -138.5t-90.5 -377.5q0 -246 65.5 -377t190.5 -131q66 0 134 17v335h-181v240zM801 1579q-96 72 -189 178
q-89 -100 -186 -178h-168v27q177 223 217 301h277q47 -87 217 -301v-27h-168z" />
    <glyph glyph-name="gcircumflex" unicode="&#x11d;" horiz-adv-x="936" 
d="M915 1112v-156l-133 -30q39 -70 39 -176q0 -177 -96 -277t-268 -100q-50 0 -74 8q-19 -17 -36 -38t-17 -52q0 -70 121 -70h161q142 0 218.5 -76.5t76.5 -230.5q0 -194 -130 -300t-374 -106q-185 0 -285 80.5t-100 229.5q0 93 57 163.5t158 102.5q-51 20 -83.5 62
t-32.5 98q0 34 10 61.5t28.5 52t75.5 72.5q-69 42 -109 129t-40 193q0 183 96 283t275 100q34 0 78 -7.5t67 -15.5h317zM260 -162q0 -66 41.5 -101.5t118.5 -35.5q121 0 181.5 46t60.5 126q0 63 -32.5 89t-121.5 26h-129q-54 0 -86.5 -40.5t-32.5 -109.5zM342 750
q0 -197 111 -197q108 0 108 199q0 204 -108 204q-111 0 -111 -206zM665 1241q-96 72 -189 178q-89 -100 -186 -178h-168v27q177 223 217 301h277q47 -87 217 -301v-27h-168z" />
    <glyph glyph-name="Gbreve" unicode="&#x11e;" horiz-adv-x="1112" 
d="M571 811h447v-750q-190 -81 -404 -81q-255 0 -392.5 194t-137.5 559q0 352 157.5 551t440.5 199q175 0 334 -90l-86 -222q-124 72 -232 72q-155 0 -245.5 -138.5t-90.5 -377.5q0 -246 65.5 -377t190.5 -131q66 0 134 17v335h-181v240zM923 1905q-11 -157 -92.5 -241.5
t-220.5 -84.5q-146 0 -223.5 85.5t-83.5 240.5h160q7 -71 36.5 -98t112.5 -27q78 0 109 28.5t41 96.5h161z" />
    <glyph glyph-name="gbreve" unicode="&#x11f;" horiz-adv-x="936" 
d="M915 1112v-156l-133 -30q39 -70 39 -176q0 -177 -96 -277t-268 -100q-50 0 -74 8q-19 -17 -36 -38t-17 -52q0 -70 121 -70h161q142 0 218.5 -76.5t76.5 -230.5q0 -194 -130 -300t-374 -106q-185 0 -285 80.5t-100 229.5q0 93 57 163.5t158 102.5q-51 20 -83.5 62
t-32.5 98q0 34 10 61.5t28.5 52t75.5 72.5q-69 42 -109 129t-40 193q0 183 96 283t275 100q34 0 78 -7.5t67 -15.5h317zM260 -162q0 -66 41.5 -101.5t118.5 -35.5q121 0 181.5 46t60.5 126q0 63 -32.5 89t-121.5 26h-129q-54 0 -86.5 -40.5t-32.5 -109.5zM342 750
q0 -197 111 -197q108 0 108 199q0 204 -108 204q-111 0 -111 -206zM777 1567q-11 -157 -92.5 -241.5t-220.5 -84.5q-146 0 -223.5 85.5t-83.5 240.5h160q7 -71 36.5 -98t112.5 -27q78 0 109 28.5t41 96.5h161z" />
    <glyph glyph-name="Gdot" unicode="&#x120;" horiz-adv-x="1112" 
d="M571 811h447v-750q-190 -81 -404 -81q-255 0 -392.5 194t-137.5 559q0 352 157.5 551t440.5 199q175 0 334 -90l-86 -222q-124 72 -232 72q-155 0 -245.5 -138.5t-90.5 -377.5q0 -246 65.5 -377t190.5 -131q66 0 134 17v335h-181v240zM457 1743q0 143 154 143
q153 0 153 -143q0 -71 -40 -107t-113 -36q-75 0 -114.5 36t-39.5 107z" />
    <glyph glyph-name="gdot" unicode="&#x121;" horiz-adv-x="936" 
d="M915 1112v-156l-133 -30q39 -70 39 -176q0 -177 -96 -277t-268 -100q-50 0 -74 8q-19 -17 -36 -38t-17 -52q0 -70 121 -70h161q142 0 218.5 -76.5t76.5 -230.5q0 -194 -130 -300t-374 -106q-185 0 -285 80.5t-100 229.5q0 93 57 163.5t158 102.5q-51 20 -83.5 62
t-32.5 98q0 34 10 61.5t28.5 52t75.5 72.5q-69 42 -109 129t-40 193q0 183 96 283t275 100q34 0 78 -7.5t67 -15.5h317zM260 -162q0 -66 41.5 -101.5t118.5 -35.5q121 0 181.5 46t60.5 126q0 63 -32.5 89t-121.5 26h-129q-54 0 -86.5 -40.5t-32.5 -109.5zM342 750
q0 -197 111 -197q108 0 108 199q0 204 -108 204q-111 0 -111 -206zM307 1405q0 143 154 143q153 0 153 -143q0 -71 -40 -107t-113 -36q-75 0 -114.5 36t-39.5 107z" />
    <glyph glyph-name="Gcommaaccent" unicode="&#x122;" horiz-adv-x="1112" 
d="M571 811h447v-750q-190 -81 -404 -81q-255 0 -392.5 194t-137.5 559q0 352 157.5 551t440.5 199q175 0 334 -90l-86 -222q-124 72 -232 72q-155 0 -245.5 -138.5t-90.5 -377.5q0 -246 65.5 -377t190.5 -131q66 0 134 17v335h-181v240zM417 -426q20 66 39.5 154.5
t26.5 146.5h262v-20q-76 -176 -166 -308h-162v27z" />
    <glyph glyph-name="gcommaaccent" unicode="&#x123;" horiz-adv-x="936" 
d="M915 1112v-156l-133 -30q39 -70 39 -176q0 -177 -96 -277t-268 -100q-50 0 -74 8q-19 -17 -36 -38t-17 -52q0 -70 121 -70h161q142 0 218.5 -76.5t76.5 -230.5q0 -194 -130 -300t-374 -106q-185 0 -285 80.5t-100 229.5q0 93 57 163.5t158 102.5q-51 20 -83.5 62
t-32.5 98q0 34 10 61.5t28.5 52t75.5 72.5q-69 42 -109 129t-40 193q0 183 96 283t275 100q34 0 78 -7.5t67 -15.5h317zM260 -162q0 -66 41.5 -101.5t118.5 -35.5q121 0 181.5 46t60.5 126q0 63 -32.5 89t-121.5 26h-129q-54 0 -86.5 -40.5t-32.5 -109.5zM342 750
q0 -197 111 -197q108 0 108 199q0 204 -108 204q-111 0 -111 -206zM653 1542q-20 -66 -39.5 -154.5t-26.5 -146.5h-264v21q68 159 166 307h164v-27z" />
    <glyph glyph-name="Hcircumflex" unicode="&#x124;" horiz-adv-x="1161" 
d="M1032 0h-272v641h-359v-641h-272v1462h272v-581h359v581h272v-1462zM753 1579q-96 72 -189 178q-89 -100 -186 -178h-168v27q177 223 217 301h277q47 -87 217 -301v-27h-168z" />
    <glyph glyph-name="hcircumflex" unicode="&#x125;" horiz-adv-x="1038" 
d="M668 0v664q0 245 -123 245q-92 0 -129 -96.5t-37 -277.5v-535h-266v1556h266v-346q0 -67 -12 -239h14q80 164 246 164q153 0 231 -103.5t78 -304.5v-727h-268zM712 1634q-96 72 -189 178q-89 -100 -186 -178h-168v27q177 223 217 301h277q47 -87 217 -301v-27h-168z" />
    <glyph glyph-name="Hbar" unicode="&#x126;" horiz-adv-x="1161" 
d="M1032 1257h142v-188h-142v-1069h-272v641h-359v-641h-272v1069h-141v188h141v205h272v-205h359v205h272v-205zM760 881v188h-359v-188h359z" />
    <glyph glyph-name="hbar" unicode="&#x127;" horiz-adv-x="1038" 
d="M936 0h-268v627q0 231 -123 231q-87 0 -126.5 -84.5t-39.5 -267.5v-506h-266v1204h-125v187h125v165h266v-165h246v-187h-246l-6 -194l-6 -90h14q37 81 100.5 123t145.5 42q153 0 231 -99t78 -290v-696z" />
    <glyph glyph-name="Itilde.alt" 
d="M549 0h-486v162l115 57v1024l-115 57v162h486v-162l-115 -57v-1024l115 -57v-162zM191 1686q-31 0 -49.5 -23.5t-28.5 -85.5h-141q11 153 68.5 227t150.5 74q43 0 77.5 -16.5t64.5 -36.5t58 -36.5t58 -16.5q34 0 49.5 26t26.5 82h141q-11 -152 -69.5 -226.5t-149.5 -74.5
q-44 0 -78.5 16.5t-64 37t-56.5 37t-57 16.5z" />
    <glyph glyph-name="itilde" unicode="&#x129;" horiz-adv-x="496" 
d="M381 0h-266v1114h266v-1114zM128 1348q-31 0 -49.5 -23.5t-28.5 -85.5h-141q11 153 68.5 227t150.5 74q43 0 77.5 -16.5t64.5 -36.5t58 -36.5t58 -16.5q34 0 49.5 26t26.5 82h141q-11 -152 -69.5 -226.5t-149.5 -74.5q-44 0 -78.5 16.5t-64 37t-56.5 37t-57 16.5z" />
    <glyph glyph-name="Imacron.alt" 
d="M549 0h-486v162l115 57v1024l-115 57v162h486v-162l-115 -57v-1024l115 -57v-162zM10 1813h606v-199h-606v199z" />
    <glyph glyph-name="imacron" unicode="&#x12b;" horiz-adv-x="496" 
d="M381 0h-266v1114h266v-1114zM-56 1475h606v-199h-606v199z" />
    <glyph glyph-name="Ibreve.alt" 
d="M549 0h-486v162l115 57v1024l-115 57v162h486v-162l-115 -57v-1024l115 -57v-162zM621 1905q-11 -157 -92.5 -241.5t-220.5 -84.5q-146 0 -223.5 85.5t-83.5 240.5h160q7 -71 36.5 -98t112.5 -27q78 0 109 28.5t41 96.5h161z" />
    <glyph glyph-name="ibreve" unicode="&#x12d;" horiz-adv-x="496" 
d="M381 0h-266v1114h266v-1114zM554 1567q-11 -157 -92.5 -241.5t-220.5 -84.5q-146 0 -223.5 85.5t-83.5 240.5h160q7 -71 36.5 -98t112.5 -27q78 0 109 28.5t41 96.5h161z" />
    <glyph glyph-name="Iogonek.alt" 
d="M549 0h-486v162l115 57v1024l-115 57v162h486v-162l-115 -57v-1024l115 -57v-162zM340 -229q0 -44 20.5 -64t51.5 -20q40 0 80 14v-168q-69 -16 -121 -16q-104 0 -167.5 59t-63.5 160q0 141 159 264h168q-127 -131 -127 -229z" />
    <glyph glyph-name="iogonek" unicode="&#x12f;" horiz-adv-x="496" 
d="M381 0h-266v1114h266v-1114zM104 1405q0 66 38.5 104.5t107.5 38.5q65 0 104 -38.5t39 -104.5q0 -68 -40 -105.5t-103 -37.5q-66 0 -106 37.5t-40 105.5zM256 -229q0 -44 20.5 -64t51.5 -20q40 0 80 14v-168q-69 -16 -121 -16q-104 0 -167.5 59t-63.5 160q0 141 159 264
h168q-127 -131 -127 -229z" />
    <glyph glyph-name="Idotaccent.alt" 
d="M549 0h-486v162l115 57v1024l-115 57v162h486v-162l-115 -57v-1024l115 -57v-162zM147 1743q0 143 154 143q153 0 153 -143q0 -71 -40 -107t-113 -36q-75 0 -114.5 36t-39.5 107z" />
    <glyph glyph-name="dotlessi" unicode="&#x131;" horiz-adv-x="496" 
d="M381 0h-266v1114h266v-1114z" />
    <glyph glyph-name="IJ.alt" horiz-adv-x="1163" 
d="M549 0h-486v162l115 57v1024l-115 57v162h486v-162l-115 -57v-1024l115 -57v-162zM647 -422q-106 0 -168 25v237q65 -20 123 -20q83 0 121.5 53t38.5 158v1431h272v-1417q0 -144 -48.5 -250t-137 -161.5t-201.5 -55.5z" />
    <glyph glyph-name="ij" unicode="&#x133;" horiz-adv-x="1014" 
d="M381 0h-266v1114h266v-1114zM104 1405q0 66 38.5 104.5t107.5 38.5q65 0 104 -38.5t39 -104.5q0 -68 -40 -105.5t-103 -37.5q-66 0 -106 37.5t-40 105.5zM592 -492q-84 0 -139 25v221q46 -18 86 -18q94 0 94 170v1208h266v-1243q0 -174 -80.5 -268.5t-226.5 -94.5z
M623 1405q0 66 38.5 104.5t106.5 38.5q67 0 105 -39t38 -104q0 -67 -39 -105t-104 -38t-105 37t-40 106z" />
    <glyph glyph-name="Jcircumflex" unicode="&#x134;" horiz-adv-x="530" 
d="M14 -422q-106 0 -168 25v237q65 -20 123 -20q83 0 121.5 53t38.5 158v1431h272v-1417q0 -144 -48.5 -250t-137 -161.5t-201.5 -55.5zM454 1579q-96 72 -189 178q-89 -100 -186 -178h-168v27q177 223 217 301h277q47 -87 217 -301v-27h-168z" />
    <glyph glyph-name="jcircumflex" unicode="&#x135;" horiz-adv-x="500" 
d="M80 -492q-84 0 -139 25v221q46 -18 86 -18q94 0 94 170v1208h266v-1243q0 -174 -80.5 -268.5t-226.5 -94.5zM444 1241q-96 72 -189 178q-89 -100 -186 -178h-168v27q177 223 217 301h277q47 -87 217 -301v-27h-168z" />
    <glyph glyph-name="Kcommaaccent" unicode="&#x136;" horiz-adv-x="1040" 
d="M1040 0h-290l-240 625l-109 -109v-516h-272v1462h272v-725l95 219l249 506h291l-338 -633zM374 -426q20 66 39.5 154.5t26.5 146.5h262v-20q-76 -176 -166 -308h-162v27z" />
    <glyph glyph-name="kcommaaccent" unicode="&#x137;" horiz-adv-x="965" 
d="M375 600l67 133l220 381h282l-282 -457l301 -657h-279l-201 471l-104 -94v-377h-266v1556h266v-733l-12 -223h8zM329 -426q20 66 39.5 154.5t26.5 146.5h262v-20q-76 -176 -166 -308h-162v27z" />
    <glyph glyph-name="kgreenlandic" unicode="&#x138;" horiz-adv-x="965" 
d="M662 1114h282l-282 -455l301 -659h-279l-201 471l-104 -94v-377h-266v1114h266v-287l-12 -237l86 168z" />
    <glyph glyph-name="Lacute" unicode="&#x139;" horiz-adv-x="823" 
d="M129 0v1462h272v-1224h377v-238h-649zM160 1579v27q41 53 95 151t77 150h318v-21q-24 -43 -119 -138.5t-184 -168.5h-187z" />
    <glyph glyph-name="lacute" unicode="&#x13a;" horiz-adv-x="489" 
d="M379 0h-266v1556h266v-1556zM117 1636v27q41 53 95 151t77 150h318v-21q-24 -43 -119 -138.5t-184 -168.5h-187z" />
    <glyph glyph-name="Lcommaaccent" unicode="&#x13b;" horiz-adv-x="823" 
d="M129 0v1462h272v-1224h377v-238h-649zM257 -426q20 66 39.5 154.5t26.5 146.5h262v-20q-76 -176 -166 -308h-162v27z" />
    <glyph glyph-name="lcommaaccent" unicode="&#x13c;" horiz-adv-x="489" 
d="M385 0h-266v1556h266v-1556zM56 -426q20 66 39.5 154.5t26.5 146.5h262v-20q-76 -176 -166 -308h-162v27z" />
    <glyph glyph-name="Lcaron" unicode="&#x13d;" horiz-adv-x="823" 
d="M129 0v1462h272v-1224h377v-238h-649zM508 1162q45 169 61 301h262v-20q-75 -171 -162 -307h-161v26z" />
    <glyph glyph-name="lcaron" unicode="&#x13e;" horiz-adv-x="555" 
d="M379 0h-266v1556h266v-1556zM469 1255q45 169 61 301h262v-20q-75 -171 -162 -307h-161v26z" />
    <glyph glyph-name="Ldot" unicode="&#x13f;" horiz-adv-x="823" 
d="M129 0v1462h272v-1224h377v-238h-649zM516 747q0 143 154 143q153 0 153 -143q0 -71 -40 -107t-113 -36q-75 0 -114.5 36t-39.5 107z" />
    <glyph glyph-name="ldot" unicode="&#x140;" horiz-adv-x="793" 
d="M379 0h-266v1556h266v-1556zM487 693q0 143 154 143q153 0 153 -143q0 -71 -40 -107t-113 -36q-75 0 -114.5 36t-39.5 107z" />
    <glyph glyph-name="Lslash" unicode="&#x141;" horiz-adv-x="864" 
d="M170 0v481l-70 -51l-118 174l188 135v723h272v-526l125 90l121 -172l-246 -176v-440h377v-238h-649z" />
    <glyph glyph-name="lslash" unicode="&#x142;" horiz-adv-x="553" 
d="M408 936l65 47l123 -172l-188 -137v-674h-265v483l-65 -47l-121 172l186 135v813h265v-620z" />
    <glyph glyph-name="Nacute" unicode="&#x143;" horiz-adv-x="1282" 
d="M1153 0h-332l-452 1059h-13q25 -121 25 -260v-799h-252v1462h334l448 -1048h11q-19 105 -19 250v798h250v-1462zM495 1579v27q41 53 95 151t77 150h318v-21q-24 -43 -119 -138.5t-184 -168.5h-187z" />
    <glyph glyph-name="nacute" unicode="&#x144;" horiz-adv-x="1038" 
d="M668 0v664q0 121 -29 183t-94 62q-86 0 -126 -85.5t-40 -288.5v-535h-266v1114h211l32 -143h17q36 77 103 120.5t157 43.5q152 0 227.5 -104t75.5 -304v-727h-268zM385 1241v27q41 53 95 151t77 150h318v-21q-24 -43 -119 -138.5t-184 -168.5h-187z" />
    <glyph glyph-name="Ncommaaccent" unicode="&#x145;" horiz-adv-x="1282" 
d="M1153 0h-332l-452 1059h-13q25 -121 25 -260v-799h-252v1462h334l448 -1048h11q-19 105 -19 250v798h250v-1462zM450 -426q20 66 39.5 154.5t26.5 146.5h262v-20q-76 -176 -166 -308h-162v27z" />
    <glyph glyph-name="ncommaaccent" unicode="&#x146;" horiz-adv-x="1038" 
d="M668 0v664q0 121 -29 183t-94 62q-86 0 -126 -85.5t-40 -288.5v-535h-266v1114h211l32 -143h17q36 77 103 120.5t157 43.5q152 0 227.5 -104t75.5 -304v-727h-268zM331 -426q20 66 39.5 154.5t26.5 146.5h262v-20q-76 -176 -166 -308h-162v27z" />
    <glyph glyph-name="Ncaron" unicode="&#x147;" horiz-adv-x="1282" 
d="M1153 0h-332l-452 1059h-13q25 -121 25 -260v-799h-252v1462h334l448 -1048h11q-19 105 -19 250v798h250v-1462zM996 1907v-27q-165 -208 -217 -301h-277q-44 82 -217 301v27h168q95 -69 190 -178q93 103 185 178h168z" />
    <glyph glyph-name="ncaron" unicode="&#x148;" horiz-adv-x="1038" 
d="M668 0v664q0 121 -29 183t-94 62q-86 0 -126 -85.5t-40 -288.5v-535h-266v1114h211l32 -143h17q36 77 103 120.5t157 43.5q152 0 227.5 -104t75.5 -304v-727h-268zM878 1569v-27q-165 -208 -217 -301h-277q-44 82 -217 301v27h168q95 -69 190 -178q93 103 185 178h168z
" />
    <glyph glyph-name="napostrophe" unicode="&#x149;" horiz-adv-x="1255" 
d="M885 0v664q0 121 -29 183t-94 62q-86 0 -126 -85.5t-40 -288.5v-535h-266v1114h211l32 -143h17q36 77 103 120.5t157 43.5q152 0 227.5 -104t75.5 -304v-727h-268zM329 1462l14 -22q-50 -197 -176 -479h-203q64 256 101 501h264z" />
    <glyph glyph-name="Eng" unicode="&#x14a;" horiz-adv-x="1282" 
d="M768 -422q-107 0 -170 25v237q70 -20 131 -20q158 0 172 180l-528 1067h-15q23 -295 23 -418v-649h-252v1462h322l458 -921h13q-19 241 -19 401v520h250v-1417q0 -219 -102 -343t-283 -124z" />
    <glyph glyph-name="eng" unicode="&#x14b;" horiz-adv-x="1038" 
d="M629 -492q-85 0 -142 25v221q46 -18 88 -18q93 0 93 170v758q0 121 -29 183t-94 62q-86 0 -126 -85.5t-40 -288.5v-535h-266v1114h211l32 -143h17q36 77 103 120.5t157 43.5q152 0 227.5 -104t75.5 -304v-856q0 -174 -80.5 -268.5t-226.5 -94.5z" />
    <glyph glyph-name="Omacron" unicode="&#x14c;" horiz-adv-x="1219" 
d="M1135 733q0 -363 -136 -558t-389 -195q-254 0 -390 194.5t-136 560.5q0 363 136 556.5t392 193.5q253 0 388 -194.5t135 -557.5zM362 733q0 -250 63 -381t185 -131q246 0 246 512t-244 512q-124 0 -187 -130.5t-63 -381.5zM308 1813h606v-199h-606v199z" />
    <glyph glyph-name="omacron" unicode="&#x14d;" horiz-adv-x="1012" 
d="M938 559q0 -274 -116 -426.5t-318 -152.5q-128 0 -226 70t-151 201.5t-53 307.5q0 271 115 423.5t319 152.5q197 0 313.5 -155.5t116.5 -420.5zM346 559q0 -174 38 -263t122 -89q160 0 160 352q0 175 -38.5 261.5t-121.5 86.5q-84 0 -122 -86.5t-38 -261.5zM204 1475h606
v-199h-606v199z" />
    <glyph glyph-name="Obreve" unicode="&#x14e;" horiz-adv-x="1219" 
d="M1135 733q0 -363 -136 -558t-389 -195q-254 0 -390 194.5t-136 560.5q0 363 136 556.5t392 193.5q253 0 388 -194.5t135 -557.5zM362 733q0 -250 63 -381t185 -131q246 0 246 512t-244 512q-124 0 -187 -130.5t-63 -381.5zM917 1905q-11 -157 -92.5 -241.5t-220.5 -84.5
q-146 0 -223.5 85.5t-83.5 240.5h160q7 -71 36.5 -98t112.5 -27q78 0 109 28.5t41 96.5h161z" />
    <glyph glyph-name="obreve" unicode="&#x14f;" horiz-adv-x="1012" 
d="M938 559q0 -274 -116 -426.5t-318 -152.5q-128 0 -226 70t-151 201.5t-53 307.5q0 271 115 423.5t319 152.5q197 0 313.5 -155.5t116.5 -420.5zM346 559q0 -174 38 -263t122 -89q160 0 160 352q0 175 -38.5 261.5t-121.5 86.5q-84 0 -122 -86.5t-38 -261.5zM816 1567
q-11 -157 -92.5 -241.5t-220.5 -84.5q-146 0 -223.5 85.5t-83.5 240.5h160q7 -71 36.5 -98t112.5 -27q78 0 109 28.5t41 96.5h161z" />
    <glyph glyph-name="Ohungarumlaut" unicode="&#x150;" horiz-adv-x="1219" 
d="M1135 733q0 -363 -136 -558t-389 -195q-254 0 -390 194.5t-136 560.5q0 363 136 556.5t392 193.5q253 0 388 -194.5t135 -557.5zM362 733q0 -250 63 -381t185 -131q246 0 246 512t-244 512q-124 0 -187 -130.5t-63 -381.5zM299 1579v27q45 62 97 154t77 147h280v-21
q-32 -52 -133.5 -152t-169.5 -155h-151zM690 1579v27q45 62 97 154t77 147h280v-21q-25 -43 -121.5 -139t-183.5 -168h-149z" />
    <glyph glyph-name="ohungarumlaut" unicode="&#x151;" horiz-adv-x="1012" 
d="M938 559q0 -274 -116 -426.5t-318 -152.5q-128 0 -226 70t-151 201.5t-53 307.5q0 271 115 423.5t319 152.5q197 0 313.5 -155.5t116.5 -420.5zM346 559q0 -174 38 -263t122 -89q160 0 160 352q0 175 -38.5 261.5t-121.5 86.5q-84 0 -122 -86.5t-38 -261.5zM193 1241v27
q45 62 97 154t77 147h280v-21q-32 -52 -133.5 -152t-169.5 -155h-151zM584 1241v27q45 62 97 154t77 147h280v-21q-25 -43 -121.5 -139t-183.5 -168h-149z" />
    <glyph glyph-name="OE" unicode="&#x152;" horiz-adv-x="1446" 
d="M1360 0h-600q-76 -20 -150 -20q-254 0 -390 194.5t-136 560.5q0 363 136 556.5t392 193.5q81 0 158 -23h590v-235h-383v-348h354v-236h-354v-405h383v-238zM612 1245q-124 0 -187 -130.5t-63 -381.5q0 -250 63 -381t185 -131q54 0 95 15v995q-47 14 -93 14z" />
    <glyph glyph-name="oe" unicode="&#x153;" horiz-adv-x="1532" 
d="M1116 -20q-197 0 -313 141q-116 -141 -299 -141q-128 0 -226 70t-151 201.5t-53 307.5q0 271 115 423.5t319 152.5q174 0 289 -140q107 140 282 140q182 0 285.5 -133.5t103.5 -370.5v-142h-532q3 -149 61 -221.5t158 -72.5q132 0 268 81v-219q-130 -77 -307 -77z
M346 559q0 -174 38 -263t122 -89q160 0 160 352q0 175 -38.5 261.5t-121.5 86.5q-84 0 -122 -86.5t-38 -261.5zM1077 930q-57 0 -94 -60.5t-43 -187.5h270q-2 122 -37 185t-96 63z" />
    <glyph glyph-name="Racute" unicode="&#x154;" horiz-adv-x="1024" 
d="M401 569v-569h-272v1462h356q226 0 333.5 -107t107.5 -327q0 -277 -187 -387l281 -641h-291l-231 569h-97zM401 803h70q96 0 138 54.5t42 162.5q0 112 -44.5 159.5t-137.5 47.5h-68v-424zM362 1579v27q41 53 95 151t77 150h318v-21q-24 -43 -119 -138.5t-184 -168.5h-187
z" />
    <glyph glyph-name="racute" unicode="&#x155;" horiz-adv-x="690" 
d="M588 1135q49 0 96 -15l-31 -258q-28 10 -73 10q-97 0 -149 -76.5t-52 -222.5v-573h-266v1114h219l30 -174h9q44 105 96 150t121 45zM242 1241v27q41 53 95 151t77 150h318v-21q-24 -43 -119 -138.5t-184 -168.5h-187z" />
    <glyph glyph-name="Rcommaaccent" unicode="&#x156;" horiz-adv-x="1024" 
d="M401 569v-569h-272v1462h356q226 0 333.5 -107t107.5 -327q0 -277 -187 -387l281 -641h-291l-231 569h-97zM401 803h70q96 0 138 54.5t42 162.5q0 112 -44.5 159.5t-137.5 47.5h-68v-424zM366 -426q20 66 39.5 154.5t26.5 146.5h262v-20q-76 -176 -166 -308h-162v27z" />
    <glyph glyph-name="rcommaaccent" unicode="&#x157;" horiz-adv-x="690" 
d="M588 1135q49 0 96 -15l-31 -258q-28 10 -73 10q-97 0 -149 -76.5t-52 -222.5v-573h-266v1114h219l30 -174h9q44 105 96 150t121 45zM58 -426q20 66 39.5 154.5t26.5 146.5h262v-20q-76 -176 -166 -308h-162v27z" />
    <glyph glyph-name="Rcaron" unicode="&#x158;" horiz-adv-x="1024" 
d="M401 569v-569h-272v1462h356q226 0 333.5 -107t107.5 -327q0 -277 -187 -387l281 -641h-291l-231 569h-97zM401 803h70q96 0 138 54.5t42 162.5q0 112 -44.5 159.5t-137.5 47.5h-68v-424zM882 1907v-27q-165 -208 -217 -301h-277q-44 82 -217 301v27h168q95 -69 190 -178
q93 103 185 178h168z" />
    <glyph glyph-name="rcaron" unicode="&#x159;" horiz-adv-x="690" 
d="M588 1135q49 0 96 -15l-31 -258q-28 10 -73 10q-97 0 -149 -76.5t-52 -222.5v-573h-266v1114h219l30 -174h9q44 105 96 150t121 45zM741 1569v-27q-165 -208 -217 -301h-277q-44 82 -217 301v27h168q95 -69 190 -178q93 103 185 178h168z" />
    <glyph glyph-name="Sacute" unicode="&#x15a;" horiz-adv-x="846" 
d="M795 403q0 -205 -103.5 -314t-298.5 -109q-191 0 -325 75v269q164 -107 301 -107q78 0 117.5 43t39.5 117q0 73 -47 133.5t-155 134.5q-94 65 -142.5 124.5t-75 133.5t-26.5 172q0 188 104.5 298t280.5 110q168 0 323 -94l-90 -218q-48 28 -100.5 50t-112.5 22
q-66 0 -101.5 -43.5t-35.5 -118.5q0 -74 42.5 -129t148.5 -125q143 -96 199.5 -196t56.5 -228zM310 1579v27q41 53 95 151t77 150h318v-21q-24 -43 -119 -138.5t-184 -168.5h-187z" />
    <glyph glyph-name="sacute" unicode="&#x15b;" horiz-adv-x="766" 
d="M711 326q0 -163 -95.5 -254.5t-281.5 -91.5q-165 0 -273 65v231q55 -38 128.5 -63t129.5 -25q62 0 94.5 30.5t32.5 80.5q0 51 -34 89t-125 93q-121 72 -173.5 153.5t-52.5 192.5q0 142 97.5 225t267.5 83q148 0 279 -78l-87 -191q-107 58 -188 58q-51 0 -76.5 -27
t-25.5 -66q0 -45 31.5 -80t117.5 -87q104 -63 146 -107t65 -100t23 -131zM259 1241v27q41 53 95 151t77 150h318v-21q-24 -43 -119 -138.5t-184 -168.5h-187z" />
    <glyph glyph-name="Scircumflex" unicode="&#x15c;" horiz-adv-x="846" 
d="M795 403q0 -205 -103.5 -314t-298.5 -109q-191 0 -325 75v269q164 -107 301 -107q78 0 117.5 43t39.5 117q0 73 -47 133.5t-155 134.5q-94 65 -142.5 124.5t-75 133.5t-26.5 172q0 188 104.5 298t280.5 110q168 0 323 -94l-90 -218q-48 28 -100.5 50t-112.5 22
q-66 0 -101.5 -43.5t-35.5 -118.5q0 -74 42.5 -129t148.5 -125q143 -96 199.5 -196t56.5 -228zM624 1579q-96 72 -189 178q-89 -100 -186 -178h-168v27q177 223 217 301h277q47 -87 217 -301v-27h-168z" />
    <glyph glyph-name="scircumflex" unicode="&#x15d;" horiz-adv-x="766" 
d="M711 326q0 -163 -95.5 -254.5t-281.5 -91.5q-165 0 -273 65v231q55 -38 128.5 -63t129.5 -25q62 0 94.5 30.5t32.5 80.5q0 51 -34 89t-125 93q-121 72 -173.5 153.5t-52.5 192.5q0 142 97.5 225t267.5 83q148 0 279 -78l-87 -191q-107 58 -188 58q-51 0 -76.5 -27
t-25.5 -66q0 -45 31.5 -80t117.5 -87q104 -63 146 -107t65 -100t23 -131zM579 1241q-96 72 -189 178q-89 -100 -186 -178h-168v27q177 223 217 301h277q47 -87 217 -301v-27h-168z" />
    <glyph glyph-name="Scedilla" unicode="&#x15e;" horiz-adv-x="846" 
d="M795 403q0 -205 -103.5 -314t-298.5 -109q-191 0 -325 75v269q164 -107 301 -107q78 0 117.5 43t39.5 117q0 73 -47 133.5t-155 134.5q-94 65 -142.5 124.5t-75 133.5t-26.5 172q0 188 104.5 298t280.5 110q168 0 323 -94l-90 -218q-48 28 -100.5 50t-112.5 22
q-66 0 -101.5 -43.5t-35.5 -118.5q0 -74 42.5 -129t148.5 -125q143 -96 199.5 -196t56.5 -228zM612 -260q0 -107 -71 -169.5t-220 -62.5q-73 0 -131 21v154q61 -17 121 -17q88 0 88 66q0 84 -157 110l79 158h173l-37 -76q68 -17 111.5 -63t43.5 -121z" />
    <glyph glyph-name="scedilla" unicode="&#x15f;" horiz-adv-x="766" 
d="M711 326q0 -163 -95.5 -254.5t-281.5 -91.5q-165 0 -273 65v231q55 -38 128.5 -63t129.5 -25q62 0 94.5 30.5t32.5 80.5q0 51 -34 89t-125 93q-121 72 -173.5 153.5t-52.5 192.5q0 142 97.5 225t267.5 83q148 0 279 -78l-87 -191q-107 58 -188 58q-51 0 -76.5 -27
t-25.5 -66q0 -45 31.5 -80t117.5 -87q104 -63 146 -107t65 -100t23 -131zM565 -260q0 -107 -71 -169.5t-220 -62.5q-73 0 -131 21v154q61 -17 121 -17q88 0 88 66q0 84 -157 110l79 158h173l-37 -76q68 -17 111.5 -63t43.5 -121z" />
    <glyph glyph-name="Scaron" unicode="&#x160;" horiz-adv-x="846" 
d="M795 403q0 -205 -103.5 -314t-298.5 -109q-191 0 -325 75v269q164 -107 301 -107q78 0 117.5 43t39.5 117q0 73 -47 133.5t-155 134.5q-94 65 -142.5 124.5t-75 133.5t-26.5 172q0 188 104.5 298t280.5 110q168 0 323 -94l-90 -218q-48 28 -100.5 50t-112.5 22
q-66 0 -101.5 -43.5t-35.5 -118.5q0 -74 42.5 -129t148.5 -125q143 -96 199.5 -196t56.5 -228zM792 1907v-27q-165 -208 -217 -301h-277q-44 82 -217 301v27h168q95 -69 190 -178q93 103 185 178h168z" />
    <glyph glyph-name="scaron" unicode="&#x161;" horiz-adv-x="766" 
d="M711 326q0 -163 -95.5 -254.5t-281.5 -91.5q-165 0 -273 65v231q55 -38 128.5 -63t129.5 -25q62 0 94.5 30.5t32.5 80.5q0 51 -34 89t-125 93q-121 72 -173.5 153.5t-52.5 192.5q0 142 97.5 225t267.5 83q148 0 279 -78l-87 -191q-107 58 -188 58q-51 0 -76.5 -27
t-25.5 -66q0 -45 31.5 -80t117.5 -87q104 -63 146 -107t65 -100t23 -131zM739 1569v-27q-165 -208 -217 -301h-277q-44 82 -217 301v27h168q95 -69 190 -178q93 103 185 178h168z" />
    <glyph glyph-name="Tcommaaccent" unicode="&#x21a;" horiz-adv-x="885" 
d="M578 0h-271v1223h-280v239h831v-239h-280v-1223zM248 -426q20 66 39.5 154.5t26.5 146.5h262v-20q-76 -176 -166 -308h-162v27z" />
    <glyph glyph-name="tcommaaccent" unicode="&#x21b;" horiz-adv-x="664" 
d="M500 205q56 0 121 28v-208q-65 -45 -195 -45q-145 0 -215 86.5t-70 259.5v577h-108v119l139 96l68 236h170v-240h202v-211h-202v-586q0 -112 90 -112zM166 -426q20 66 39.5 154.5t26.5 146.5h262v-20q-76 -176 -166 -308h-162v27z" />
    <glyph glyph-name="Tcaron" unicode="&#x164;" horiz-adv-x="885" 
d="M578 0h-271v1223h-280v239h831v-239h-280v-1223zM798 1907v-27q-165 -208 -217 -301h-277q-44 82 -217 301v27h168q95 -69 190 -178q93 103 185 178h168z" />
    <glyph glyph-name="tcaron" unicode="&#x165;" horiz-adv-x="780" 
d="M500 205q56 0 121 28v-208q-65 -45 -195 -45q-145 0 -215 86.5t-70 259.5v577h-108v119l139 96l68 236h170v-240h202v-211h-202v-586q0 -112 90 -112zM533 1271q45 169 61 301h262v-20q-75 -171 -162 -307h-161v26z" />
    <glyph glyph-name="Tbar" unicode="&#x166;" horiz-adv-x="885" 
d="M578 0h-271v610h-188v234h188v379h-280v239h831v-239h-280v-379h186v-234h-186v-610z" />
    <glyph glyph-name="tbar" unicode="&#x167;" horiz-adv-x="664" 
d="M500 205q56 0 121 28v-208q-65 -45 -195 -45q-145 0 -215 86.5t-70 259.5v186h-108v188h108v203h-108v119l139 96l68 236h170v-240h202v-211h-202v-203h182v-188h-182v-195q0 -112 90 -112z" />
    <glyph glyph-name="Utilde" unicode="&#x168;" horiz-adv-x="1151" 
d="M1028 1462v-946q0 -261 -118 -398.5t-341 -137.5q-218 0 -332 136.5t-114 403.5v942h270v-962q0 -279 185 -279q86 0 133 71t47 202v968h270zM456 1686q-31 0 -49.5 -23.5t-28.5 -85.5h-141q11 153 68.5 227t150.5 74q43 0 77.5 -16.5t64.5 -36.5t58 -36.5t58 -16.5
q34 0 49.5 26t26.5 82h141q-11 -152 -69.5 -226.5t-149.5 -74.5q-44 0 -78.5 16.5t-64 37t-56.5 37t-57 16.5z" />
    <glyph glyph-name="utilde" unicode="&#x169;" horiz-adv-x="1038" 
d="M715 0l-33 143h-14q-37 -76 -105.5 -119.5t-156.5 -43.5q-150 0 -227 102t-77 305v727h269v-663q0 -122 29 -184t94 -62q86 0 125.5 86t39.5 289v534h269v-1114h-213zM398 1348q-31 0 -49.5 -23.5t-28.5 -85.5h-141q11 153 68.5 227t150.5 74q43 0 77.5 -16.5t64.5 -36.5
t58 -36.5t58 -16.5q34 0 49.5 26t26.5 82h141q-11 -152 -69.5 -226.5t-149.5 -74.5q-44 0 -78.5 16.5t-64 37t-56.5 37t-57 16.5z" />
    <glyph glyph-name="Umacron" unicode="&#x16a;" horiz-adv-x="1151" 
d="M1028 1462v-946q0 -261 -118 -398.5t-341 -137.5q-218 0 -332 136.5t-114 403.5v942h270v-962q0 -279 185 -279q86 0 133 71t47 202v968h270zM273 1813h606v-199h-606v199z" />
    <glyph glyph-name="umacron" unicode="&#x16b;" horiz-adv-x="1038" 
d="M715 0l-33 143h-14q-37 -76 -105.5 -119.5t-156.5 -43.5q-150 0 -227 102t-77 305v727h269v-663q0 -122 29 -184t94 -62q86 0 125.5 86t39.5 289v534h269v-1114h-213zM214 1475h606v-199h-606v199z" />
    <glyph glyph-name="Ubreve" unicode="&#x16c;" horiz-adv-x="1151" 
d="M1028 1462v-946q0 -261 -118 -398.5t-341 -137.5q-218 0 -332 136.5t-114 403.5v942h270v-962q0 -279 185 -279q86 0 133 71t47 202v968h270zM884 1905q-11 -157 -92.5 -241.5t-220.5 -84.5q-146 0 -223.5 85.5t-83.5 240.5h160q7 -71 36.5 -98t112.5 -27q78 0 109 28.5
t41 96.5h161z" />
    <glyph glyph-name="ubreve" unicode="&#x16d;" horiz-adv-x="1038" 
d="M715 0l-33 143h-14q-37 -76 -105.5 -119.5t-156.5 -43.5q-150 0 -227 102t-77 305v727h269v-663q0 -122 29 -184t94 -62q86 0 125.5 86t39.5 289v534h269v-1114h-213zM826 1567q-11 -157 -92.5 -241.5t-220.5 -84.5q-146 0 -223.5 85.5t-83.5 240.5h160q7 -71 36.5 -98
t112.5 -27q78 0 109 28.5t41 96.5h161z" />
    <glyph glyph-name="Uring" unicode="&#x16e;" horiz-adv-x="1151" 
d="M1028 1462v-946q0 -261 -118 -398.5t-341 -137.5q-218 0 -332 136.5t-114 403.5v942h270v-962q0 -279 185 -279q86 0 133 71t47 202v968h270zM821 1813q0 -107 -69.5 -171.5t-180.5 -64.5q-110 0 -177 62.5t-67 171.5q0 108 67 170.5t177 62.5q109 0 179.5 -64t70.5 -167
zM671 1811q0 46 -28.5 73t-71.5 27t-71.5 -27t-28.5 -73q0 -47 25 -74t75 -27q43 0 71.5 27t28.5 74z" />
    <glyph glyph-name="uring" unicode="&#x16f;" horiz-adv-x="1038" 
d="M715 0l-33 143h-14q-37 -76 -105.5 -119.5t-156.5 -43.5q-150 0 -227 102t-77 305v727h269v-663q0 -122 29 -184t94 -62q86 0 125.5 86t39.5 289v534h269v-1114h-213zM763 1475q0 -107 -69.5 -171.5t-180.5 -64.5q-110 0 -177 62.5t-67 171.5q0 108 67 170.5t177 62.5
q109 0 179.5 -64t70.5 -167zM613 1473q0 46 -28.5 73t-71.5 27t-71.5 -27t-28.5 -73q0 -47 25 -74t75 -27q43 0 71.5 27t28.5 74z" />
    <glyph glyph-name="Uhungarumlaut" unicode="&#x170;" horiz-adv-x="1151" 
d="M1028 1462v-946q0 -261 -118 -398.5t-341 -137.5q-218 0 -332 136.5t-114 403.5v942h270v-962q0 -279 185 -279q86 0 133 71t47 202v968h270zM256 1579v27q45 62 97 154t77 147h280v-21q-32 -52 -133.5 -152t-169.5 -155h-151zM647 1579v27q45 62 97 154t77 147h280v-21
q-25 -43 -121.5 -139t-183.5 -168h-149z" />
    <glyph glyph-name="uhungarumlaut" unicode="&#x171;" horiz-adv-x="1038" 
d="M715 0l-33 143h-14q-37 -76 -105.5 -119.5t-156.5 -43.5q-150 0 -227 102t-77 305v727h269v-663q0 -122 29 -184t94 -62q86 0 125.5 86t39.5 289v534h269v-1114h-213zM185 1241v27q45 62 97 154t77 147h280v-21q-32 -52 -133.5 -152t-169.5 -155h-151zM576 1241v27
q45 62 97 154t77 147h280v-21q-25 -43 -121.5 -139t-183.5 -168h-149z" />
    <glyph glyph-name="Uogonek" unicode="&#x172;" horiz-adv-x="1151" 
d="M1028 1462v-946q0 -261 -118 -398.5t-341 -137.5q-218 0 -332 136.5t-114 403.5v942h270v-962q0 -279 185 -279q86 0 133 71t47 202v968h270zM596 -229q0 -44 20.5 -64t51.5 -20q40 0 80 14v-168q-69 -16 -121 -16q-104 0 -167.5 59t-63.5 160q0 141 159 264h168
q-127 -131 -127 -229z" />
    <glyph glyph-name="uogonek" unicode="&#x173;" horiz-adv-x="1038" 
d="M715 0l-33 143h-14q-37 -76 -105.5 -119.5t-156.5 -43.5q-150 0 -227 102t-77 305v727h269v-663q0 -122 29 -184t94 -62q86 0 125.5 86t39.5 289v534h269v-1114h-213zM796 -229q0 -44 20.5 -64t51.5 -20q40 0 80 14v-168q-69 -16 -121 -16q-104 0 -167.5 59t-63.5 160
q0 141 159 264h168q-127 -131 -127 -229z" />
    <glyph glyph-name="Wcircumflex" unicode="&#x174;" horiz-adv-x="1622" 
d="M1341 0h-340l-143 766q-33 157 -47 371l-8 -74l-41 -301l-139 -762h-340l-265 1462h267l131 -825q19 -124 51 -389q25 268 47 383l156 831h282l156 -831q31 -185 49 -385q35 296 51 391l127 825h269zM1000 1579q-96 72 -189 178q-89 -100 -186 -178h-168v27
q177 223 217 301h277q47 -87 217 -301v-27h-168z" />
    <glyph glyph-name="wcircumflex" unicode="&#x175;" horiz-adv-x="1479" 
d="M889 0l-111 647l-39 273h-4q-15 -133 -24 -192.5t-127 -727.5h-342l-222 1114h267l102 -614q18 -102 33 -299h6q2 53 14 161.5t17 139.5l110 612h342l109 -614q19 -98 33 -299h4q14 179 35 299l106 614h260l-223 -1114h-346zM928 1241q-96 72 -189 178
q-89 -100 -186 -178h-168v27q177 223 217 301h277q47 -87 217 -301v-27h-168z" />
    <glyph glyph-name="Ycircumflex" unicode="&#x176;" horiz-adv-x="961" 
d="M481 885l195 577h285l-347 -876v-586h-268v575l-346 887h287zM669 1579q-96 72 -189 178q-89 -100 -186 -178h-168v27q177 223 217 301h277q47 -87 217 -301v-27h-168z" />
    <glyph glyph-name="ycircumflex" unicode="&#x177;" horiz-adv-x="913" 
d="M0 1114h276l154 -629q23 -84 37 -235h6q1 24 9 85.5t13 96.5t138 682h280l-319 -1194q-58 -220 -154 -316t-256 -96q-79 0 -141 17v223q41 -12 92 -12q134 0 176 176l19 70zM644 1241q-96 72 -189 178q-89 -100 -186 -178h-168v27q177 223 217 301h277q47 -87 217 -301
v-27h-168z" />
    <glyph glyph-name="Ydieresis" unicode="&#x178;" horiz-adv-x="961" 
d="M481 885l195 577h285l-347 -876v-586h-268v575l-346 887h287zM150 1741q0 61 35 95t97 34t97.5 -35.5t35.5 -93.5q0 -57 -35.5 -92t-97.5 -35t-97 33.5t-35 93.5zM548 1741q0 60 35 94.5t98 34.5q61 0 97 -34t36 -95q0 -59 -35.5 -93t-97.5 -34t-97.5 34.5t-35.5 92.5z
" />
    <glyph glyph-name="Zacute" unicode="&#x179;" horiz-adv-x="877" 
d="M834 0h-791v190l467 1035h-453v237h762v-190l-467 -1034h482v-238zM296 1579v27q41 53 95 151t77 150h318v-21q-24 -43 -119 -138.5t-184 -168.5h-187z" />
    <glyph glyph-name="zacute" unicode="&#x17a;" horiz-adv-x="731" 
d="M690 0h-649v170l342 729h-320v215h613v-188l-332 -711h346v-215zM224 1241v27q41 53 95 151t77 150h318v-21q-24 -43 -119 -138.5t-184 -168.5h-187z" />
    <glyph glyph-name="Zdotaccent" unicode="&#x17b;" horiz-adv-x="877" 
d="M834 0h-791v190l467 1035h-453v237h762v-190l-467 -1034h482v-238zM283 1743q0 143 154 143q153 0 153 -143q0 -71 -40 -107t-113 -36q-75 0 -114.5 36t-39.5 107z" />
    <glyph glyph-name="zdotaccent" unicode="&#x17c;" horiz-adv-x="731" 
d="M690 0h-649v170l342 729h-320v215h613v-188l-332 -711h346v-215zM215 1405q0 143 154 143q153 0 153 -143q0 -71 -40 -107t-113 -36q-75 0 -114.5 36t-39.5 107z" />
    <glyph glyph-name="Zcaron" unicode="&#x17d;" horiz-adv-x="877" 
d="M834 0h-791v190l467 1035h-453v237h762v-190l-467 -1034h482v-238zM792 1907v-27q-165 -208 -217 -301h-277q-44 82 -217 301v27h168q95 -69 190 -178q93 103 185 178h168z" />
    <glyph glyph-name="zcaron" unicode="&#x17e;" horiz-adv-x="731" 
d="M690 0h-649v170l342 729h-320v215h613v-188l-332 -711h346v-215zM724 1569v-27q-165 -208 -217 -301h-277q-44 82 -217 301v27h168q95 -69 190 -178q93 103 185 178h168z" />
    <glyph glyph-name="longs" unicode="&#x17f;" horiz-adv-x="563" 
d="M379 0h-266v1200q0 184 78.5 275.5t246.5 91.5q109 0 201 -45l-70 -203q-50 24 -102 24q-46 0 -67 -35.5t-21 -109.5v-1198z" />
    <glyph glyph-name="florin" unicode="&#x192;" horiz-adv-x="948" 
d="M221 -492q-90 0 -172 23v223q58 -18 117 -18q69 0 101 43t32 135v903h-166v135l166 78v86q0 188 83 277.5t269 89.5q138 0 244 -45l-68 -207q-76 29 -137 29q-60 0 -85 -40t-25 -114v-76h219v-213h-219l-2 -938q0 -182 -91.5 -276.5t-265.5 -94.5z" />
    <glyph glyph-name="Aringacute" unicode="&#x1fa;" horiz-adv-x="1094" 
d="M793 1456q0 -85 -52 -143l353 -1313h-273l-80 322h-391l-78 -322h-272l348 1311q-47 56 -47 143q0 106 65.5 170t176.5 64q109 0 179.5 -64t70.5 -168zM690 563q-88 352 -111 454.5t-32 149.5q-6 -32 -64 -293l-77 -311h284zM430 1761q40 37 90.5 96t83.5 105h318v-14
q-26 -29 -131 -99t-175 -106h-186v18zM643 1454q0 47 -28.5 73.5t-71.5 26.5q-44 0 -71.5 -26.5t-27.5 -73.5q0 -98 107 -98q40 0 66 26.5t26 71.5z" />
    <glyph glyph-name="aringacute" unicode="&#x1fb;" horiz-adv-x="958" 
d="M379 1743v16q49 46 97.5 105t76.5 98h317v-12q-28 -31 -124 -97t-181 -110h-186zM659 0l-51 152h-8q-59 -98 -122 -135t-159 -37q-123 0 -193.5 92t-70.5 256q0 176 96.5 261.5t288.5 94.5l146 6v78q0 158 -133 158q-98 0 -228 -78l-94 184q166 105 361 105
q177 0 269.5 -101.5t92.5 -287.5v-748h-195zM588 522l-82 -4q-89 -5 -132.5 -52t-43.5 -140q0 -138 98 -138q73 0 116.5 65.5t43.5 174.5v94zM741 1458q0 -106 -69.5 -170.5t-179.5 -64.5t-176 63t-66 170q0 109 66.5 171.5t175.5 62.5q110 0 179.5 -64.5t69.5 -167.5z
M592 1456q0 47 -28.5 72.5t-71.5 25.5q-44 0 -71.5 -25.5t-27.5 -72.5q0 -46 24.5 -73t74.5 -27q43 0 71.5 27t28.5 73z" />
    <glyph glyph-name="AEacute" unicode="&#x1fc;" horiz-adv-x="1425" 
d="M1339 0h-655v369h-299l-113 -369h-272l473 1462h866v-235h-383v-348h355v-236h-355v-405h383v-238zM645 1227l-14 -49l-170 -568h223v617h-39zM729 1579v27q41 53 95 151t77 150h318v-21q-24 -43 -119 -138.5t-184 -168.5h-187z" />
    <glyph glyph-name="aeacute" unicode="&#x1fd;" horiz-adv-x="1446" 
d="M1028 -20q-231 0 -344 180q-57 -93 -132.5 -136.5t-180.5 -43.5q-154 0 -235 88.5t-81 259.5q0 176 96.5 261.5t288.5 94.5l148 6v78q0 158 -135 158q-100 0 -230 -78l-92 184q166 105 361 105q165 0 258 -93q99 91 241 91q184 0 287.5 -134t103.5 -370v-142h-534
q3 -149 61 -221.5t160 -72.5q135 0 266 81v-219q-127 -77 -307 -77zM588 522l-82 -4q-91 -5 -133.5 -52t-42.5 -140q0 -138 98 -138q73 0 116.5 65.5t43.5 174.5v94zM991 930q-125 0 -137 -248h270q-2 122 -37 185t-96 63zM602 1241v27q41 53 95 151t77 150h318v-21
q-24 -43 -119 -138.5t-184 -168.5h-187z" />
    <glyph glyph-name="Oslashacute" unicode="&#x1fe;" horiz-adv-x="1219" 
d="M1135 733q0 -363 -136 -558t-389 -195q-135 0 -241 57l-70 -139l-166 77l96 187q-145 193 -145 573q0 363 136 556.5t392 193.5q137 0 252 -68l72 142l166 -76l-101 -197q134 -192 134 -553zM856 733q0 152 -12 236l-363 -709q48 -39 129 -39q246 0 246 512zM362 733
q0 -158 21 -266l371 729q-53 49 -142 49q-124 0 -187 -130.5t-63 -381.5zM473 1579v27q41 53 95 151t77 150h318v-21q-24 -43 -119 -138.5t-184 -168.5h-187z" />
    <glyph glyph-name="oslashacute" unicode="&#x1ff;" horiz-adv-x="1012" 
d="M938 559q0 -274 -116 -426.5t-318 -152.5q-92 0 -166 36l-57 -112l-162 76l78 151q-57 71 -90 179.5t-33 248.5q0 271 115 423.5t319 152.5q98 0 176 -41l51 96l160 -74l-72 -141q115 -148 115 -416zM338 559v-73l2 -70l244 475q-34 16 -78 16q-168 0 -168 -348zM676 559
l-4 117l-234 -457q25 -12 68 -12q83 0 126.5 89t43.5 263zM364 1241v27q41 53 95 151t77 150h318v-21q-24 -43 -119 -138.5t-184 -168.5h-187z" />
    <glyph glyph-name="Scommaaccent" unicode="&#x218;" horiz-adv-x="846" 
d="M795 403q0 -205 -103.5 -314t-298.5 -109q-191 0 -325 75v269q164 -107 301 -107q78 0 117.5 43t39.5 117q0 73 -47 133.5t-155 134.5q-94 65 -142.5 124.5t-75 133.5t-26.5 172q0 188 104.5 298t280.5 110q168 0 323 -94l-90 -218q-48 28 -100.5 50t-112.5 22
q-66 0 -101.5 -43.5t-35.5 -118.5q0 -74 42.5 -129t148.5 -125q143 -96 199.5 -196t56.5 -228zM228 -426q20 66 39.5 154.5t26.5 146.5h262v-20q-76 -176 -166 -308h-162v27z" />
    <glyph glyph-name="scommaaccent" unicode="&#x219;" horiz-adv-x="766" 
d="M711 326q0 -163 -95.5 -254.5t-281.5 -91.5q-165 0 -273 65v231q55 -38 128.5 -63t129.5 -25q62 0 94.5 30.5t32.5 80.5q0 51 -34 89t-125 93q-121 72 -173.5 153.5t-52.5 192.5q0 142 97.5 225t267.5 83q148 0 279 -78l-87 -191q-107 58 -188 58q-51 0 -76.5 -27
t-25.5 -66q0 -45 31.5 -80t117.5 -87q104 -63 146 -107t65 -100t23 -131zM179 -426q20 66 39.5 154.5t26.5 146.5h262v-20q-76 -176 -166 -308h-162v27z" />
    <glyph glyph-name="circumflex" unicode="&#x2c6;" horiz-adv-x="1135" 
d="M754 1241q-96 72 -189 178q-89 -100 -186 -178h-168v27q177 223 217 301h277q47 -87 217 -301v-27h-168z" />
    <glyph glyph-name="caron" unicode="&#x2c7;" horiz-adv-x="1135" 
d="M922 1569v-27q-165 -208 -217 -301h-277q-44 82 -217 301v27h168q95 -69 190 -178q93 103 185 178h168z" />
    <glyph glyph-name="macron" unicode="&#x2c9;" horiz-adv-x="1085" 
d="M240 1475h606v-199h-606v199z" />
    <glyph glyph-name="breve" unicode="&#x2d8;" horiz-adv-x="1126" 
d="M872 1567q-11 -157 -92.5 -241.5t-220.5 -84.5q-146 0 -223.5 85.5t-83.5 240.5h160q7 -71 36.5 -98t112.5 -27q78 0 109 28.5t41 96.5h161z" />
    <glyph glyph-name="dotaccent" unicode="&#x2d9;" horiz-adv-x="569" 
d="M131 1405q0 143 154 143q153 0 153 -143q0 -71 -40 -107t-113 -36q-75 0 -114.5 36t-39.5 107z" />
    <glyph glyph-name="ring" unicode="&#x2da;" horiz-adv-x="1116" 
d="M805 1475q0 -107 -69.5 -171.5t-180.5 -64.5q-110 0 -177 62.5t-67 171.5q0 108 67 170.5t177 62.5q109 0 179.5 -64t70.5 -167zM655 1473q0 46 -28.5 73t-71.5 27t-71.5 -27t-28.5 -73q0 -47 25 -74t75 -27q43 0 71.5 27t28.5 74z" />
    <glyph glyph-name="ogonek" unicode="&#x2db;" horiz-adv-x="410" 
d="M229 -229q0 -44 20.5 -64t51.5 -20q40 0 80 14v-168q-69 -16 -121 -16q-104 0 -167.5 59t-63.5 160q0 141 159 264h168q-127 -131 -127 -229z" />
    <glyph glyph-name="tilde" unicode="&#x2dc;" horiz-adv-x="1135" 
d="M440 1348q-31 0 -49.5 -23.5t-28.5 -85.5h-141q11 153 68.5 227t150.5 74q43 0 77.5 -16.5t64.5 -36.5t58 -36.5t58 -16.5q34 0 49.5 26t26.5 82h141q-11 -152 -69.5 -226.5t-149.5 -74.5q-44 0 -78.5 16.5t-64 37t-56.5 37t-57 16.5z" />
    <glyph glyph-name="hungarumlaut" unicode="&#x2dd;" horiz-adv-x="1149" 
d="M152 1241v27q45 62 97 154t77 147h280v-21q-32 -52 -133.5 -152t-169.5 -155h-151zM543 1241v27q45 62 97 154t77 147h280v-21q-25 -43 -121.5 -139t-183.5 -168h-149z" />
    <glyph glyph-name="tonos" unicode="&#x384;" horiz-adv-x="1098" 
d="M430 1272q43 127 72 295h262v-25q-57 -124 -170 -301h-164v31z" />
    <glyph glyph-name="dieresistonos" unicode="&#x385;" horiz-adv-x="1141" 
d="M471 1389v26q47 155 68 301h252v-20q-65 -137 -193 -307h-127zM184 1403q0 68 33.5 98.5t87.5 30.5t89.5 -30.5t35.5 -98.5q0 -65 -35.5 -96t-89.5 -31t-87.5 31t-33.5 96zM709 1403q0 129 125 129q52 0 87 -31t35 -98q0 -65 -35 -96t-87 -31q-57 0 -91 31t-34 96z" />
    <glyph glyph-name="Alphatonos" unicode="&#x386;" horiz-adv-x="1126" 
d="M854 0l-84 369h-381l-84 -369h-272l362 1468h369l363 -1468h-273zM719 610l-78 340q-7 31 -31.5 155.5t-29.5 166.5q-13 -86 -33 -189.5t-104 -472.5h276zM-38 1167q43 127 72 295h262v-25q-57 -124 -170 -301h-164v31z" />
    <glyph glyph-name="anoteleia" unicode="&#x387;" horiz-adv-x="553" 
d="M111 723q0 78 41.5 121t123.5 43t124 -42.5t42 -121.5q0 -78 -43.5 -121t-122.5 -43q-81 0 -123 43.5t-42 120.5z" />
    <glyph glyph-name="Epsilontonos" unicode="&#x388;" horiz-adv-x="1120" 
d="M1036 0h-659v1462h659v-235h-387v-348h359v-236h-359v-405h387v-238zM-38 1167q43 127 72 295h262v-25q-57 -124 -170 -301h-164v31z" />
    <glyph glyph-name="Etatonos" unicode="&#x389;" horiz-adv-x="1423" 
d="M1294 0h-272v641h-359v-641h-272v1462h272v-581h359v581h272v-1462zM-38 1167q43 127 72 295h262v-25q-57 -124 -170 -301h-164v31z" />
    <glyph glyph-name="Iotatonos.alt" horiz-adv-x="909" 
d="M844 0h-486v162l115 57v1024l-115 57v162h486v-162l-115 -57v-1024l115 -57v-162zM-54 1167q43 127 72 295h262v-25q-57 -124 -170 -301h-164v31z" />
    <glyph glyph-name="Omicrontonos" unicode="&#x38c;" horiz-adv-x="1389" 
d="M1305 733q0 -363 -136 -558t-389 -195q-254 0 -390 194.5t-136 560.5q0 363 136 556.5t392 193.5q253 0 388 -194.5t135 -557.5zM532 733q0 -250 63 -381t185 -131q246 0 246 512t-244 512q-124 0 -187 -130.5t-63 -381.5zM-18 1167q43 127 72 295h262v-25
q-57 -124 -170 -301h-164v31z" />
    <glyph glyph-name="Upsilontonos" unicode="&#x38e;" horiz-adv-x="1294" 
d="M815 885l195 577h285l-347 -876v-586h-268v575l-346 887h287zM-56 1167q43 127 72 295h262v-25q-57 -124 -170 -301h-164v31z" />
    <glyph glyph-name="Omegatonos" unicode="&#x38f;" horiz-adv-x="1407" 
d="M792 1245q-131 0 -189 -112t-58 -324q0 -195 42 -330t136 -243v-236h-508v242h289q-238 229 -238 604q0 296 139.5 467.5t386.5 171.5q245 0 385 -171t140 -470q0 -372 -234 -602h287v-242h-504v236q89 103 130.5 239t41.5 336q0 211 -58 322.5t-188 111.5zM-18 1167
q43 127 72 295h262v-25q-57 -124 -170 -301h-164v31z" />
    <glyph glyph-name="iotadieresistonos" unicode="&#x390;" horiz-adv-x="586" 
d="M379 1114v-778q0 -66 22.5 -98.5t59.5 -32.5q40 0 96 18v-213q-72 -30 -162 -30q-148 0 -216 83t-68 265v786h268zM148 1389v26q47 155 68 301h252v-20q-65 -137 -193 -307h-127zM-139 1403q0 68 33.5 98.5t87.5 30.5t89.5 -30.5t35.5 -98.5q0 -65 -35.5 -96t-89.5 -31
t-87.5 31t-33.5 96zM386 1403q0 129 125 129q52 0 87 -31t35 -98q0 -65 -35 -96t-87 -31q-57 0 -91 31t-34 96z" />
    <glyph glyph-name="Alpha" unicode="&#x391;" horiz-adv-x="1094" 
d="M821 0l-84 369h-381l-84 -369h-272l362 1468h369l363 -1468h-273zM686 610l-78 340q-7 31 -31.5 155.5t-29.5 166.5q-13 -86 -33 -189.5t-104 -472.5h276z" />
    <glyph glyph-name="Beta" unicode="&#x392;" horiz-adv-x="1038" 
d="M129 1462h373q228 0 332 -88.5t104 -281.5q0 -127 -55 -212.5t-150 -103.5v-10q124 -31 179 -116t55 -226q0 -199 -106.5 -311.5t-291.5 -112.5h-440v1462zM385 874h125q86 0 121 46t35 137t-40 130.5t-126 39.5h-115v-353zM385 647v-409h137q85 0 126.5 52t41.5 161
q0 196 -172 196h-133z" />
    <glyph glyph-name="Gamma" unicode="&#x393;" horiz-adv-x="819" 
d="M782 1462v-235h-383v-1227h-270v1462h653z" />
    <glyph glyph-name="uni0394" unicode="&#x394;" horiz-adv-x="1085" 
d="M35 160l321 1308h371l324 -1308v-160h-1016v160zM541 1266q-37 -222 -68 -346l-154 -680h443q-188 851 -202 915.5t-19 110.5z" />
    <glyph glyph-name="Epsilon" unicode="&#x395;" horiz-adv-x="872" 
d="M788 0h-659v1462h659v-235h-387v-348h359v-236h-359v-405h387v-238z" />
    <glyph glyph-name="Zeta" unicode="&#x396;" horiz-adv-x="877" 
d="M834 0h-791v190l467 1035h-453v237h762v-190l-467 -1034h482v-238z" />
    <glyph glyph-name="Eta" unicode="&#x397;" horiz-adv-x="1161" 
d="M1032 0h-272v641h-359v-641h-272v1462h272v-581h359v581h272v-1462z" />
    <glyph glyph-name="Theta" unicode="&#x398;" horiz-adv-x="1219" 
d="M453 862h313v-237h-313v237zM1135 733q0 -363 -136 -558t-389 -195q-254 0 -390 194.5t-136 560.5q0 363 136 556.5t392 193.5q253 0 388 -194.5t135 -557.5zM362 733q0 -250 63 -381t185 -131q246 0 246 512t-244 512q-124 0 -187 -130.5t-63 -381.5z" />
    <glyph glyph-name="Iota.alt" 
d="M549 0h-486v162l115 57v1024l-115 57v162h486v-162l-115 -57v-1024l115 -57v-162z" />
    <glyph glyph-name="Kappa" unicode="&#x39a;" horiz-adv-x="1040" 
d="M1040 0h-290l-240 625l-109 -109v-516h-272v1462h272v-725l95 219l249 506h291l-338 -633z" />
    <glyph glyph-name="Lambda" unicode="&#x39b;" horiz-adv-x="1032" 
d="M274 0h-274l344 1462h346l342 -1462h-274l-191 893q-7 30 -23 131t-28 197q-8 -72 -53 -328z" />
    <glyph glyph-name="Mu" unicode="&#x39c;" horiz-adv-x="1606" 
d="M651 0l-278 1245h-11q19 -144 19 -264v-981h-252v1462h418l250 -1149h8l248 1149h424v-1462h-258v991q0 123 14 252h-8l-277 -1243h-297z" />
    <glyph glyph-name="Nu" unicode="&#x39d;" horiz-adv-x="1282" 
d="M1153 0h-332l-452 1059h-13q25 -121 25 -260v-799h-252v1462h334l448 -1048h11q-19 105 -19 250v798h250v-1462z" />
    <glyph glyph-name="Xi" unicode="&#x39e;" horiz-adv-x="838" 
d="M150 879h538v-236h-538v236zM88 1462h662v-235h-662v235zM780 238v-238h-723v238h723z" />
    <glyph glyph-name="Omicron" unicode="&#x39f;" horiz-adv-x="1219" 
d="M1135 733q0 -363 -136 -558t-389 -195q-254 0 -390 194.5t-136 560.5q0 363 136 556.5t392 193.5q253 0 388 -194.5t135 -557.5zM362 733q0 -250 63 -381t185 -131q246 0 246 512t-244 512q-124 0 -187 -130.5t-63 -381.5z" />
    <glyph glyph-name="Pi" unicode="&#x3a0;" horiz-adv-x="1161" 
d="M1032 0h-270v1223h-361v-1223h-272v1462h903v-1462z" />
    <glyph glyph-name="Rho" unicode="&#x3a1;" horiz-adv-x="981" 
d="M926 1012q0 -233 -117.5 -357.5t-339.5 -124.5h-68v-530h-272v1462h371q426 0 426 -450zM401 766h52q100 0 149 55t49 180q0 115 -45 170.5t-139 55.5h-66v-461z" />
    <glyph glyph-name="Sigma" unicode="&#x3a3;" horiz-adv-x="881" 
d="M72 0v225l319 541l-311 477v219h698v-235h-291q-19 0 -127 8l306 -467l-324 -541l158 11h321v-238h-749z" />
    <glyph glyph-name="Tau" unicode="&#x3a4;" horiz-adv-x="885" 
d="M578 0h-271v1223h-280v239h831v-239h-280v-1223z" />
    <glyph glyph-name="Upsilon" unicode="&#x3a5;" horiz-adv-x="961" 
d="M481 885l195 577h285l-347 -876v-586h-268v575l-346 887h287z" />
    <glyph glyph-name="Phi" unicode="&#x3a6;" horiz-adv-x="1430" 
d="M588 1483h256v-180h37q226 0 350.5 -144t124.5 -397q0 -169 -59 -294.5t-171.5 -194t-271.5 -68.5h-10v-225h-256v225h-13q-239 0 -370 145t-131 404q0 162 58 287t167 193.5t256 68.5h33v180zM844 410h8q108 0 166.5 92t58.5 258q0 163 -53.5 249.5t-153.5 86.5h-26
v-686zM588 1096h-29q-100 0 -153.5 -88.5t-53.5 -247.5q0 -165 59.5 -257.5t166.5 -92.5h10v686z" />
    <glyph glyph-name="Chi" unicode="&#x3a7;" horiz-adv-x="969" 
d="M969 0h-283l-209 524l-194 -524h-283l334 760l-309 702h274l193 -481l167 481h285l-309 -714z" />
    <glyph glyph-name="Psi" unicode="&#x3a8;" horiz-adv-x="1452" 
d="M854 0h-256v438h-31q-237 0 -355 131.5t-118 409.5v483h256v-479q0 -168 53.5 -240.5t174.5 -72.5h20v792h256v-792h20q118 0 173 75.5t55 233.5v483h254v-479q0 -279 -117 -412t-356 -133h-29v-438z" />
    <glyph glyph-name="uni03A9" unicode="&#x3a9;" horiz-adv-x="1229" 
d="M614 1245q-131 0 -189 -112t-58 -324q0 -195 42 -330t136 -243v-236h-508v242h289q-238 229 -238 604q0 296 139.5 467.5t386.5 171.5q245 0 385 -171t140 -470q0 -372 -234 -602h287v-242h-504v236q89 103 130.5 239t41.5 336q0 211 -58 322.5t-188 111.5z" />
    <glyph glyph-name="Iotadieresis.alt" 
d="M178 0v1462h256v-1462h-256zM-18 1741q0 61 35 95t97 34t97.5 -35.5t35.5 -93.5q0 -57 -35.5 -92t-97.5 -35t-97 33.5t-35 93.5zM380 1741q0 60 35 94.5t98 34.5q61 0 97 -34t36 -95q0 -59 -35.5 -93t-97.5 -34t-97.5 34.5t-35.5 92.5z" />
    <glyph glyph-name="Upsilondieresis" unicode="&#x3ab;" horiz-adv-x="961" 
d="M481 885l195 577h285l-347 -876v-586h-268v575l-346 887h287zM150 1741q0 61 35 95t97 34t97.5 -35.5t35.5 -93.5q0 -57 -35.5 -92t-97.5 -35t-97 33.5t-35 93.5zM548 1741q0 60 35 94.5t98 34.5q61 0 97 -34t36 -95q0 -59 -35.5 -93t-97.5 -34t-97.5 34.5t-35.5 92.5z
" />
    <glyph glyph-name="alphatonos" unicode="&#x3ac;" horiz-adv-x="1059" 
d="M414 -20q-163 0 -251.5 141t-88.5 424t94.5 436.5t267.5 153.5q84 0 140.5 -37.5t105.5 -130.5h10q19 84 60 149h219q-26 -71 -46 -201t-20 -251v-332q0 -64 15.5 -90.5t52.5 -26.5q26 0 53 10v-219q-16 -10 -56 -18t-67 -8q-89 0 -140 40t-75 127h-8q-95 -167 -266 -167
zM487 205q82 0 116 73.5t34 251.5v25q0 196 -35.5 273t-112.5 77q-141 0 -141 -354q0 -173 33.5 -259.5t105.5 -86.5zM421 1272q43 127 72 295h262v-25q-57 -124 -170 -301h-164v31z" />
    <glyph glyph-name="epsilontonos" unicode="&#x3ad;" horiz-adv-x="862" 
d="M631 680v-199h-107q-102 0 -146 -37.5t-44 -109.5q0 -135 186 -135q134 0 273 77v-223q-57 -34 -140 -53.5t-176 -19.5q-192 0 -299.5 84t-107.5 237q0 222 237 277v10q-198 55 -198 246q0 138 107 219.5t280 81.5q170 0 311 -82l-98 -193q-54 34 -99.5 49t-99.5 15
q-154 0 -154 -115q0 -71 46 -100t137 -29h92zM380 1272q43 127 72 295h262v-25q-57 -124 -170 -301h-164v31z" />
    <glyph glyph-name="etatonos" unicode="&#x3ae;" horiz-adv-x="1038" 
d="M668 -492v1156q0 121 -29 183t-94 62q-86 0 -126 -85.5t-40 -288.5v-535h-266v1114h211l32 -143h17q36 77 103 120.5t157 43.5q152 0 227.5 -104t75.5 -304v-1219h-268zM423 1272q43 127 72 295h262v-25q-57 -124 -170 -301h-164v31z" />
    <glyph glyph-name="iotatonos" unicode="&#x3af;" horiz-adv-x="586" 
d="M379 1114v-778q0 -66 22.5 -98.5t59.5 -32.5q40 0 96 18v-213q-72 -30 -162 -30q-148 0 -216 83t-68 265v786h268zM148 1272q43 127 72 295h262v-25q-57 -124 -170 -301h-164v31z" />
    <glyph glyph-name="upsilondieresistonos" unicode="&#x3b0;" horiz-adv-x="1034" 
d="M508 -18q-205 0 -305.5 125t-100.5 382v625h269v-627q0 -146 34.5 -213t112.5 -67q88 0 127 99t39 306q0 224 -61 502h266q34 -153 48.5 -269t14.5 -241q0 -622 -444 -622zM415 1389v26q47 155 68 301h252v-20q-65 -137 -193 -307h-127zM128 1403q0 68 33.5 98.5
t87.5 30.5t89.5 -30.5t35.5 -98.5q0 -65 -35.5 -96t-89.5 -31t-87.5 31t-33.5 96zM653 1403q0 129 125 129q52 0 87 -31t35 -98q0 -65 -35 -96t-87 -31q-57 0 -91 31t-34 96z" />
    <glyph glyph-name="alpha" unicode="&#x3b1;" horiz-adv-x="1059" 
d="M414 -20q-163 0 -251.5 141t-88.5 424t94.5 436.5t267.5 153.5q84 0 140.5 -37.5t105.5 -130.5h10q19 84 60 149h219q-26 -71 -46 -201t-20 -251v-332q0 -64 15.5 -90.5t52.5 -26.5q26 0 53 10v-219q-16 -10 -56 -18t-67 -8q-89 0 -140 40t-75 127h-8q-95 -167 -266 -167
zM487 205q82 0 116 73.5t34 251.5v25q0 196 -35.5 273t-112.5 77q-141 0 -141 -354q0 -173 33.5 -259.5t105.5 -86.5z" />
    <glyph glyph-name="beta" unicode="&#x3b2;" horiz-adv-x="1061" 
d="M539 1567q191 0 298 -104t107 -289q0 -138 -63 -223t-199 -130v-8q160 -26 239.5 -114.5t79.5 -254.5q0 -218 -101.5 -341t-283.5 -123q-81 0 -136 16t-101 47v-535h-266v1588q0 229 108.5 350t317.5 121zM537 1346q-84 0 -121 -68t-37 -201v-811q81 -61 168 -61
q180 0 180 248q0 118 -53.5 179.5t-153.5 61.5h-43v226h43q75 0 116.5 59t41.5 164q0 103 -38 153t-103 50z" />
    <glyph glyph-name="gamma" unicode="&#x3b3;" horiz-adv-x="915" 
d="M524 -492h-266q0 85 18 213.5t50 262.5l-324 1130h277l135 -569q27 -120 39 -281h8q13 159 39 268l137 582h276l-315 -1100q-69 -246 -74 -506z" />
    <glyph glyph-name="delta" unicode="&#x3b4;" horiz-adv-x="1012" 
d="M381 920q-114 83 -159.5 158.5t-45.5 166.5q0 147 107 234.5t292 87.5q91 0 168.5 -16.5t184.5 -63.5l-82 -205q-148 74 -266 74q-140 0 -140 -101q0 -49 30.5 -87.5t176.5 -147.5q156 -116 223.5 -239.5t67.5 -284.5q0 -247 -114.5 -381.5t-321.5 -134.5
q-195 0 -311.5 124t-116.5 334q0 181 72.5 297.5t234.5 184.5zM666 489q0 196 -134 312q-186 -85 -186 -348q0 -111 41.5 -178.5t116.5 -67.5q78 0 120 72.5t42 209.5z" />
    <glyph glyph-name="epsilon" unicode="&#x3b5;" horiz-adv-x="862" 
d="M631 680v-199h-107q-102 0 -146 -37.5t-44 -109.5q0 -135 186 -135q134 0 273 77v-223q-57 -34 -140 -53.5t-176 -19.5q-192 0 -299.5 84t-107.5 237q0 222 237 277v10q-198 55 -198 246q0 138 107 219.5t280 81.5q170 0 311 -82l-98 -193q-54 34 -99.5 49t-99.5 15
q-154 0 -154 -115q0 -71 46 -100t137 -29h92z" />
    <glyph glyph-name="zeta" unicode="&#x3b6;" horiz-adv-x="745" 
d="M106 1348v208h617v-174q-193 -255 -285 -463t-92 -413q0 -67 16 -112t50.5 -79.5t115.5 -76.5q97 -54 130.5 -89.5t52 -82t18.5 -111.5q0 -80 -34.5 -169t-94.5 -169h-256q127 198 127 295q0 37 -22.5 65t-71.5 55l-66 36q-126 66 -181.5 171t-55.5 259q0 141 36 265
t106 246.5t253 352.5q-45 -14 -178 -14h-185z" />
    <glyph glyph-name="eta" unicode="&#x3b7;" horiz-adv-x="1038" 
d="M668 -492v1156q0 121 -29 183t-94 62q-86 0 -126 -85.5t-40 -288.5v-535h-266v1114h211l32 -143h17q36 77 103 120.5t157 43.5q152 0 227.5 -104t75.5 -304v-1219h-268z" />
    <glyph glyph-name="theta" unicode="&#x3b8;" horiz-adv-x="1028" 
d="M956 782q0 -410 -108.5 -606t-337.5 -196q-225 0 -330.5 195t-105.5 607q0 409 107.5 603t336.5 194q227 0 332.5 -193t105.5 -604zM516 190q172 0 180 496h-364q6 -255 52 -375.5t132 -120.5zM514 1368q-85 0 -130 -115.5t-52 -361.5h364q-12 477 -182 477z" />
    <glyph glyph-name="iota" unicode="&#x3b9;" horiz-adv-x="586" 
d="M379 1114v-778q0 -66 22.5 -98.5t59.5 -32.5q40 0 96 18v-213q-72 -30 -162 -30q-148 0 -216 83t-68 265v786h268z" />
    <glyph glyph-name="kappa" unicode="&#x3ba;" horiz-adv-x="965" 
d="M662 1114h282l-282 -455l301 -659h-279l-201 471l-104 -94v-377h-266v1114h266v-287l-12 -237l86 168z" />
    <glyph glyph-name="lambda" unicode="&#x3bb;" horiz-adv-x="1030" 
d="M8 0l365 1102l-17 65q-25 96 -63 133t-117 37q-46 0 -84 -12v231q68 17 131 17q155 0 243.5 -81t143.5 -278l226 -815q19 -70 36.5 -109.5t38 -57t54.5 -17.5q33 0 57 10v-215q-62 -30 -139 -30q-110 0 -173.5 69t-97.5 203l-73 293q-28 107 -41 260h-9
q-29 -192 -49 -254l-166 -551h-266z" />
    <glyph glyph-name="uni03BC" unicode="&#x3bc;" horiz-adv-x="1038" 
d="M371 414q0 -114 30 -161.5t93 -47.5q86 0 125.5 86t39.5 289v534h269v-1114h-213l-33 143h-16q-63 -163 -199 -163q-59 0 -105 40q9 -130 9 -272v-240h-269v1606h269v-700z" />
    <glyph glyph-name="nu" unicode="&#x3bd;" horiz-adv-x="946" 
d="M0 1114h276l136 -618q14 -60 22.5 -125t16.5 -121h8q91 160 131.5 355.5t40.5 508.5h262q0 -358 -81 -619.5t-259 -494.5h-260z" />
    <glyph glyph-name="xi" unicode="&#x3be;" horiz-adv-x="745" 
d="M74 446q0 140 68 230t188 133v10q-199 55 -199 260q0 104 56 172t175 109q-144 -12 -184 -12h-88v208h602v-196h-10q-125 0 -206 -72.5t-81 -193.5q0 -100 39.5 -142.5t128.5 -42.5h96v-196h-106q-207 0 -207 -258q0 -52 17 -89t48 -65t117 -74q89 -48 125.5 -83t56 -80
t19.5 -109q0 -79 -33.5 -166.5t-95.5 -171.5h-256q54 82 90.5 161.5t36.5 127.5q0 43 -33 71t-96 62q-105 55 -157.5 109t-81.5 126.5t-29 171.5z" />
    <glyph glyph-name="omicron" unicode="&#x3bf;" horiz-adv-x="1012" 
d="M938 559q0 -274 -116 -426.5t-318 -152.5q-128 0 -226 70t-151 201.5t-53 307.5q0 271 115 423.5t319 152.5q197 0 313.5 -155.5t116.5 -420.5zM346 559q0 -174 38 -263t122 -89q160 0 160 352q0 175 -38.5 261.5t-121.5 86.5q-84 0 -122 -86.5t-38 -261.5z" />
    <glyph glyph-name="pi" unicode="&#x3c0;" horiz-adv-x="1174" 
d="M1040 205q27 0 88 16v-213q-66 -28 -151 -28q-150 0 -218.5 82.5t-68.5 261.5v575h-223v-899h-268v899h-179v119l140 96h977v-215h-179v-567q0 -127 82 -127z" />
    <glyph glyph-name="rho" unicode="&#x3c1;" horiz-adv-x="1016" 
d="M942 559q0 -283 -95 -431t-267 -148q-70 0 -116 22t-83 57h-14q7 -100 10.5 -160t3.5 -108v-283h-268v1074q0 553 419 553q213 0 311.5 -142.5t98.5 -433.5zM526 909q-74 0 -109.5 -76.5t-35.5 -246.5v-307q53 -70 135 -70q76 0 114 82.5t38 265.5q0 181 -33 266.5
t-109 85.5z" />
    <glyph glyph-name="sigma1" unicode="&#x3c2;" horiz-adv-x="745" 
d="M74 537q0 300 98 449t301 149q135 0 256 -70l-78 -207q-85 49 -145 49q-86 0 -123 -89t-37 -286q0 -80 15.5 -131t48 -86t120.5 -79q110 -57 154.5 -120.5t44.5 -160.5q0 -80 -35.5 -172t-93.5 -166h-256q127 198 127 291q0 44 -30 74.5t-91 60.5q-151 73 -213.5 189
t-62.5 305z" />
    <glyph glyph-name="sigma" unicode="&#x3c3;" horiz-adv-x="1055" 
d="M922 516q0 -154 -52 -276.5t-148.5 -191t-225.5 -68.5q-197 0 -309.5 147t-112.5 397q0 590 456 590h486v-209h-238q144 -154 144 -389zM346 541q0 -164 38.5 -249t111.5 -85q153 0 153 325q0 122 -16 207t-58 166h-47q-100 0 -141 -84.5t-41 -279.5z" />
    <glyph glyph-name="tau" unicode="&#x3c4;" horiz-adv-x="817" 
d="M514 899v-569q0 -125 96 -125q56 0 121 28v-208q-70 -45 -194 -45q-149 0 -220 87t-71 267v565h-211v117l141 98h604v-215h-266z" />
    <glyph glyph-name="upsilon" unicode="&#x3c5;" horiz-adv-x="1034" 
d="M508 -18q-205 0 -305.5 125t-100.5 382v625h269v-627q0 -146 34.5 -213t112.5 -67q88 0 127 99t39 306q0 224 -61 502h266q34 -153 48.5 -269t14.5 -241q0 -622 -444 -622z" />
    <glyph glyph-name="phi" unicode="&#x3c6;" horiz-adv-x="1339" 
d="M547 -492v472q-232 15 -352.5 161.5t-120.5 413.5q0 311 184 573l215 -114q-83 -149 -111 -250t-28 -215q0 -170 58 -259t155 -102v545q0 195 87 296t255 101q184 0 280.5 -137.5t96.5 -404.5q0 -286 -119.5 -439.5t-353.5 -168.5v-472h-246zM1006 582q0 161 -30.5 252.5
t-86.5 91.5q-96 0 -96 -187v-551q102 13 157.5 113t55.5 281z" />
    <glyph glyph-name="chi" unicode="&#x3c7;" horiz-adv-x="1034" 
d="M158 1126q92 0 150.5 -31.5t98.5 -99t76 -209.5l49 -192l211 520h265l-361 -772l123 -428q30 -104 59.5 -137t92.5 -33q30 0 77 10v-229q-60 -17 -122 -17q-93 0 -153.5 32.5t-102 103.5t-76.5 209l-53 208l-222 -553h-264l373 820l-117 397q-21 70 -39.5 104.5t-43 48
t-66.5 13.5q-28 0 -78 -10v229q61 16 123 16z" />
    <glyph glyph-name="psi" unicode="&#x3c8;" horiz-adv-x="1354" 
d="M805 1556v-1368h4q95 0 150 102.5t55 323.5q0 225 -62 500h256q64 -283 64 -508q0 -624 -467 -624v-474h-246v474q-224 0 -340.5 126.5t-116.5 383.5v622h258v-627q0 -146 51.5 -222.5t147.5 -76.5v1368h246z" />
    <glyph glyph-name="omega" unicode="&#x3c9;" horiz-adv-x="1360" 
d="M940 -20q-104 0 -164.5 54t-91.5 148h-8q-31 -94 -91.5 -148t-164.5 -54q-165 0 -252.5 148.5t-87.5 412.5q0 156 24.5 287.5t83.5 285.5h275q-115 -270 -115 -569q0 -344 105 -344q104 0 104 243v308h246v-308q0 -243 104 -243q105 0 105 344q0 299 -115 569h274
q59 -150 84 -286t25 -287q0 -266 -89 -413.5t-251 -147.5z" />
    <glyph glyph-name="iotadieresis" unicode="&#x3ca;" horiz-adv-x="586" 
d="M379 1114v-778q0 -66 22.5 -98.5t59.5 -32.5q40 0 96 18v-213q-72 -30 -162 -30q-148 0 -216 83t-68 265v786h268zM-79 1403q0 61 35 95t97 34t97.5 -35.5t35.5 -93.5q0 -57 -35.5 -92t-97.5 -35t-97 33.5t-35 93.5zM319 1403q0 60 35 94.5t98 34.5q61 0 97 -34t36 -95
q0 -59 -35.5 -93t-97.5 -34t-97.5 34.5t-35.5 92.5z" />
    <glyph glyph-name="upsilondieresis" unicode="&#x3cb;" horiz-adv-x="1034" 
d="M508 -18q-205 0 -305.5 125t-100.5 382v625h269v-627q0 -146 34.5 -213t112.5 -67q88 0 127 99t39 306q0 224 -61 502h266q34 -153 48.5 -269t14.5 -241q0 -622 -444 -622zM183 1403q0 61 35 95t97 34t97.5 -35.5t35.5 -93.5q0 -57 -35.5 -92t-97.5 -35t-97 33.5
t-35 93.5zM581 1403q0 60 35 94.5t98 34.5q61 0 97 -34t36 -95q0 -59 -35.5 -93t-97.5 -34t-97.5 34.5t-35.5 92.5z" />
    <glyph glyph-name="omicrontonos" unicode="&#x3cc;" horiz-adv-x="1012" 
d="M938 559q0 -274 -116 -426.5t-318 -152.5q-128 0 -226 70t-151 201.5t-53 307.5q0 271 115 423.5t319 152.5q197 0 313.5 -155.5t116.5 -420.5zM346 559q0 -174 38 -263t122 -89q160 0 160 352q0 175 -38.5 261.5t-121.5 86.5q-84 0 -122 -86.5t-38 -261.5zM411 1272
q43 127 72 295h262v-25q-57 -124 -170 -301h-164v31z" />
    <glyph glyph-name="upsilontonos" unicode="&#x3cd;" horiz-adv-x="1034" 
d="M508 -18q-205 0 -305.5 125t-100.5 382v625h269v-627q0 -146 34.5 -213t112.5 -67q88 0 127 99t39 306q0 224 -61 502h266q34 -153 48.5 -269t14.5 -241q0 -622 -444 -622zM406 1272q43 127 72 295h262v-25q-57 -124 -170 -301h-164v31z" />
    <glyph glyph-name="omegatonos" unicode="&#x3ce;" horiz-adv-x="1360" 
d="M940 -20q-104 0 -164.5 54t-91.5 148h-8q-31 -94 -91.5 -148t-164.5 -54q-165 0 -252.5 148.5t-87.5 412.5q0 156 24.5 287.5t83.5 285.5h275q-115 -270 -115 -569q0 -344 105 -344q104 0 104 243v308h246v-308q0 -243 104 -243q105 0 105 344q0 299 -115 569h274
q59 -150 84 -286t25 -287q0 -266 -89 -413.5t-251 -147.5zM571 1272q43 127 72 295h262v-25q-57 -124 -170 -301h-164v31z" />
    <glyph glyph-name="afii10023" unicode="&#x401;" horiz-adv-x="872" 
d="M788 0h-659v1462h659v-235h-387v-348h359v-236h-359v-405h387v-238zM130 1741q0 61 35 95t97 34t97.5 -35.5t35.5 -93.5q0 -57 -35.5 -92t-97.5 -35t-97 33.5t-35 93.5zM528 1741q0 60 35 94.5t98 34.5q61 0 97 -34t36 -95q0 -59 -35.5 -93t-97.5 -34t-97.5 34.5
t-35.5 92.5z" />
    <glyph glyph-name="afii10051" unicode="&#x402;" horiz-adv-x="1268" 
d="M850 -18q-79 0 -148 24v227q49 -18 89 -18q57 0 80.5 42t23.5 126v131q0 92 -37.5 132t-126.5 40h-166v-686h-270v1223h-268v239h819v-239h-281v-297h201q207 0 303 -93t96 -292v-160q0 -399 -315 -399z" />
    <glyph glyph-name="afii10052" unicode="&#x403;" horiz-adv-x="819" 
d="M782 1462v-235h-383v-1227h-270v1462h653zM292 1579v27q41 53 95 151t77 150h318v-21q-24 -43 -119 -138.5t-184 -168.5h-187z" />
    <glyph glyph-name="afii10053" unicode="&#x404;" horiz-adv-x="948" 
d="M612 1245q-101 0 -164 -102t-79 -283h379v-235h-381q23 -406 258 -406q116 0 243 74v-242q-107 -71 -274 -71q-247 0 -378.5 195.5t-131.5 553.5q0 356 136.5 555t377.5 199q81 0 156 -22.5t157 -76.5l-92 -221q-45 31 -96 56.5t-111 25.5z" />
    <glyph glyph-name="afii10054" unicode="&#x405;" horiz-adv-x="846" 
d="M795 403q0 -205 -103.5 -314t-298.5 -109q-191 0 -325 75v269q164 -107 301 -107q78 0 117.5 43t39.5 117q0 73 -47 133.5t-155 134.5q-94 65 -142.5 124.5t-75 133.5t-26.5 172q0 188 104.5 298t280.5 110q168 0 323 -94l-90 -218q-48 28 -100.5 50t-112.5 22
q-66 0 -101.5 -43.5t-35.5 -118.5q0 -74 42.5 -129t148.5 -125q143 -96 199.5 -196t56.5 -228z" />
    <glyph glyph-name="afii10055.alt" 
d="M549 0h-486v162l115 57v1024l-115 57v162h486v-162l-115 -57v-1024l115 -57v-162z" />
    <glyph glyph-name="afii10056.alt" 
d="M549 0h-486v162l115 57v1024l-115 57v162h486v-162l-115 -57v-1024l115 -57v-162zM-18 1741q0 61 35 95t97 34t97.5 -35.5t35.5 -93.5q0 -57 -35.5 -92t-97.5 -35t-97 33.5t-35 93.5zM380 1741q0 60 35 94.5t98 34.5q61 0 97 -34t36 -95q0 -59 -35.5 -93t-97.5 -34
t-97.5 34.5t-35.5 92.5z" />
    <glyph glyph-name="afii10057" unicode="&#x408;" horiz-adv-x="530" 
d="M14 -422q-106 0 -168 25v237q65 -20 123 -20q83 0 121.5 53t38.5 158v1431h272v-1417q0 -144 -48.5 -250t-137 -161.5t-201.5 -55.5z" />
    <glyph glyph-name="afii10058" unicode="&#x409;" horiz-adv-x="1552" 
d="M1497 461q0 -218 -116.5 -339.5t-333.5 -121.5h-347v1223h-159q-45 -506 -90 -836q-30 -211 -108.5 -309t-209.5 -98q-81 0 -133 22v225q30 -12 74 -12q56 0 85.5 88t67 395t78.5 764h668v-581h67q457 0 457 -420zM973 236h65q185 0 185 215q0 102 -45.5 147t-153.5 45
h-51v-407z" />
    <glyph glyph-name="afii10059" unicode="&#x40a;" horiz-adv-x="1552" 
d="M1497 461q0 -218 -116.5 -339.5t-333.5 -121.5h-345v641h-301v-641h-272v1462h272v-581h301v581h273v-581h65q457 0 457 -420zM975 236h63q185 0 185 215q0 102 -45.5 147t-153.5 45h-49v-407z" />
    <glyph glyph-name="afii10060" unicode="&#x40b;" horiz-adv-x="1278" 
d="M565 926h199q208 0 304.5 -93t96.5 -292v-541h-270v514q0 92 -37.5 132t-126.5 40h-166v-686h-270v1223h-268v239h821v-239h-283v-297z" />
    <glyph glyph-name="afii10061" unicode="&#x40c;" horiz-adv-x="1083" 
d="M1083 0h-305l-375 741v-741h-270v1462h270v-708l381 708h291l-401 -704zM374 1579v27q41 53 95 151t77 150h318v-21q-24 -43 -119 -138.5t-184 -168.5h-187z" />
    <glyph glyph-name="afii10062" unicode="&#x40e;" horiz-adv-x="971" 
d="M215 -20q-105 0 -176 28v242q73 -29 151 -29q120 0 185 223l-375 1018h285l186 -571q23 -79 29 -135h8l14 68l15 67l159 571h275l-326 -1034q-78 -245 -178.5 -346.5t-251.5 -101.5zM871 1903q-20 -168 -109.5 -246t-263.5 -78q-170 0 -255 76.5t-101 247.5h221
q11 -100 42.5 -135t98.5 -35q66 0 98.5 40t43.5 130h225z" />
    <glyph glyph-name="afii10145" unicode="&#x40f;" horiz-adv-x="1161" 
d="M1032 0h-313v-418h-273v418h-317v1462h272v-1222h359v1222h272v-1462z" />
    <glyph glyph-name="afii10017" unicode="&#x410;" horiz-adv-x="1094" 
d="M821 0l-84 369h-381l-84 -369h-272l362 1468h369l363 -1468h-273zM686 610l-78 340q-7 31 -31.5 155.5t-29.5 166.5q-13 -86 -33 -189.5t-104 -472.5h276z" />
    <glyph glyph-name="afii10018" unicode="&#x411;" horiz-adv-x="997" 
d="M936 465q0 -222 -113.5 -343.5t-324.5 -121.5h-369v1462h694v-237h-422v-334h86q222 0 335.5 -107t113.5 -319zM401 236h84q177 0 177 219q0 105 -44.5 151.5t-150.5 46.5h-66v-417z" />
    <glyph glyph-name="afii10019" unicode="&#x412;" horiz-adv-x="1038" 
d="M129 1462h373q228 0 332 -88.5t104 -281.5q0 -127 -55 -212.5t-150 -103.5v-10q124 -31 179 -116t55 -226q0 -199 -106.5 -311.5t-291.5 -112.5h-440v1462zM385 874h125q86 0 121 46t35 137t-40 130.5t-126 39.5h-115v-353zM385 647v-409h137q85 0 126.5 52t41.5 161
q0 196 -172 196h-133z" />
    <glyph glyph-name="afii10020" unicode="&#x413;" horiz-adv-x="819" 
d="M782 1462v-235h-383v-1227h-270v1462h653z" />
    <glyph glyph-name="afii10021" unicode="&#x414;" horiz-adv-x="1225" 
d="M1194 -418h-264v418h-656v-418h-264v658h86q206 547 264 1222h668v-1222h166v-658zM756 240v983h-166q-25 -243 -80.5 -504.5t-130.5 -478.5h377z" />
    <glyph glyph-name="afii10022" unicode="&#x415;" horiz-adv-x="872" 
d="M788 0h-659v1462h659v-235h-387v-348h359v-236h-359v-405h387v-238z" />
    <glyph glyph-name="afii10024" unicode="&#x416;" horiz-adv-x="1493" 
d="M365 758l-359 704h279l333 -708v708h254v-708l334 708h281l-359 -702l365 -760h-295l-326 741v-741h-254v741l-323 -741h-295z" />
    <glyph glyph-name="afii10025" unicode="&#x417;" horiz-adv-x="991" 
d="M887 1116q0 -136 -80.5 -225.5t-231.5 -120.5v-8q164 -20 254.5 -109.5t90.5 -238.5q0 -202 -129.5 -318t-352.5 -116q-236 0 -368 69v238q148 -82 315 -82q262 0 262 229q0 104 -75.5 158.5t-223.5 54.5h-98v223h88q145 0 214 50.5t69 156.5q0 85 -46 130.5t-133 45.5
q-133 0 -252 -108l-129 182q99 85 201 120.5t227 35.5q181 0 289.5 -100.5t108.5 -266.5z" />
    <glyph glyph-name="afii10026" unicode="&#x418;" horiz-adv-x="1282" 
d="M129 1462h252v-803q0 -125 -19 -247h11l446 1050h334v-1462h-250v801q0 148 23 260h-13l-448 -1061h-336v1462z" />
    <glyph glyph-name="afii10027" unicode="&#x419;" horiz-adv-x="1282" 
d="M129 1462h252v-803q0 -125 -19 -247h11l446 1050h334v-1462h-250v801q0 148 23 260h-13l-448 -1061h-336v1462zM1006 1903q-20 -168 -109.5 -246t-263.5 -78q-170 0 -255 76.5t-101 247.5h221q11 -100 42.5 -135t98.5 -35q66 0 98.5 40t43.5 130h225z" />
    <glyph glyph-name="afii10028" unicode="&#x41a;" horiz-adv-x="1083" 
d="M1083 0h-305l-375 741v-741h-270v1462h270v-708l381 708h291l-401 -704z" />
    <glyph glyph-name="afii10029" unicode="&#x41b;" horiz-adv-x="1161" 
d="M1032 0h-272v1223h-219q-45 -506 -90 -836q-30 -211 -108.5 -309t-209.5 -98q-81 0 -133 22v225q30 -12 74 -12q56 0 85.5 88t67 395t78.5 764h727v-1462z" />
    <glyph glyph-name="afii10030" unicode="&#x41c;" horiz-adv-x="1606" 
d="M651 0l-278 1245h-11q19 -144 19 -264v-981h-252v1462h418l250 -1149h8l248 1149h424v-1462h-258v991q0 123 14 252h-8l-277 -1243h-297z" />
    <glyph glyph-name="afii10031" unicode="&#x41d;" horiz-adv-x="1161" 
d="M1032 0h-272v641h-359v-641h-272v1462h272v-581h359v581h272v-1462z" />
    <glyph glyph-name="afii10032" unicode="&#x41e;" horiz-adv-x="1219" 
d="M1135 733q0 -363 -136 -558t-389 -195q-254 0 -390 194.5t-136 560.5q0 363 136 556.5t392 193.5q253 0 388 -194.5t135 -557.5zM362 733q0 -250 63 -381t185 -131q246 0 246 512t-244 512q-124 0 -187 -130.5t-63 -381.5z" />
    <glyph glyph-name="afii10033" unicode="&#x41f;" horiz-adv-x="1161" 
d="M1032 0h-270v1223h-361v-1223h-272v1462h903v-1462z" />
    <glyph glyph-name="afii10034" unicode="&#x420;" horiz-adv-x="981" 
d="M926 1012q0 -233 -117.5 -357.5t-339.5 -124.5h-68v-530h-272v1462h371q426 0 426 -450zM401 766h52q100 0 149 55t49 180q0 115 -45 170.5t-139 55.5h-66v-461z" />
    <glyph glyph-name="afii10035" unicode="&#x421;" horiz-adv-x="948" 
d="M614 1245q-117 0 -184.5 -137t-67.5 -381q0 -508 265 -508q116 0 243 74v-242q-107 -71 -274 -71q-247 0 -379.5 196.5t-132.5 552.5t136.5 555t379.5 199q80 0 153.5 -22t157.5 -77l-90 -221q-45 31 -96 56.5t-111 25.5z" />
    <glyph glyph-name="afii10036" unicode="&#x422;" horiz-adv-x="885" 
d="M578 0h-271v1223h-280v239h831v-239h-280v-1223z" />
    <glyph glyph-name="afii10037" unicode="&#x423;" horiz-adv-x="971" 
d="M215 -20q-105 0 -176 28v242q73 -29 151 -29q120 0 185 223l-375 1018h285l186 -571q23 -79 29 -135h8l14 68l15 67l159 571h275l-326 -1034q-78 -245 -178.5 -346.5t-251.5 -101.5z" />
    <glyph glyph-name="afii10038" unicode="&#x424;" horiz-adv-x="1430" 
d="M588 1483h256v-180h37q226 0 350.5 -144t124.5 -397q0 -169 -59 -294.5t-171.5 -194t-271.5 -68.5h-10v-225h-256v225h-13q-239 0 -370 145t-131 404q0 162 58 287t167 193.5t256 68.5h33v180zM844 410h8q108 0 166.5 92t58.5 258q0 163 -53.5 249.5t-153.5 86.5h-26
v-686zM588 1096h-29q-100 0 -153.5 -88.5t-53.5 -247.5q0 -165 59.5 -257.5t166.5 -92.5h10v686z" />
    <glyph glyph-name="afii10039" unicode="&#x425;" horiz-adv-x="969" 
d="M969 0h-283l-209 524l-194 -524h-283l334 760l-309 702h274l193 -481l167 481h285l-309 -714z" />
    <glyph glyph-name="afii10040" unicode="&#x426;" horiz-adv-x="1229" 
d="M1032 229h166v-647h-264v418h-805v1462h272v-1222h359v1222h272v-1233z" />
    <glyph glyph-name="afii10041" unicode="&#x427;" horiz-adv-x="1155" 
d="M1026 0h-272v567q-140 -86 -283 -86q-165 0 -255.5 100.5t-90.5 280.5v600h272v-540q0 -105 31.5 -153t103.5 -48q60 0 113 20.5t109 55.5v665h272v-1462z" />
    <glyph glyph-name="afii10042" unicode="&#x428;" horiz-adv-x="1704" 
d="M987 240h316v1222h272v-1462h-1446v1462h272v-1222h316v1222h270v-1222z" />
    <glyph glyph-name="afii10043" unicode="&#x429;" horiz-adv-x="1772" 
d="M987 240h316v1222h270v-1233h166v-647h-264v418h-1346v1462h272v-1222h316v1222h270v-1222z" />
    <glyph glyph-name="afii10044" unicode="&#x42a;" horiz-adv-x="1155" 
d="M1098 465q0 -221 -117 -343t-332 -122h-346v1223h-274v239h546v-571h68q455 0 455 -426zM575 236h66q182 0 182 219q0 106 -44.5 152t-151.5 46h-52v-417z" />
    <glyph glyph-name="afii10045" unicode="&#x42b;" horiz-adv-x="1518" 
d="M129 0v1462h272v-571h70q455 0 455 -426q0 -221 -117 -343t-332 -122h-348zM401 236h68q182 0 182 219q0 106 -44.5 152t-151.5 46h-54v-417zM1389 0h-273v1462h273v-1462z" />
    <glyph glyph-name="afii10046" unicode="&#x42c;" horiz-adv-x="983" 
d="M926 465q0 -221 -117 -343t-332 -122h-348v1462h272v-571h70q455 0 455 -426zM401 236h68q182 0 182 219q0 106 -44.5 152t-151.5 46h-54v-417z" />
    <glyph glyph-name="afii10047" unicode="&#x42d;" horiz-adv-x="948" 
d="M344 1245q-99 0 -215 -82l-92 221q72 47 146.5 74t168.5 27q245 0 378.5 -194.5t133.5 -551.5t-135.5 -558t-382.5 -201q-169 0 -274 71v242q125 -74 254 -74q233 0 256 406h-383v235h381q-26 385 -236 385z" />
    <glyph glyph-name="afii10048" unicode="&#x42e;" horiz-adv-x="1677" 
d="M1593 733q0 -362 -127 -557.5t-364 -195.5q-222 0 -348.5 169t-141.5 492h-211v-641h-272v1462h272v-581h213q26 294 150.5 449t339.5 155q237 0 363 -195.5t126 -556.5zM889 733q0 -512 213 -512t213 512t-211 512q-215 0 -215 -512z" />
    <glyph glyph-name="afii10049" unicode="&#x42f;" horiz-adv-x="1024" 
d="M524 569l-227 -569h-293l279 639q-97 60 -141 151.5t-44 223.5q0 448 445 448h352v-1462h-272v569h-99zM623 1227h-66q-93 0 -137.5 -47.5t-44.5 -159.5q0 -108 40.5 -162.5t137.5 -54.5h70v424z" />
    <glyph glyph-name="afii10065" unicode="&#x430;" horiz-adv-x="956" 
d="M659 0l-53 152h-6q-59 -98 -122 -135t-159 -37q-123 0 -193.5 92t-70.5 256q0 176 96.5 261.5t288.5 94.5l148 6v80q0 156 -135 156q-100 0 -230 -78l-92 184q166 105 361 105q177 0 269.5 -101.5t92.5 -287.5v-748h-195zM428 188q73 0 116.5 65.5t43.5 174.5v94l-82 -4
q-91 -5 -133.5 -52t-42.5 -140q0 -138 98 -138z" />
    <glyph glyph-name="afii10066" unicode="&#x431;" horiz-adv-x="1012" 
d="M74 645q0 380 108.5 580t354.5 272q128 36 370 70l31 -234l-177 -28q-169 -28 -252.5 -72.5t-125 -132t-49.5 -232.5h8q47 84 114 127t146 43q160 0 248 -129t88 -360q0 -268 -114 -418.5t-318 -150.5q-208 0 -320 173t-112 492zM516 207q150 0 150 315q0 305 -136 305
q-59 0 -110 -47.5t-74 -120.5q0 -452 170 -452z" />
    <glyph glyph-name="afii10067" unicode="&#x432;" horiz-adv-x="991" 
d="M907 825q0 -94 -55.5 -156.5t-161.5 -80.5v-8q117 -15 183.5 -80.5t66.5 -169.5q0 -160 -113 -245t-323 -85h-391v1114h389q405 0 405 -289zM664 346q0 71 -46 102t-139 31h-100v-280h104q181 0 181 147zM635 801q0 110 -146 110h-110v-235h80q88 0 132 28.5t44 96.5z
" />
    <glyph glyph-name="afii10068" unicode="&#x433;" horiz-adv-x="729" 
d="M692 1114v-215h-313v-899h-266v1114h579z" />
    <glyph glyph-name="afii10069" unicode="&#x434;" horiz-adv-x="1094" 
d="M651 209v694h-131q-38 -432 -145 -694h276zM1065 -397h-264v397h-508v-397h-264v606h67q80 161 127 394t60 511h637v-905h145v-606z" />
    <glyph glyph-name="afii10070" unicode="&#x435;" horiz-adv-x="942" 
d="M524 -20q-209 0 -329.5 148.5t-120.5 420.5q0 276 109 431t304 155q182 0 287 -132.5t105 -371.5v-142h-535q3 -149 61 -221.5t160 -72.5q130 0 266 81v-219q-128 -77 -307 -77zM485 930q-57 0 -94 -60.5t-43 -187.5h270q-2 122 -37 185t-96 63z" />
    <glyph glyph-name="afii10072" unicode="&#x436;" horiz-adv-x="1405" 
d="M575 580v534h256v-534l279 534h276l-299 -528l318 -586h-289l-285 573v-573h-256v573l-286 -573h-289l317 586l-297 528h277z" />
    <glyph glyph-name="afii10073" unicode="&#x437;" horiz-adv-x="864" 
d="M340 680q91 0 135.5 29t44.5 100q0 115 -153 115q-54 0 -100 -15.5t-99 -48.5l-96 193q139 82 309 82q177 0 282 -79t105 -216q0 -191 -211 -250v-8q116 -27 177 -99t61 -184q0 -148 -112.5 -233.5t-311.5 -85.5q-92 0 -175.5 20.5t-140.5 52.5v223q139 -77 291 -77
q182 0 182 135q0 72 -43.5 109.5t-144.5 37.5h-109v199h109z" />
    <glyph glyph-name="afii10074" unicode="&#x438;" horiz-adv-x="1137" 
d="M360 1114v-516q0 -96 -24 -319l362 835h326v-1114h-248v524q0 118 23 318l-363 -842h-323v1114h247z" />
    <glyph glyph-name="afii10075" unicode="&#x439;" horiz-adv-x="1137" 
d="M360 1114v-516q0 -96 -24 -319l362 835h326v-1114h-248v524q0 118 23 318l-363 -842h-323v1114h247zM933 1565q-20 -168 -109.5 -246t-263.5 -78q-170 0 -255 76.5t-101 247.5h221q11 -100 42.5 -135t98.5 -35q66 0 98.5 40t43.5 130h225z" />
    <glyph glyph-name="afii10076" unicode="&#x43a;" horiz-adv-x="965" 
d="M664 1114h280l-305 -528l324 -586h-293l-291 573v-573h-266v1114h266v-532z" />
    <glyph glyph-name="afii10077" unicode="&#x43b;" horiz-adv-x="1032" 
d="M920 0h-267v899h-149q-20 -339 -64.5 -538t-119 -289t-197.5 -90q-75 0 -123 22v219q30 -10 61 -10q84 0 131 214.5t72 686.5h656v-1114z" />
    <glyph glyph-name="afii10078" unicode="&#x43c;" horiz-adv-x="1374" 
d="M1264 0h-238v905q-29 -162 -82 -364l-145 -541h-226l-145 543q-47 175 -82 362v-905h-233v1114h383l135 -520q44 -174 53 -324q4 51 21.5 143t39.5 181l138 520h381v-1114z" />
    <glyph glyph-name="afii10079" unicode="&#x43d;" horiz-adv-x="1059" 
d="M379 1114v-434h301v434h268v-1114h-268v467h-301v-467h-266v1114h266z" />
    <glyph glyph-name="afii10080" unicode="&#x43e;" horiz-adv-x="1012" 
d="M938 559q0 -274 -116 -426.5t-318 -152.5q-128 0 -226 70t-151 201.5t-53 307.5q0 271 115 423.5t319 152.5q197 0 313.5 -155.5t116.5 -420.5zM346 559q0 -174 38 -263t122 -89q160 0 160 352q0 175 -38.5 261.5t-121.5 86.5q-84 0 -122 -86.5t-38 -261.5z" />
    <glyph glyph-name="afii10081" unicode="&#x43f;" horiz-adv-x="1061" 
d="M948 1114v-1114h-268v899h-301v-899h-266v1114h835z" />
    <glyph glyph-name="afii10082" unicode="&#x440;" horiz-adv-x="1016" 
d="M610 -20q-72 0 -127.5 32.5t-103.5 114.5h-14q16 -136 16 -164v-455h-268v1606h206l46 -145h12q83 166 241 166q152 0 238 -150.5t86 -425.5q0 -271 -89 -425t-243 -154zM528 909q-78 0 -112.5 -72.5t-36.5 -240.5v-35q0 -184 35 -268t116 -84q140 0 140 354
q0 174 -34.5 260t-107.5 86z" />
    <glyph glyph-name="afii10083" unicode="&#x441;" horiz-adv-x="760" 
d="M481 -20q-199 0 -303 145t-104 426q0 294 98.5 439t304.5 145q62 0 130 -18t122 -52l-76 -207q-83 49 -147 49q-85 0 -122.5 -88.5t-37.5 -265.5q0 -173 37 -258.5t121 -85.5q100 0 209 70v-234q-105 -65 -232 -65z" />
    <glyph glyph-name="afii10084" unicode="&#x442;" horiz-adv-x="836" 
d="M799 1114v-215h-248v-899h-266v899h-248v215h762z" />
    <glyph glyph-name="afii10085" unicode="&#x443;" horiz-adv-x="913" 
d="M0 1114h276l154 -629q23 -84 37 -235h6q1 24 9 85.5t13 96.5t138 682h280l-319 -1194q-58 -220 -154 -316t-256 -96q-79 0 -141 17v223q41 -12 92 -12q134 0 176 176l19 70z" />
    <glyph glyph-name="afii10086" unicode="&#x444;" horiz-adv-x="1337" 
d="M547 -20q-221 2 -347 154t-126 425t124.5 422.5t348.5 153.5v421h244v-421q230 -4 351.5 -151.5t121.5 -424.5q0 -272 -124 -424.5t-349 -154.5v-472h-244v472zM334 559q0 -172 56.5 -267.5t156.5 -98.5v729q-100 -3 -156.5 -96.5t-56.5 -266.5zM791 193q99 2 156 99.5
t57 266.5q0 173 -55.5 266.5t-157.5 96.5v-729z" />
    <glyph glyph-name="afii10087" unicode="&#x445;" horiz-adv-x="889" 
d="M305 569l-278 545h276l148 -340l137 340h274l-280 -545l292 -569h-278l-158 356l-147 -356h-277z" />
    <glyph glyph-name="afii10088" unicode="&#x446;" horiz-adv-x="1120" 
d="M946 209h150v-606h-265v397h-718v1114h266v-899h299v899h268v-905z" />
    <glyph glyph-name="afii10089" unicode="&#x447;" horiz-adv-x="1036" 
d="M369 1114v-414q0 -77 25 -112t79 -35q56 0 98.5 23t85.5 57v481h269v-1114h-269v451q-138 -107 -276 -107q-137 0 -208 84t-71 250v436h267z" />
    <glyph glyph-name="afii10090" unicode="&#x448;" horiz-adv-x="1532" 
d="M1419 0h-1306v1114h266v-899h252v899h268v-899h252v899h268v-1114z" />
    <glyph glyph-name="afii10091" unicode="&#x449;" horiz-adv-x="1593" 
d="M113 0v1114h266v-899h252v899h268v-899h252v899h268v-905h150v-606h-264v397h-1192z" />
    <glyph glyph-name="afii10092" unicode="&#x44a;" horiz-adv-x="1147" 
d="M561 678h92q223 0 328.5 -81t105.5 -245q0 -352 -442 -352h-352v899h-256v215h524v-436zM815 346q0 71 -43.5 102t-136.5 31h-74v-280h78q85 0 130.5 33.5t45.5 113.5z" />
    <glyph glyph-name="afii10093" unicode="&#x44b;" horiz-adv-x="1425" 
d="M379 678h80q221 0 326.5 -81t105.5 -245q0 -352 -440 -352h-338v1114h266v-436zM618 346q0 71 -43.5 102t-136.5 31h-59v-280h63q85 0 130.5 33.5t45.5 113.5zM1315 0h-268v1114h268v-1114z" />
    <glyph glyph-name="afii10094" unicode="&#x44c;" horiz-adv-x="967" 
d="M379 678h94q223 0 328.5 -81t105.5 -245q0 -352 -442 -352h-352v1114h266v-436zM633 346q0 71 -42.5 102t-135.5 31h-76v-280h80q83 0 128.5 33.5t45.5 113.5z" />
    <glyph glyph-name="afii10095" unicode="&#x44d;" horiz-adv-x="879" 
d="M324 -20q-152 0 -271 71v219q99 -48 153 -61.5t105 -13.5q95 0 152 71t67 201h-317v195h317q-3 130 -51.5 196t-136.5 66q-57 0 -104.5 -17t-104.5 -45l-74 199q144 74 291 74q455 0 455 -566q0 -282 -123 -435.5t-358 -153.5z" />
    <glyph glyph-name="afii10096" unicode="&#x44e;" horiz-adv-x="1448" 
d="M1374 559q0 -275 -109.5 -427t-310.5 -152q-178 0 -286 128.5t-125 358.5h-164v-467h-266v1114h266v-434h166q21 216 128.5 335.5t284.5 119.5q197 0 306.5 -150.5t109.5 -425.5zM811 559q0 -352 145 -352q76 0 111 89t35 263q0 175 -35 261.5t-111 86.5
q-75 0 -110 -86.5t-35 -261.5z" />
    <glyph glyph-name="afii10097" unicode="&#x44f;" horiz-adv-x="1012" 
d="M307 0h-301l277 457q-201 80 -201 311q0 163 108.5 254.5t298.5 91.5h410v-1114h-266v420h-96zM352 766q0 -150 166 -150h115v299h-137q-144 0 -144 -149z" />
    <glyph glyph-name="afii10071" unicode="&#x451;" horiz-adv-x="942" 
d="M524 -20q-209 0 -329.5 148.5t-120.5 420.5q0 276 109 431t304 155q182 0 287 -132.5t105 -371.5v-142h-535q3 -149 61 -221.5t160 -72.5q130 0 266 81v-219q-128 -77 -307 -77zM485 930q-57 0 -94 -60.5t-43 -187.5h270q-2 122 -37 185t-96 63zM156 1403q0 61 35 95
t97 34t97.5 -35.5t35.5 -93.5q0 -57 -35.5 -92t-97.5 -35t-97 33.5t-35 93.5zM554 1403q0 60 35 94.5t98 34.5q61 0 97 -34t36 -95q0 -59 -35.5 -93t-97.5 -34t-97.5 34.5t-35.5 92.5z" />
    <glyph glyph-name="afii10099" unicode="&#x452;" horiz-adv-x="1051" 
d="M948 -129q0 -174 -80.5 -268.5t-226.5 -94.5q-86 0 -141 25v221q46 -18 88 -18q47 0 69.5 41.5t22.5 128.5v721q0 231 -123 231q-87 0 -126.5 -84.5t-39.5 -267.5v-506h-266v1204h-125v187h125v165h266v-165h244v-187h-244v-57q0 -87 -12 -227h14q37 81 100.5 123
t145.5 42q153 0 231 -99t78 -290v-825z" />
    <glyph glyph-name="afii10100" unicode="&#x453;" horiz-adv-x="729" 
d="M692 1114v-215h-313v-899h-266v1114h579zM236 1241v27q41 53 95 151t77 150h318v-21q-24 -43 -119 -138.5t-184 -168.5h-187z" />
    <glyph glyph-name="afii10101" unicode="&#x454;" horiz-adv-x="879" 
d="M522 -20q-228 0 -338 140t-110 427q0 289 115.5 438.5t340.5 149.5q154 0 295 -76l-77 -203q-57 31 -106.5 49.5t-104.5 18.5q-175 0 -191 -262h320v-195h-320q18 -272 193 -272q75 0 135.5 20.5t122.5 54.5v-219q-131 -71 -275 -71z" />
    <glyph glyph-name="afii10102" unicode="&#x455;" horiz-adv-x="766" 
d="M711 326q0 -163 -95.5 -254.5t-281.5 -91.5q-165 0 -273 65v231q55 -38 128.5 -63t129.5 -25q62 0 94.5 30.5t32.5 80.5q0 51 -34 89t-125 93q-121 72 -173.5 153.5t-52.5 192.5q0 142 97.5 225t267.5 83q148 0 279 -78l-87 -191q-107 58 -188 58q-51 0 -76.5 -27
t-25.5 -66q0 -45 31.5 -80t117.5 -87q104 -63 146 -107t65 -100t23 -131z" />
    <glyph glyph-name="afii10103" unicode="&#x456;" horiz-adv-x="496" 
d="M381 0h-266v1114h266v-1114zM104 1405q0 66 38.5 104.5t107.5 38.5q65 0 104 -38.5t39 -104.5q0 -68 -40 -105.5t-103 -37.5q-66 0 -106 37.5t-40 105.5z" />
    <glyph glyph-name="afii10104" unicode="&#x457;" horiz-adv-x="496" 
d="M381 0h-266v1114h266v-1114zM-79 1403q0 61 35 95t97 34t97.5 -35.5t35.5 -93.5q0 -57 -35.5 -92t-97.5 -35t-97 33.5t-35 93.5zM319 1403q0 60 35 94.5t98 34.5q61 0 97 -34t36 -95q0 -59 -35.5 -93t-97.5 -34t-97.5 34.5t-35.5 92.5z" />
    <glyph glyph-name="afii10105" unicode="&#x458;" horiz-adv-x="500" 
d="M80 -492q-84 0 -139 25v221q46 -18 86 -18q94 0 94 170v1208h266v-1243q0 -174 -80.5 -268.5t-226.5 -94.5zM111 1405q0 66 38.5 104.5t106.5 38.5q67 0 105 -39t38 -104q0 -67 -39 -105t-104 -38t-105 37t-40 106z" />
    <glyph glyph-name="afii10106" unicode="&#x459;" horiz-adv-x="1509" 
d="M922 678h94q223 0 328.5 -81t105.5 -245q0 -352 -442 -352h-355v899h-149q-20 -339 -64.5 -538t-119 -289t-197.5 -90q-75 0 -123 22v219q30 -10 61 -10q84 0 131 214.5t72 686.5h658v-436zM1176 346q0 71 -43 102t-136 31h-75v-280h79q85 0 130 33.5t45 113.5z" />
    <glyph glyph-name="afii10107" unicode="&#x45a;" horiz-adv-x="1505" 
d="M915 678h97q221 0 327.5 -81t106.5 -245q0 -352 -442 -352h-357v467h-268v-467h-266v1114h266v-434h268v434h268v-436zM1171 346q0 71 -43 102t-137 31h-76v-280h80q85 0 130.5 33.5t45.5 113.5z" />
    <glyph glyph-name="afii10108" unicode="&#x45b;" horiz-adv-x="1038" 
d="M936 0h-268v627q0 231 -123 231q-87 0 -126.5 -84.5t-39.5 -267.5v-506h-266v1204h-125v187h125v165h266v-165h246v-187h-246l-6 -194l-6 -90h14q37 81 100.5 123t145.5 42q153 0 231 -99t78 -290v-696z" />
    <glyph glyph-name="afii10109" unicode="&#x45c;" horiz-adv-x="965" 
d="M664 1114h280l-305 -528l324 -586h-293l-291 573v-573h-266v1114h266v-532zM379 1241v27q41 53 95 151t77 150h318v-21q-24 -43 -119 -138.5t-184 -168.5h-187z" />
    <glyph glyph-name="afii10110" unicode="&#x45e;" horiz-adv-x="913" 
d="M0 1114h276l154 -629q23 -84 37 -235h6q1 24 9 85.5t13 96.5t138 682h280l-319 -1194q-58 -220 -154 -316t-256 -96q-79 0 -141 17v223q41 -12 92 -12q134 0 176 176l19 70zM822 1565q-20 -168 -109.5 -246t-263.5 -78q-170 0 -255 76.5t-101 247.5h221
q11 -100 42.5 -135t98.5 -35q66 0 98.5 40t43.5 130h225z" />
    <glyph glyph-name="afii10193" unicode="&#x45f;" horiz-adv-x="1059" 
d="M113 0v1114h266v-899h299v899h268v-1114h-284v-397h-265v397h-284z" />
    <glyph glyph-name="afii10050" unicode="&#x490;" horiz-adv-x="844" 
d="M399 0h-270v1462h414v307h264v-542h-408v-1227z" />
    <glyph glyph-name="afii10098" unicode="&#x491;" horiz-adv-x="754" 
d="M379 0h-266v1114h340v307h264v-522h-338v-899z" />
    <glyph glyph-name="Wgrave" unicode="&#x1e80;" horiz-adv-x="1622" 
d="M1341 0h-340l-143 766q-33 157 -47 371l-8 -74l-41 -301l-139 -762h-340l-265 1462h267l131 -825q19 -124 51 -389q25 268 47 383l156 831h282l156 -831q31 -185 49 -385q35 296 51 391l127 825h269zM761 1579q-75 60 -176 160.5t-127 146.5v21h318q27 -60 80.5 -155.5
t91.5 -145.5v-27h-187z" />
    <glyph glyph-name="wgrave" unicode="&#x1e81;" horiz-adv-x="1479" 
d="M889 0l-111 647l-39 273h-4q-15 -133 -24 -192.5t-127 -727.5h-342l-222 1114h267l102 -614q18 -102 33 -299h6q2 53 14 161.5t17 139.5l110 612h342l109 -614q19 -98 33 -299h4q14 179 35 299l106 614h260l-223 -1114h-346zM712 1241q-75 60 -176 160.5t-127 146.5v21
h318q27 -60 80.5 -155.5t91.5 -145.5v-27h-187z" />
    <glyph glyph-name="Wacute" unicode="&#x1e82;" horiz-adv-x="1622" 
d="M1341 0h-340l-143 766q-33 157 -47 371l-8 -74l-41 -301l-139 -762h-340l-265 1462h267l131 -825q19 -124 51 -389q25 268 47 383l156 831h282l156 -831q31 -185 49 -385q35 296 51 391l127 825h269zM673 1579v27q41 53 95 151t77 150h318v-21q-24 -43 -119 -138.5
t-184 -168.5h-187z" />
    <glyph glyph-name="wacute" unicode="&#x1e83;" horiz-adv-x="1479" 
d="M889 0l-111 647l-39 273h-4q-15 -133 -24 -192.5t-127 -727.5h-342l-222 1114h267l102 -614q18 -102 33 -299h6q2 53 14 161.5t17 139.5l110 612h342l109 -614q19 -98 33 -299h4q14 179 35 299l106 614h260l-223 -1114h-346zM581 1241v27q41 53 95 151t77 150h318v-21
q-24 -43 -119 -138.5t-184 -168.5h-187z" />
    <glyph glyph-name="Wdieresis" unicode="&#x1e84;" horiz-adv-x="1622" 
d="M1341 0h-340l-143 766q-33 157 -47 371l-8 -74l-41 -301l-139 -762h-340l-265 1462h267l131 -825q19 -124 51 -389q25 268 47 383l156 831h282l156 -831q31 -185 49 -385q35 296 51 391l127 825h269zM479 1741q0 61 35 95t97 34t97.5 -35.5t35.5 -93.5q0 -57 -35.5 -92
t-97.5 -35t-97 33.5t-35 93.5zM877 1741q0 60 35 94.5t98 34.5q61 0 97 -34t36 -95q0 -59 -35.5 -93t-97.5 -34t-97.5 34.5t-35.5 92.5z" />
    <glyph glyph-name="wdieresis" unicode="&#x1e85;" horiz-adv-x="1479" 
d="M889 0l-111 647l-39 273h-4q-15 -133 -24 -192.5t-127 -727.5h-342l-222 1114h267l102 -614q18 -102 33 -299h6q2 53 14 161.5t17 139.5l110 612h342l109 -614q19 -98 33 -299h4q14 179 35 299l106 614h260l-223 -1114h-346zM407 1403q0 61 35 95t97 34t97.5 -35.5
t35.5 -93.5q0 -57 -35.5 -92t-97.5 -35t-97 33.5t-35 93.5zM805 1403q0 60 35 94.5t98 34.5q61 0 97 -34t36 -95q0 -59 -35.5 -93t-97.5 -34t-97.5 34.5t-35.5 92.5z" />
    <glyph glyph-name="Ygrave" unicode="&#x1ef2;" horiz-adv-x="961" 
d="M481 885l195 577h285l-347 -876v-586h-268v575l-346 887h287zM439 1579q-75 60 -176 160.5t-127 146.5v21h318q27 -60 80.5 -155.5t91.5 -145.5v-27h-187z" />
    <glyph glyph-name="ygrave" unicode="&#x1ef3;" horiz-adv-x="913" 
d="M0 1114h276l154 -629q23 -84 37 -235h6q1 24 9 85.5t13 96.5t138 682h280l-319 -1194q-58 -220 -154 -316t-256 -96q-79 0 -141 17v223q41 -12 92 -12q134 0 176 176l19 70zM408 1241q-75 60 -176 160.5t-127 146.5v21h318q27 -60 80.5 -155.5t91.5 -145.5v-27h-187z" />
    <glyph glyph-name="endash" unicode="&#x2013;" horiz-adv-x="973" 
d="M70 442v217h833v-217h-833z" />
    <glyph glyph-name="emdash" unicode="&#x2014;" horiz-adv-x="1579" 
d="M70 442v217h1437v-217h-1437z" />
    <glyph glyph-name="afii00208" unicode="&#x2015;" horiz-adv-x="1579" 
d="M70 442v217h1437v-217h-1437z" />
    <glyph glyph-name="underscoredbl" unicode="&#x2017;" horiz-adv-x="842" 
d="M846 -463h-850v139h850v-139zM846 -184h-850v139h850v-139z" />
    <glyph glyph-name="quoteleft" unicode="&#x2018;" horiz-adv-x="420" 
d="M35 961l-15 22q25 97 73 228t104 251h202q-31 -125 -61 -277t-39 -224h-264z" />
    <glyph glyph-name="quoteright" unicode="&#x2019;" horiz-adv-x="420" 
d="M385 1462l14 -22q-50 -197 -176 -479h-203q64 256 101 501h264z" />
    <glyph glyph-name="quotesinglbase" unicode="&#x201a;" horiz-adv-x="553" 
d="M430 215q-52 -202 -176 -479h-203q65 266 101 502h264z" />
    <glyph glyph-name="quotereversed" unicode="&#x201b;" horiz-adv-x="420" 
d="M299 1462q9 -70 38.5 -220t61.5 -281h-202q-59 127 -107.5 261t-69.5 218l15 22h264z" />
    <glyph glyph-name="quotedblleft" unicode="&#x201c;" horiz-adv-x="854" 
d="M455 983q31 118 83 254.5t93 224.5h203q-66 -267 -101 -501h-264zM20 983q25 97 73 228t104 251h202q-31 -125 -61 -277t-39 -224h-264z" />
    <glyph glyph-name="quotedblright" unicode="&#x201d;" horiz-adv-x="854" 
d="M399 1440q-50 -197 -176 -479h-203q64 256 101 501h264zM834 1440q-49 -192 -177 -479h-202q62 246 100 501h264z" />
    <glyph glyph-name="quotedblbase" unicode="&#x201e;" horiz-adv-x="987" 
d="M430 215q-52 -202 -176 -479h-203q65 266 101 502h264zM864 215q-52 -202 -176 -479h-203q65 266 101 502h264z" />
    <glyph glyph-name="dagger" unicode="&#x2020;" horiz-adv-x="1024" 
d="M911 940l-331 31l55 -971h-266l55 971l-311 -31v229l311 -30l-55 417h266l-55 -417l331 30v-229z" />
    <glyph glyph-name="daggerdbl" unicode="&#x2021;" horiz-adv-x="1024" 
d="M590 545l332 30v-229l-332 31l55 -377h-266l55 377l-332 -31v229l332 -30l-47 241l47 226l-332 -31v229l332 -30l-55 376h266l-55 -376l332 30v-229l-332 31l47 -226z" />
    <glyph glyph-name="bullet" unicode="&#x2022;" horiz-adv-x="750" 
d="M98 748q0 148 71.5 227.5t205.5 79.5q132 0 204 -80.5t72 -226.5q0 -145 -73 -226.5t-203 -81.5q-133 0 -205 81t-72 227z" />
    <glyph glyph-name="ellipsis" unicode="&#x2026;" horiz-adv-x="1659" 
d="M111 137q0 78 41.5 121t123.5 43t124 -42.5t42 -121.5q0 -78 -43.5 -121t-122.5 -43q-81 0 -123 43.5t-42 120.5zM664 137q0 78 41.5 121t123.5 43t124 -42.5t42 -121.5q0 -78 -43.5 -121t-122.5 -43q-81 0 -123 43.5t-42 120.5zM1217 137q0 78 41.5 121t123.5 43
t124 -42.5t42 -121.5q0 -78 -43.5 -121t-122.5 -43q-81 0 -123 43.5t-42 120.5z" />
    <glyph glyph-name="perthousand" unicode="&#x2030;" horiz-adv-x="2206" 
d="M647 1026q0 -226 -75.5 -343.5t-219.5 -117.5q-149 0 -219 115t-70 342q0 461 289 461q295 0 295 -457zM276 1024q0 -139 18 -202.5t60 -63.5t61 63.5t19 202.5t-19 202.5t-61 63.5t-60 -63.5t-18 -202.5zM1493 442q0 -226 -76.5 -343t-218.5 -117q-150 0 -220.5 114.5
t-70.5 341.5q0 461 291 461q295 0 295 -457zM1120 440q0 -139 19 -202.5t61 -63.5q80 0 80 266q0 265 -82 265q-41 0 -59.5 -63t-18.5 -202zM1772 440q0 -139 17.5 -202.5t59.5 -63.5t61 63.5t19 202.5q0 265 -80 265q-41 0 -59 -63t-18 -202zM2142 442q0 -226 -75.5 -343
t-219.5 -117q-149 0 -218.5 114.5t-69.5 341.5q0 461 288 461q295 0 295 -457zM1182 1462l-604 -1462h-207l604 1462h207z" />
    <glyph glyph-name="minute" unicode="&#x2032;" horiz-adv-x="504" 
d="M383 1462l-41 -528h-180l-41 528h262z" />
    <glyph glyph-name="second" unicode="&#x2033;" horiz-adv-x="913" 
d="M383 1462l-41 -528h-180l-41 528h262zM793 1462l-41 -528h-181l-41 528h263z" />
    <glyph glyph-name="guilsinglleft" unicode="&#x2039;" horiz-adv-x="653" 
d="M74 569l307 447l199 -111l-220 -348l220 -348l-199 -111l-307 445v26z" />
    <glyph glyph-name="guilsinglright" unicode="&#x203a;" horiz-adv-x="653" 
d="M580 543l-308 -445l-198 111l219 348l-219 348l198 111l308 -447v-26z" />
    <glyph glyph-name="exclamdbl" unicode="&#x203c;" horiz-adv-x="1110" 
d="M942 471h-219l-49 991h319zM666 137q0 78 41.5 121t123.5 43t124 -42.5t42 -121.5q0 -78 -43.5 -121t-122.5 -43q-81 0 -123 43.5t-42 120.5zM387 471h-219l-49 991h319zM111 137q0 78 41.5 121t123.5 43t124 -42.5t42 -121.5q0 -78 -43.5 -121t-122.5 -43
q-81 0 -123 43.5t-42 120.5z" />
    <glyph glyph-name="fraction" unicode="&#x2044;" horiz-adv-x="201" 
d="M573 1462l-743 -1462h-203l742 1462h204z" />
    <glyph glyph-name="nsuperior" unicode="&#x207f;" horiz-adv-x="752" 
d="M481 770v412q0 75 -19.5 108t-64.5 33q-69 0 -95 -47.5t-26 -165.5v-340h-174v692h136l22 -84h10q58 101 181 101q206 0 206 -250v-459h-176z" />
    <glyph glyph-name="franc" unicode="&#x20a3;" horiz-adv-x="948" 
d="M451 432h204v-170h-204v-262h-269v262h-135v170h135v1030h654v-235h-385v-373h358v-236h-358v-186z" />
    <glyph glyph-name="afii08941" unicode="&#x20a4;" horiz-adv-x="948" 
d="M598 1483q157 0 283 -72l-84 -211q-92 53 -183 53q-114 0 -114 -186v-129h243v-168h-243v-123h243v-168h-245v-8q0 -52 -14.5 -90t-36 -66.5t-78.5 -72.5h534v-242h-827v229q92 47 124.5 103t32.5 139v8h-155v168h155v123h-155v168h155v135q0 200 94.5 305t270.5 105z
" />
    <glyph glyph-name="peseta" unicode="&#x20a7;" horiz-adv-x="1495" 
d="M1331 188q52 0 109 25v-193q-84 -40 -195 -40q-120 0 -182 80.5t-62 238.5v352h-129v103l142 96l80 227h153v-231h183v-195h-183v-329q0 -72 21 -103t63 -31zM897 1012q0 -233 -124.5 -357.5t-358.5 -124.5h-23v-530h-266v1462h311q461 0 461 -450zM391 766h29
q104 0 156.5 56t52.5 182q0 114 -46.5 168.5t-146.5 54.5h-45v-461z" />
    <glyph glyph-name="Euro" unicode="&#x20ac;" horiz-adv-x="948" 
d="M659 1247q-85 0 -140.5 -77.5t-78.5 -223.5h295v-168h-309v-123h264v-168h-248q51 -268 232 -268q108 0 233 74v-242q-109 -71 -262 -71q-194 0 -315 129.5t-158 377.5h-131v168h117v123h-117v168h129q38 263 162 401t315 138q87 0 151.5 -16.5t129.5 -53.5l-90 -215
q-96 47 -179 47z" />
    <glyph glyph-name="afii61248" unicode="&#x2105;" horiz-adv-x="1481" 
d="M1120 1462l-604 -1462h-209l604 1462h209zM1370 342q0 -167 -74.5 -263.5t-208.5 -96.5q-124 0 -201 97.5t-77 262.5q0 167 75 262.5t208 95.5q125 0 201.5 -98.5t76.5 -259.5zM1008 342q0 -100 18.5 -153.5t63.5 -53.5q81 0 81 207q0 102 -19 153.5t-62 51.5
q-45 0 -63.5 -51.5t-18.5 -153.5zM406 762q-135 0 -210 92t-75 260q0 172 72.5 265.5t214.5 93.5q90 0 167 -48l-36 -145q-67 39 -113 39q-107 0 -107 -203q0 -198 103 -198q82 0 139 40v-153q-66 -43 -155 -43z" />
    <glyph glyph-name="afii61289" unicode="&#x2113;" horiz-adv-x="1012" 
d="M618 176q52 0 88.5 49.5t41.5 153.5h186q-11 -209 -95 -303t-251 -94q-169 0 -260.5 103t-91.5 290v147l-185 -51v182q72 18 185 56v428q0 177 85.5 260.5t260.5 83.5q146 0 229.5 -86.5t83.5 -233.5q0 -173 -86 -294t-305 -234v-264q0 -93 29 -143t85 -50zM657 1155
q0 150 -75 150q-39 0 -58.5 -34.5t-19.5 -115.5v-324q81 47 117 126.5t36 197.5z" />
    <glyph glyph-name="afii61352" unicode="&#x2116;" horiz-adv-x="1755" 
d="M1024 0h-340l-330 1102h-10q18 -252 18 -387v-715h-233v1462h340l326 -1093h8q-12 280 -12 374v719h233v-1462zM1686 635q0 -183 -75.5 -272t-207.5 -89q-283 0 -283 361q0 172 74 266t211 94t209 -92t72 -268zM1309 635q0 -205 94 -205q51 0 72.5 51t21.5 154
q0 105 -22.5 155t-71.5 50q-94 0 -94 -205zM1636 0h-465v180h465v-180z" />
    <glyph glyph-name="trademark" unicode="&#x2122;" horiz-adv-x="1366" 
d="M336 741h-154v580h-170v141h494v-141h-170v-580zM827 741l-122 533h-7l4 -189v-344h-149v721h242l106 -489l117 489h239v-721h-153v452l2 81h-4l-127 -533h-148z" />
    <glyph glyph-name="Omega" unicode="&#x2126;" horiz-adv-x="1229" 
d="M614 1245q-131 0 -189 -112t-58 -324q0 -195 42 -330t136 -243v-236h-508v242h289q-238 229 -238 604q0 296 139.5 467.5t386.5 171.5q245 0 385 -171t140 -470q0 -372 -234 -602h287v-242h-504v236q89 103 130.5 239t41.5 336q0 211 -58 322.5t-188 111.5z" />
    <glyph glyph-name="estimated" unicode="&#x212e;" horiz-adv-x="942" 
d="M471 -20q-189 0 -292 141t-103 424q0 175 51 302t141.5 195t202.5 68q113 0 204.5 -71t141 -200.5t49.5 -293.5h-561v-422q70 -57 166 -57t163 51.5t128 181.5l74 -37q-67 -149 -157 -215.5t-208 -66.5zM639 631v330q-77 65 -170 65q-91 0 -164 -61v-334h334z" />
    <glyph glyph-name="oneeighth" unicode="&#x215b;" horiz-adv-x="1597" 
d="M1204 894q125 0 196.5 -62t71.5 -164q0 -66 -31 -115.5t-96 -90.5q90 -57 123 -108t33 -114q0 -114 -81.5 -189t-215.5 -75q-138 0 -218.5 69t-80.5 189q0 68 32.5 120.5t108.5 98.5q-114 90 -114 215q0 103 75.5 164.5t196.5 61.5zM1091 234q0 -48 27.5 -78t81.5 -30
q56 0 84.5 30t28.5 78q0 44 -29.5 75t-95.5 58q-47 -23 -72 -54t-25 -79zM1202 744q-40 0 -63 -24.5t-23 -59.5q0 -31 17 -57t71 -62q50 30 68 57.5t18 61.5q0 35 -21.5 59.5t-66.5 24.5zM1222 1462l-743 -1462h-203l742 1462h204zM493 586h-197v461l3 112l5 96
q-7 -10 -22 -24t-131 -113l-92 117l272 227h162v-876z" />
    <glyph glyph-name="threeeighths" unicode="&#x215c;" horiz-adv-x="1597" 
d="M1239 894q125 0 196.5 -62t71.5 -164q0 -66 -31 -115.5t-96 -90.5q90 -57 123 -108t33 -114q0 -114 -81.5 -189t-215.5 -75q-138 0 -218.5 69t-80.5 189q0 68 32.5 120.5t108.5 98.5q-114 90 -114 215q0 103 75.5 164.5t196.5 61.5zM1126 234q0 -48 27.5 -78t81.5 -30
q56 0 84.5 30t28.5 78q0 44 -29.5 75t-95.5 58q-47 -23 -72 -54t-25 -79zM1237 744q-40 0 -63 -24.5t-23 -59.5q0 -31 17 -57t71 -62q50 30 68 57.5t18 61.5q0 35 -21.5 59.5t-66.5 24.5zM592 1251q0 -149 -148 -200v-11q89 -21 131.5 -78.5t42.5 -130.5q0 -121 -78 -191.5
t-229 -70.5q-156 0 -244 56v176q106 -72 230 -72q135 0 135 117q0 112 -154 112h-98v150h84q73 0 110.5 27.5t37.5 89.5q0 43 -24 68.5t-71 25.5q-44 0 -82.5 -19t-87.5 -59l-86 133q71 59 137 83t140 24q111 0 182.5 -62.5t71.5 -167.5zM1257 1462l-743 -1462h-203
l742 1462h204z" />
    <glyph glyph-name="fiveeighths" unicode="&#x215d;" horiz-adv-x="1597" 
d="M1235 894q125 0 196.5 -62t71.5 -164q0 -66 -31 -115.5t-96 -90.5q90 -57 123 -108t33 -114q0 -114 -81.5 -189t-215.5 -75q-138 0 -218.5 69t-80.5 189q0 68 32.5 120.5t108.5 98.5q-114 90 -114 215q0 103 75.5 164.5t196.5 61.5zM1122 234q0 -48 27.5 -78t81.5 -30
q56 0 84.5 30t28.5 78q0 44 -29.5 75t-95.5 58q-47 -23 -72 -54t-25 -79zM1233 744q-40 0 -63 -24.5t-23 -59.5q0 -31 17 -57t71 -62q50 30 68 57.5t18 61.5q0 35 -21.5 59.5t-66.5 24.5zM349 1141q123 0 191.5 -70t68.5 -199q0 -143 -77.5 -223t-235.5 -80q-135 0 -221 52
v170q115 -62 211 -62q139 0 139 137q0 66 -34.5 96.5t-106.5 30.5q-67 0 -119 -18l-78 43l33 444h436v-172h-297l-12 -157q53 8 102 8zM1253 1462l-743 -1462h-203l742 1462h204z" />
    <glyph glyph-name="seveneighths" unicode="&#x215e;" horiz-adv-x="1597" 
d="M1155 894q125 0 196.5 -62t71.5 -164q0 -66 -31 -115.5t-96 -90.5q90 -57 123 -108t33 -114q0 -114 -81.5 -189t-215.5 -75q-138 0 -218.5 69t-80.5 189q0 68 32.5 120.5t108.5 98.5q-114 90 -114 215q0 103 75.5 164.5t196.5 61.5zM1042 234q0 -48 27.5 -78t81.5 -30
q56 0 84.5 30t28.5 78q0 44 -29.5 75t-95.5 58q-47 -23 -72 -54t-25 -79zM1153 744q-40 0 -63 -24.5t-23 -59.5q0 -31 17 -57t71 -62q50 30 68 57.5t18 61.5q0 35 -21.5 59.5t-66.5 24.5zM1173 1462l-743 -1462h-203l742 1462h204zM141 586l297 704h-383v172h580v-139
l-287 -737h-207z" />
    <glyph glyph-name="partialdiff" unicode="&#x2202;" horiz-adv-x="1178" 
d="M1108 922q0 -257 -84.5 -480.5t-229 -342.5t-333.5 -119q-194 0 -297 105t-103 310q0 174 74 328.5t195.5 231.5t279.5 77q119 0 207 -61v14q-16 266 -215 266q-58 0 -135 -27.5t-152 -78.5v252q160 84 326 84q224 0 345.5 -141t121.5 -418zM473 205q109 0 198.5 138.5
t123.5 356.5q-16 59 -59.5 91t-102.5 32q-76 0 -137 -56.5t-100.5 -167t-39.5 -226.5q0 -168 117 -168z" />
    <glyph glyph-name="Delta" unicode="&#x2206;" horiz-adv-x="1085" 
d="M35 160l321 1308h371l324 -1308v-160h-1016v160zM541 1266q-37 -222 -68 -346l-154 -680h443q-188 851 -202 915.5t-19 110.5z" />
    <glyph glyph-name="product" unicode="&#x220f;" horiz-adv-x="1485" 
d="M1036 -463v1686h-587v-1686h-293v1925h1173v-1925h-293z" />
    <glyph glyph-name="summation" unicode="&#x2211;" horiz-adv-x="1288" 
d="M43 -463v158l586 850l-570 762v155h1151v-235h-770l508 -676l-532 -778h856v-236h-1229z" />
    <glyph glyph-name="minus" unicode="&#x2212;" horiz-adv-x="918" 
d="M106 618v207h705v-207h-705z" />
    <glyph glyph-name="radical" unicode="&#x221a;" horiz-adv-x="1110" 
d="M653 -14h-172l-270 745h-176v199h319l211 -586l494 1401h205z" />
    <glyph glyph-name="infinity" unicode="&#x221e;" horiz-adv-x="1427" 
d="M1323 717q0 -141 -89.5 -237.5t-221.5 -96.5q-180 0 -303 184q-59 -82 -136.5 -130t-152.5 -48q-141 0 -228.5 92t-87.5 242q0 144 89.5 238t226.5 94q178 0 295 -183q126 179 297 179q137 0 224 -91t87 -243zM430 578q50 0 92.5 35t85.5 110q-40 72 -83 108.5t-97 36.5
q-58 0 -95.5 -41t-37.5 -106q0 -63 36.5 -103t98.5 -40zM997 862q-93 0 -180 -143q88 -148 182 -148q57 0 95.5 41.5t38.5 106.5q0 63 -38.5 103t-97.5 40z" />
    <glyph glyph-name="integral" unicode="&#x222b;" horiz-adv-x="834" 
d="M680 1323q-60 0 -90.5 -43t-30.5 -113v-1284q0 -182 -94.5 -278.5t-278.5 -96.5q-106 0 -182 37v234q85 -37 150 -37q122 0 122 160v1280q0 186 95.5 280t275.5 94q108 0 182 -36v-234q-85 37 -149 37z" />
    <glyph glyph-name="approxequal" unicode="&#x2248;" horiz-adv-x="918" 
d="M264 486q-88 0 -190 -121v219q90 109 207 109q43 0 80.5 -10.5t123.5 -53.5q67 -34 99 -44.5t73 -10.5q87 0 187 121v-219q-81 -109 -207 -109q-51 0 -99.5 16.5t-107.5 47.5q-82 41 -108 48t-58 7zM264 877q-88 0 -190 -121v219q90 109 207 109q43 0 80.5 -10.5
t123.5 -53.5q67 -34 99 -44.5t73 -10.5q87 0 187 121v-219q-81 -109 -207 -109q-51 0 -99.5 16.5t-107.5 47.5q-82 41 -108 48t-58 7z" />
    <glyph glyph-name="notequal" unicode="&#x2260;" horiz-adv-x="918" 
d="M440 422l-88 -250l-151 53l67 197h-162v207h234l66 186h-300v205h369l90 254l152 -53l-70 -201h164v-205h-233l-68 -186h301v-207h-371z" />
    <glyph glyph-name="lessequal" unicode="&#x2264;" horiz-adv-x="918" 
d="M106 0v207h705v-207h-705zM106 645v156l705 434v-225l-487 -287l487 -289v-225z" />
    <glyph glyph-name="greaterequal" unicode="&#x2265;" horiz-adv-x="918" 
d="M106 0v207h705v-207h-705zM106 434l488 289l-488 287v225l705 -434v-156l-705 -436v225z" />
    <glyph glyph-name="lozenge" unicode="&#x25ca;" horiz-adv-x="1178" 
d="M1092 735l-451 -735h-106l-451 735l451 738h106zM844 735l-256 430l-256 -430l256 -430z" />
    <glyph glyph-name="cyrillicbreve" horiz-adv-x="1147" 
d="M938 1565q-20 -168 -109.5 -246t-263.5 -78q-170 0 -255 76.5t-101 247.5h221q11 -100 42.5 -135t98.5 -35q66 0 98.5 40t43.5 130h225z" />
    <glyph glyph-name="dotlessj" unicode="&#x237;" horiz-adv-x="500" 
d="M80 -492q-84 0 -139 25v221q46 -18 86 -18q94 0 94 170v1208h266v-1243q0 -174 -80.5 -268.5t-226.5 -94.5z" />
    <glyph glyph-name="caroncommaaccent" horiz-adv-x="956" 
d="M324 1255q45 169 61 301h262v-20q-75 -171 -162 -307h-161v26z" />
    <glyph glyph-name="commaaccent" horiz-adv-x="956" 
d="M319 -426q20 66 39.5 154.5t26.5 146.5h262v-20q-76 -176 -166 -308h-162v27z" />
    <glyph glyph-name="commaaccentrotate" horiz-adv-x="956" 
d="M639 1542q-20 -66 -39.5 -154.5t-26.5 -146.5h-264v21q68 159 166 307h164v-27z" />
    <glyph glyph-name="zerosuperior" unicode="&#x2070;" horiz-adv-x="688" 
d="M250 1024q0 -134 21.5 -200t72.5 -66q50 0 73 65t23 201q0 134 -23 199t-73 65q-51 0 -72.5 -65t-21.5 -199zM649 1026q0 -230 -77.5 -345.5t-229.5 -115.5q-144 0 -222.5 120t-78.5 341q0 457 301 457q146 0 226.5 -117t80.5 -340z" />
    <glyph glyph-name="foursuperior" unicode="&#x2074;" horiz-adv-x="688" 
d="M672 745h-111v-159h-196v159h-345v146l347 577h194v-563h111v-160zM365 905v170l4 187q-12 -33 -34.5 -84t-35.5 -72l-121 -201h187z" />
    <glyph glyph-name="fivesuperior" unicode="&#x2075;" horiz-adv-x="688" 
d="M352 1141q123 0 191.5 -70t68.5 -199q0 -143 -77.5 -223t-235.5 -80q-135 0 -221 52v170q115 -62 211 -62q139 0 139 137q0 66 -34.5 96.5t-106.5 30.5q-67 0 -119 -18l-78 43l33 444h436v-172h-297l-12 -157q53 8 102 8z" />
    <glyph glyph-name="sixsuperior" unicode="&#x2076;" horiz-adv-x="688" 
d="M45 973q0 254 108 381t310 127q67 0 112 -15v-168q-39 15 -90 15q-125 0 -189 -62t-69 -196h9q65 98 174 98q106 0 170.5 -71t64.5 -201q0 -137 -80.5 -224.5t-210.5 -87.5q-144 0 -226.5 108t-82.5 296zM346 735q50 0 81.5 38t31.5 108q0 58 -26.5 93.5t-82.5 35.5
q-51 0 -86 -33.5t-35 -81.5q0 -70 33 -115t84 -45z" />
    <glyph glyph-name="sevensuperior" unicode="&#x2077;" horiz-adv-x="688" 
d="M141 586l297 704h-383v172h580v-139l-287 -737h-207z" />
    <glyph glyph-name="eightsuperior" unicode="&#x2078;" horiz-adv-x="688" 
d="M346 1483q125 0 196.5 -62t71.5 -164q0 -66 -31 -115.5t-96 -90.5q90 -57 123 -108t33 -114q0 -114 -81.5 -189t-215.5 -75q-138 0 -218.5 69t-80.5 189q0 68 32.5 120.5t108.5 98.5q-114 90 -114 215q0 103 75.5 164.5t196.5 61.5zM233 823q0 -48 27.5 -78t81.5 -30
q56 0 84.5 30t28.5 78q0 44 -29.5 75t-95.5 58q-47 -23 -72 -54t-25 -79zM344 1333q-40 0 -63 -24.5t-23 -59.5q0 -31 17 -57t71 -62q50 30 68 57.5t18 61.5q0 35 -21.5 59.5t-66.5 24.5z" />
    <glyph glyph-name="ninesuperior" unicode="&#x2079;" horiz-adv-x="688" 
d="M639 1077q0 -252 -107 -380t-311 -128q-67 0 -112 15v168q39 -15 90 -15q125 0 189 62t69 196h-6q-65 -98 -177 -98q-106 0 -170.5 71t-64.5 201q0 137 80.5 224.5t210.5 87.5q144 0 226.5 -108t82.5 -296zM338 1315q-50 0 -81.5 -38t-31.5 -108q0 -58 26.5 -93.5
t82.5 -35.5q51 0 86 33.5t35 81.5q0 70 -33 115t-84 45z" />
    <glyph glyph-name="uni2000" unicode="&#x2000;" horiz-adv-x="1024" 
 />
    <glyph glyph-name="uni2001" unicode="&#x2001;" horiz-adv-x="2048" 
 />
    <glyph glyph-name="uni2002" unicode="&#x2002;" horiz-adv-x="1024" 
 />
    <glyph glyph-name="uni2003" unicode="&#x2003;" horiz-adv-x="2048" 
 />
    <glyph glyph-name="uni2004" unicode="&#x2004;" horiz-adv-x="682" 
 />
    <glyph glyph-name="uni2005" unicode="&#x2005;" horiz-adv-x="512" 
 />
    <glyph glyph-name="uni2006" unicode="&#x2006;" horiz-adv-x="342" 
 />
    <glyph glyph-name="uni2007" unicode="&#x2007;" horiz-adv-x="1145" 
 />
    <glyph glyph-name="uni2008" unicode="&#x2008;" horiz-adv-x="578" 
 />
    <glyph glyph-name="uni2009" unicode="&#x2009;" horiz-adv-x="410" 
 />
    <glyph glyph-name="uni200A" unicode="&#x200a;" horiz-adv-x="205" 
 />
    <glyph glyph-name="uni200B" unicode="&#x200b;" horiz-adv-x="0" 
 />
    <glyph glyph-name="uniFEFF" unicode="&#xfeff;" horiz-adv-x="0" 
 />
    <glyph glyph-name="uniFFFC" unicode="&#xfffc;" horiz-adv-x="2034" 
d="M76 1214v304h303v-111h-193v-193h-110zM1673 1407v111h303v-304h-108v193h-195zM76 -383v303h110v-194h193v-109h-303zM1673 -383v109h195v194h108v-303h-303zM1282 -383v109h272v-109h-272zM500 -383v109h270v-109h-270zM500 1407v111h270v-111h-270zM1976 39h-108v270
h108v-270zM1976 823h-108v271h108v-271zM891 -383v109h272v-109h-272zM186 39h-110v270h110v-270zM891 1407v111h272v-111h-272zM1282 1407v111h272v-111h-272zM186 430h-110v272h110v-272zM186 823h-110v271h110v-271zM1976 430h-108v272h108v-272zM856 629
q0 -145 -67.5 -223t-194.5 -78t-194.5 78t-67.5 223q0 146 67.5 223.5t194.5 77.5q126 0 194 -77t68 -224zM459 629q0 -197 135 -197t135 197q0 196 -135 196t-135 -196zM940 922h172q109 0 165 -33.5t56 -116.5q0 -49 -23.5 -82t-66.5 -41v-8q61 -14 84 -48t23 -87
q0 -81 -54.5 -125.5t-148.5 -44.5h-207v586zM1063 690h65q47 0 64.5 17t17.5 49q0 34 -20.5 48.5t-67.5 14.5h-59v-129zM1063 592v-154h74q49 0 67.5 21.5t18.5 58.5q0 74 -90 74h-70zM1483 330q-52 0 -80 10v102q40 -8 67 -8q86 0 86 86v402h125v-398q0 -95 -52.5 -144.5
t-145.5 -49.5z" />
    <glyph glyph-name="uniFFFD" unicode="&#xfffd;" horiz-adv-x="2032" 
d="M1014 1556l940 -938l-940 -937l-938 937zM1079 367v47q0 50 22 82.5t87 81.5q103 82 139.5 145t36.5 151q0 135 -93.5 212t-258.5 77q-79 0 -172 -28t-164 -70l82 -178q160 80 250 80q63 0 94 -29t31 -76q0 -53 -24.5 -90.5t-96.5 -91.5q-79 -63 -111.5 -120t-32.5 -134
v-59h211zM842 92q0 -63 35.5 -99t105.5 -36q66 0 102.5 36.5t36.5 98.5q0 64 -36 100.5t-103 36.5q-72 0 -106.5 -36t-34.5 -101z" />
    <glyph glyph-name="uni01F0" unicode="&#x1f0;" horiz-adv-x="500" 
d="M80 -492q-84 0 -139 25v221q46 -18 86 -18q94 0 94 170v1208h266v-1243q0 -174 -80.5 -268.5t-226.5 -94.5zM610 1569v-27q-165 -208 -217 -301h-277q-44 82 -217 301v27h168q95 -69 190 -178q93 103 185 178h168z" />
    <glyph glyph-name="uni02BC" unicode="&#x2bc;" horiz-adv-x="420" 
d="M385 1462l14 -22q-50 -197 -176 -479h-203q64 256 101 501h264z" />
    <glyph glyph-name="uni03D1" unicode="&#x3d1;" horiz-adv-x="1106" 
d="M508 -20q-164 0 -251 86.5t-87 246.5q0 51 6 105t6 94q0 63 -47 63q-31 0 -69 -20l-66 176q48 29 98 46.5t115 17.5q101 0 162 -60t61 -162q0 -66 -6 -123t-6 -120q0 -60 21 -91.5t73 -31.5q87 0 126.5 123t39.5 372v35l-2 35q-251 14 -391.5 129t-140.5 313
q0 167 98 266t268 99q196 0 302 -142t130 -450h139v-211h-131v-24q0 -772 -448 -772zM678 987q-17 377 -168 377q-43 0 -68.5 -34t-25.5 -99q0 -116 69.5 -179t192.5 -65z" />
    <glyph glyph-name="uni03D2" unicode="&#x3d2;" horiz-adv-x="1006" 
d="M481 885q77 247 134.5 369t122.5 171.5t163 49.5q48 0 100 -15v-215q-12 4 -34 4q-59 0 -106.5 -63.5t-120 -252.5t-126.5 -384v-549h-268v575l-346 887h287z" />
    <glyph glyph-name="uni03D6" unicode="&#x3d6;" horiz-adv-x="1579" 
d="M1333 899q56 -181 56 -358q0 -266 -89 -413.5t-251 -147.5q-105 0 -165 54t-89 148h-11q-33 -104 -96 -153t-160 -49q-165 0 -252.5 148.5t-87.5 412.5q0 175 56 358h-209v119l137 96h1370v-215h-209zM1120 547q0 178 -45 352h-571q-47 -174 -47 -352q0 -346 104 -346
q54 0 76 59t22 184v154h261v-154q0 -125 21.5 -184t74.5 -59q104 0 104 346z" />
    <glyph glyph-name="uni1E3E" unicode="&#x1e3e;" horiz-adv-x="1606" 
d="M651 0l-278 1245h-11q19 -144 19 -264v-981h-252v1462h418l250 -1149h8l248 1149h424v-1462h-258v991q0 123 14 252h-8l-277 -1243h-297zM673 1581v27q41 53 95 151t77 150h318v-21q-24 -43 -119 -138.5t-184 -168.5h-187z" />
    <glyph glyph-name="uni1E3F" unicode="&#x1e3f;" horiz-adv-x="1589" 
d="M1219 0v664q0 245 -121 245q-88 0 -126 -87.5t-38 -280.5v-541h-268v664q0 245 -123 245q-86 0 -125 -87t-39 -287v-535h-266v1114h211l32 -143h17q40 85 109.5 124.5t148.5 39.5q204 0 272 -193h10q85 193 273 193q148 0 224.5 -104t76.5 -304v-727h-268zM682 1241v27
q41 53 95 151t77 150h318v-21q-24 -43 -119 -138.5t-184 -168.5h-187z" />
    <glyph glyph-name="uni1E00" unicode="&#x1e00;" horiz-adv-x="1094" 
d="M821 0l-84 369h-381l-84 -369h-272l362 1468h369l363 -1468h-273zM686 610l-78 340q-7 31 -31.5 155.5t-29.5 166.5q-13 -86 -33 -189.5t-104 -472.5h276zM793 -356q0 -107 -69.5 -171.5t-180.5 -64.5q-110 0 -176 63t-66 171q0 107 66 170t176 63q109 0 179.5 -64
t70.5 -167zM643 -358q0 46 -28.5 73t-71.5 27q-44 0 -71.5 -27t-27.5 -73q0 -99 99 -99q43 0 71.5 26t28.5 73z" />
    <glyph glyph-name="uni1E01" unicode="&#x1e01;" horiz-adv-x="956" 
d="M659 0l-53 152h-6q-59 -98 -122 -135t-159 -37q-123 0 -193.5 92t-70.5 256q0 176 96.5 261.5t288.5 94.5l148 6v80q0 156 -135 156q-100 0 -230 -78l-92 184q166 105 361 105q177 0 269.5 -101.5t92.5 -287.5v-748h-195zM428 188q73 0 116.5 65.5t43.5 174.5v94l-82 -4
q-91 -5 -133.5 -52t-42.5 -140q0 -138 98 -138zM723 -356q0 -107 -69.5 -171.5t-180.5 -64.5q-110 0 -176 63t-66 171q0 107 66 170t176 63q109 0 179.5 -64t70.5 -167zM573 -358q0 46 -28.5 73t-71.5 27q-44 0 -71.5 -27t-27.5 -73q0 -99 99 -99q43 0 71.5 26t28.5 73z" />
    <glyph glyph-name="uni1F4D" unicode="&#x1f4d;" horiz-adv-x="1624" 
d="M1541 733q0 -363 -136 -558t-389 -195q-254 0 -390 194.5t-136 560.5q0 363 136 556.5t392 193.5q253 0 388 -194.5t135 -557.5zM768 733q0 -250 63 -381t185 -131q246 0 246 512t-244 512q-124 0 -187 -130.5t-63 -381.5zM-101 1264q0 82 72.5 137.5t209.5 77.5v-74
q-71 -22 -104 -41.5t-33 -48.5q0 -18 18 -27t39.5 -17.5t39.5 -21.5t18 -41q0 -80 -123 -80q-59 0 -98 34t-39 102zM233 1163l42 146l41 155h250v-20q-46 -105 -209 -307h-124v26z" />
    <glyph glyph-name="uni02F3" unicode="&#x2f3;" horiz-adv-x="666" 
d="M578 -356q0 -107 -69.5 -171.5t-180.5 -64.5q-110 0 -176 63t-66 171q0 107 66 170t176 63q109 0 179.5 -64t70.5 -167zM428 -358q0 46 -28.5 73t-71.5 27q-44 0 -71.5 -27t-27.5 -73q0 -99 99 -99q43 0 71.5 26t28.5 73z" />
    <glyph glyph-name="dasiaoxia" horiz-adv-x="803" 
d="M115 1264q0 82 72.5 137.5t209.5 77.5v-74q-71 -22 -104 -41.5t-33 -48.5q0 -18 18 -27t39.5 -17.5t39.5 -21.5t18 -41q0 -80 -123 -80q-59 0 -98 34t-39 102zM449 1163l42 146l41 155h250v-20q-46 -105 -209 -307h-124v26z" />
    <glyph glyph-name="Ohorn" unicode="&#x1a0;" horiz-adv-x="1311" 
d="M1135 733q0 -363 -136 -558t-389 -195q-254 0 -390 194.5t-136 560.5q0 363 136 556.5t392 193.5q246 0 385 -191q68 66 72 262h281l14 -22q-35 -167 -103.5 -265.5t-179.5 -146.5q54 -172 54 -389zM362 733q0 -250 63 -381t185 -131q246 0 246 512t-244 512
q-124 0 -187 -130.5t-63 -381.5z" />
    <glyph glyph-name="ohorn" unicode="&#x1a1;" horiz-adv-x="1120" 
d="M938 559q0 -274 -116 -426.5t-318 -152.5q-128 0 -226 70t-151 201.5t-53 307.5q0 271 115 423.5t319 152.5q167 0 280 -117q97 63 101 264h280l15 -22q-37 -174 -107.5 -264t-189.5 -136q51 -126 51 -301zM346 559q0 -174 38 -263t122 -89q160 0 160 352
q0 175 -38.5 261.5t-121.5 86.5q-84 0 -122 -86.5t-38 -261.5z" />
    <glyph glyph-name="Uhorn" unicode="&#x1af;" horiz-adv-x="1382" 
d="M1028 1462v-192q150 40 150 286h282l15 -22q-32 -153 -85 -235t-140.5 -132t-221.5 -69v-582q0 -261 -118 -398.5t-341 -137.5q-218 0 -332 136.5t-114 403.5v942h270v-962q0 -279 185 -279q90 0 135 72.5t45 202.5v966h270z" />
    <glyph glyph-name="uhorn" unicode="&#x1b0;" horiz-adv-x="1311" 
d="M715 0l-33 143h-14q-37 -76 -105.5 -119.5t-156.5 -43.5q-150 0 -227 102t-77 305v727h269v-663q0 -122 29 -184t94 -62q86 0 125.5 86t39.5 289v534h269v-119q149 45 149 287h283l14 -22q-32 -153 -85 -235.5t-141 -133t-220 -68.5v-823h-213z" />
    <glyph glyph-name="uni0300" unicode="&#x300;" horiz-adv-x="0" 
d="M-702 1241q-75 60 -176 160.5t-127 146.5v21h318q27 -60 80.5 -155.5t91.5 -145.5v-27h-187z" />
    <glyph glyph-name="uni0301" unicode="&#x301;" horiz-adv-x="0" 
d="M-790 1241v27q41 53 95 151t77 150h318v-21q-24 -43 -119 -138.5t-184 -168.5h-187z" />
    <glyph glyph-name="uni0303" unicode="&#x303;" horiz-adv-x="0" 
d="M-751 1348q-31 0 -49.5 -23.5t-28.5 -85.5h-141q11 153 68.5 227t150.5 74q43 0 77.5 -16.5t64.5 -36.5t58 -36.5t58 -16.5q34 0 49.5 26t26.5 82h141q-11 -152 -69.5 -226.5t-149.5 -74.5q-44 0 -78.5 16.5t-64 37t-56.5 37t-57 16.5z" />
    <glyph glyph-name="hook" unicode="&#x309;" horiz-adv-x="0" 
d="M-440 1487q0 -151 -162 -191l-10 -79h-162l-21 153q75 12 105.5 37t30.5 63q0 36 -25 53t-64 17q-59 0 -131 -20v155q55 21 164 21q275 0 275 -209z" />
    <glyph glyph-name="dotbelow" unicode="&#x323;" horiz-adv-x="0" 
d="M-868 -274q0 143 155 143q77 0 115.5 -38t38.5 -105q0 -69 -40 -105.5t-114 -36.5q-75 0 -115 35.5t-40 106.5z" />
    <glyph glyph-name="uni0400" unicode="&#x400;" horiz-adv-x="872" 
d="M788 0h-659v1462h659v-235h-387v-348h359v-236h-359v-405h387v-238zM437 1579q-75 60 -176 160.5t-127 146.5v21h318q27 -60 80.5 -155.5t91.5 -145.5v-27h-187z" />
    <glyph glyph-name="uni040D" unicode="&#x40d;" horiz-adv-x="1282" 
d="M129 1462h252v-803q0 -125 -19 -247h11l446 1050h334v-1462h-250v801q0 148 23 260h-13l-448 -1061h-336v1462zM628 1579q-75 60 -176 160.5t-127 146.5v21h318q27 -60 80.5 -155.5t91.5 -145.5v-27h-187z" />
    <glyph glyph-name="uni0450" unicode="&#x450;" horiz-adv-x="942" 
d="M524 -20q-209 0 -329.5 148.5t-120.5 420.5q0 276 109 431t304 155q182 0 287 -132.5t105 -371.5v-142h-535q3 -149 61 -221.5t160 -72.5q130 0 266 81v-219q-128 -77 -307 -77zM485 930q-57 0 -94 -60.5t-43 -187.5h270q-2 122 -37 185t-96 63zM445 1241
q-75 60 -176 160.5t-127 146.5v21h318q27 -60 80.5 -155.5t91.5 -145.5v-27h-187z" />
    <glyph glyph-name="uni045D" unicode="&#x45d;" horiz-adv-x="1137" 
d="M360 1114v-516q0 -96 -24 -319l362 835h326v-1114h-248v524q0 118 23 318l-363 -842h-323v1114h247zM515 1241q-75 60 -176 160.5t-127 146.5v21h318q27 -60 80.5 -155.5t91.5 -145.5v-27h-187z" />
    <glyph glyph-name="uni0460" unicode="&#x460;" horiz-adv-x="1700" 
d="M1149 1251q-43 0 -81.5 -13.5t-80.5 -51.5l-94 188q50 46 122.5 76.5t141.5 30.5q217 0 337 -188.5t120 -524.5q0 -372 -127 -580t-357 -208q-94 0 -158.5 28.5t-119.5 89.5h-8q-57 -63 -120.5 -90.5t-152.5 -27.5q-231 0 -358 206.5t-127 581.5q0 334 120.5 523.5
t336.5 189.5q69 0 140 -29t124 -78l-98 -188q-79 65 -158 65q-91 0 -145 -121.5t-54 -363.5q0 -257 65 -397t187 -140q54 0 111 64v412h266v-412q49 -64 115 -64q122 0 187 140.5t65 396.5q0 242 -54 363.5t-145 121.5z" />
    <glyph glyph-name="uni0461" unicode="&#x461;" horiz-adv-x="1462" 
d="M289 0l-289 1114h276l150 -698q12 -48 23 -166h8q28 138 41 182l125 395l-60 287h260l115 -659l31 -205h8q92 170 131 374.5t39 489.5h262q0 -350 -86 -623t-262 -491h-264l-84 395l-117 -395h-307z" />
    <glyph glyph-name="uni0462" unicode="&#x462;" horiz-adv-x="1063" 
d="M6 1339h213v217h273v-217h239v-215h-239v-233h65q213 0 330 -114.5t117 -325.5q0 -222 -116 -336.5t-343 -114.5h-326v1124h-213v215zM492 236h53q89 0 136.5 49t47.5 166q0 107 -45.5 154.5t-157.5 47.5h-34v-417z" />
    <glyph glyph-name="uni0463" unicode="&#x463;" horiz-adv-x="1065" 
d="M473 899v-221h143q388 0 388 -326q0 -175 -100 -263.5t-290 -88.5h-409v899h-203v215h203v205h268v-205h229v-215h-229zM731 346q0 71 -32 102t-97 31h-129v-280h131q127 0 127 147z" />
    <glyph glyph-name="uni0464" unicode="&#x464;" horiz-adv-x="1397" 
d="M1057 1245q-91 0 -156.5 -92t-87.5 -272h385v-240h-391q23 -422 262 -422q115 0 250 76v-242q-110 -73 -281 -73q-230 0 -361.5 171.5t-148.5 489.5h-127v-641h-272v1462h272v-581h134q27 291 160 446.5t347 155.5q95 0 170.5 -26.5t147.5 -74.5l-90 -221
q-121 84 -213 84z" />
    <glyph glyph-name="uni0465" unicode="&#x465;" horiz-adv-x="1309" 
d="M958 -20q-211 0 -320.5 120t-125.5 367h-133v-467h-266v1114h266v-434h137q28 228 144 341.5t309 113.5q153 0 286 -72l-75 -205q-56 28 -105 46t-100 18q-160 0 -189 -242h322v-213h-324q11 -137 55.5 -204.5t131.5 -67.5q72 0 132.5 21.5t123.5 55.5v-221
q-131 -71 -269 -71z" />
    <glyph glyph-name="uni0466" unicode="&#x466;" horiz-adv-x="1149" 
d="M719 641h-35v-641h-217v641h-37l-166 -641h-264l418 1466h311l420 -1466h-264zM483 846h179l-33 123q-31 110 -58 243q-7 -37 -17 -83t-71 -283z" />
    <glyph glyph-name="uni0467" unicode="&#x467;" horiz-adv-x="1014" 
d="M647 428h-41v-428h-198v428h-41l-117 -428h-248l348 1114h309l353 -1114h-250zM422 614h174l-43 138l-43 168h-8q-23 -103 -80 -306z" />
    <glyph glyph-name="uni0468" unicode="&#x468;" horiz-adv-x="1604" 
d="M1337 0l-163 641h-37v-641h-217v641h-37l-166 -641h-264l184 641h-244v-641h-264v1462h264v-581h312l167 585h310l420 -1466h-265zM936 846h180q-78 275 -90 366q-19 -104 -90 -366z" />
    <glyph glyph-name="uni0469" unicode="&#x469;" horiz-adv-x="1427" 
d="M823 426h-43l-114 -426h-248l139 444h-192v-444h-252v1114h252v-467h256l145 467h309l350 -1114h-247l-115 426h-41v-426h-199v426zM926 920h-8l-10 -44l-29 -122l-41 -142h174l-45 142q-5 14 -41 166z" />
    <glyph glyph-name="uni046A" unicode="&#x46a;" horiz-adv-x="1280" 
d="M1137 1462v-135l-291 -485q92 -26 140 -67.5t81.5 -115t65.5 -206.5l106 -453h-250l-88 397q-60 273 -121 273h-8v-670h-264v670h-8q-28 0 -60 -65t-63 -208l-86 -397h-250l106 453q34 139 67.5 211.5t81 112.5t134.5 65l-283 485v135h990zM836 1257h-390l195 -337z" />
    <glyph glyph-name="uni046B" unicode="&#x46b;" horiz-adv-x="1026" 
d="M936 1114v-102l-229 -369q79 -29 128.5 -97.5t82.5 -201.5l86 -344h-205l-80 338q-41 164 -88 164h-8v-502h-215v502h-9q-14 0 -41 -37.5t-49 -126.5l-80 -338h-206l88 344q29 118 77 193.5t134 107.5l-224 367v102h838zM662 936h-295l147 -262z" />
    <glyph glyph-name="uni046C" unicode="&#x46c;" horiz-adv-x="1690" 
d="M1563 1462v-135l-291 -485q114 -33 176.5 -118.5t107.5 -270.5l109 -453h-250l-88 397q-33 153 -60.5 208t-68.5 65v-670h-264v670q-44 -15 -73.5 -77t-57.5 -196l-86 -397h-252l108 453q34 135 74 204h-254v-657h-264v1462h264v-581h441l-261 446v135h990zM1262 1257
h-392l195 -337z" />
    <glyph glyph-name="uni046D" unicode="&#x46d;" horiz-adv-x="1442" 
d="M436 0l90 348q15 62 37 119h-209v-467h-241v1114h241v-434h361l-203 332v102h838v-102l-226 -369q79 -30 127.5 -100t81.5 -199l86 -344h-207l-79 338q-20 86 -38.5 125t-47.5 39h-9v-502h-217v502h-8q-24 0 -48 -45t-40 -119l-80 -338h-209zM930 674l147 262h-295z" />
    <glyph glyph-name="uni046E" unicode="&#x46e;" horiz-adv-x="1016" 
d="M326 -121q0 -90 86 -90q64 0 139 5l113 5q115 0 147 -43v-223q-33 29 -69.5 40t-92.5 11q-58 0 -144 -5q-87 -5 -143 -5q-142 0 -220.5 82.5t-78.5 226.5q0 165 91 243.5t270 78.5h8q238 0 238 229q0 213 -293 213h-129v223h117q143 0 210.5 49.5t67.5 157.5
q0 82 -41.5 129t-122.5 47q-76 0 -138 -26t-130 -88l-127 184q127 114 276 147q-58 101 -96 152l-78 102v21l160 4h12q51 -50 140 -170q65 110 121 151.5t122 41.5q60 0 111 -19v-151q-38 22 -80 22q-36 0 -74 -43.5t-59 -105.5q126 -30 202.5 -124t76.5 -223
q0 -142 -81.5 -235.5t-228.5 -126.5q155 -24 244.5 -115.5t89.5 -234.5q0 -201 -123 -318.5t-344 -117.5q-84 0 -116.5 -21.5t-32.5 -79.5z" />
    <glyph glyph-name="uni046F" unicode="&#x46f;" horiz-adv-x="866" 
d="M332 680q94 0 143 27.5t49 99.5q0 117 -141 117q-53 0 -107.5 -18t-125.5 -58l-95 199q110 55 189 73q-99 155 -144 211v21h168q72 -61 146 -160q64 106 119.5 145t117.5 39q43 0 107 -24v-142q-35 19 -84 19q-52 0 -103 -117q96 -36 148.5 -108t52.5 -164
q0 -86 -51 -149.5t-148 -96.5v-10q118 -39 171 -103t53 -159q0 -164 -110 -253t-312 -89q-51 0 -80.5 -10t-42 -29.5t-12.5 -59.5q0 -46 21.5 -67t74.5 -21q59 0 126 5l99 5q112 0 137 -45v-221q-34 32 -70.5 41.5t-76.5 9.5q-63 0 -127 -4t-139 -4q-136 0 -206.5 74
t-70.5 221q0 166 86.5 245t263.5 79t177 139q0 143 -195 143h-104v199h96z" />
    <glyph glyph-name="uni0470" unicode="&#x470;" horiz-adv-x="1452" 
d="M854 0h-256v438h-31q-237 0 -355 131.5t-118 409.5v483h256v-479q0 -168 53.5 -240.5t174.5 -72.5h20v792h256v-792h20q118 0 173 75.5t55 233.5v483h254v-479q0 -279 -117 -412t-356 -133h-29v-438z" />
    <glyph glyph-name="uni0471" unicode="&#x471;" horiz-adv-x="1354" 
d="M805 1556v-1368h4q95 0 150 102.5t55 323.5q0 225 -62 500h256q64 -283 64 -508q0 -624 -467 -624v-474h-246v474q-224 0 -340.5 126.5t-116.5 383.5v622h258v-627q0 -146 51.5 -222.5t147.5 -76.5v1368h246z" />
    <glyph glyph-name="uni0472" unicode="&#x472;" horiz-adv-x="1219" 
d="M1135 733q0 -363 -136 -558t-389 -195q-254 0 -390 194.5t-136 560.5q0 363 136 556.5t392 193.5q253 0 388 -194.5t135 -557.5zM610 221q111 0 172.5 105.5t71.5 302.5h-489q10 -197 72.5 -302.5t172.5 -105.5zM612 1245q-106 0 -167.5 -96.5t-75.5 -280.5h483
q-34 377 -240 377z" />
    <glyph glyph-name="uni0473" unicode="&#x473;" horiz-adv-x="1012" 
d="M938 559q0 -274 -116 -426.5t-318 -152.5q-128 0 -226 70t-151 201.5t-53 307.5q0 271 115 423.5t319 152.5q197 0 313.5 -155.5t116.5 -420.5zM506 207q71 0 109 64t49 192h-316q18 -256 158 -256zM506 907q-138 0 -156 -245h312q-11 123 -48 184t-108 61z" />
    <glyph glyph-name="uni0474" unicode="&#x474;" horiz-adv-x="1126" 
d="M1042 1237q-37 0 -61.5 -49t-44.5 -135l-246 -1053h-348l-342 1462h274l191 -891q32 -169 51 -329q8 68 27 182.5t26 146.5l107 496q47 224 117.5 316t189.5 92q54 0 96.5 -13t65.5 -28v-224q-29 14 -50.5 20.5t-52.5 6.5z" />
    <glyph glyph-name="uni0475" unicode="&#x475;" horiz-adv-x="948" 
d="M623 0h-332l-291 1114h276l142 -645q16 -75 27 -201l6 -57h8q4 93 37 260l71 334q36 167 104 242t181 75q71 0 127 -30v-218q-20 11 -35.5 17t-40.5 6q-26 0 -44.5 -26.5t-33.5 -84.5z" />
    <glyph glyph-name="uni0476" unicode="&#x476;" horiz-adv-x="1126" 
d="M1042 1237q-37 0 -61.5 -49t-44.5 -135l-246 -1053h-348l-342 1462h274l191 -891q32 -169 51 -329q8 68 27 182.5t26 146.5l107 496q47 224 117.5 316t189.5 92q54 0 96.5 -13t65.5 -28v-224q-29 14 -50.5 20.5t-52.5 6.5zM712 1579q-78 62 -178.5 161t-128.5 146v21h283
q33 -72 83 -158.5t91 -142.5v-27h-150zM321 1579q-75 60 -176 160.5t-129 146.5v21h281q34 -75 88.5 -167.5t85.5 -133.5v-27h-150z" />
    <glyph glyph-name="uni0477" unicode="&#x477;" horiz-adv-x="948" 
d="M623 0h-332l-291 1114h276l142 -645q16 -75 27 -201l6 -57h8q4 93 37 260l71 334q36 167 104 242t181 75q71 0 127 -30v-218q-20 11 -35.5 17t-40.5 6q-26 0 -44.5 -26.5t-33.5 -84.5zM661 1241q-78 62 -178.5 161t-128.5 146v21h283q33 -72 83 -158.5t91 -142.5v-27
h-150zM270 1241q-75 60 -176 160.5t-129 146.5v21h281q34 -75 88.5 -167.5t85.5 -133.5v-27h-150z" />
    <glyph glyph-name="uni0478" unicode="&#x478;" horiz-adv-x="2093" 
d="M1135 733q0 -363 -136 -558t-389 -195q-254 0 -390 194.5t-136 560.5q0 363 136 556.5t392 193.5q253 0 388 -194.5t135 -557.5zM362 733q0 -250 63 -381t185 -131q246 0 246 512t-244 512q-124 0 -187 -130.5t-63 -381.5zM1180 1114h276l154 -629q23 -84 37 -235h6
q1 24 9 85.5t13 96.5t138 682h280l-319 -1194q-58 -220 -154 -316t-256 -96q-79 0 -141 17v223q41 -12 92 -12q134 0 176 176l19 70z" />
    <glyph glyph-name="uni0479" unicode="&#x479;" horiz-adv-x="1870" 
d="M938 559q0 -274 -116 -426.5t-318 -152.5q-128 0 -226 70t-151 201.5t-53 307.5q0 271 115 423.5t319 152.5q197 0 313.5 -155.5t116.5 -420.5zM346 559q0 -174 38 -263t122 -89q160 0 160 352q0 175 -38.5 261.5t-121.5 86.5q-84 0 -122 -86.5t-38 -261.5zM956 1114h276
l154 -629q23 -84 37 -235h6q1 24 9 85.5t13 96.5t138 682h280l-319 -1194q-58 -220 -154 -316t-256 -96q-79 0 -141 17v223q41 -12 92 -12q134 0 176 176l19 70z" />
    <glyph glyph-name="uni047A" unicode="&#x47a;" horiz-adv-x="1309" 
d="M1225 733q0 -311 -112 -504.5t-322 -236.5q-26 -117 -136 -117q-112 0 -133 117q-211 40 -324.5 231t-113.5 512q0 315 113 506.5t327 231.5q13 66 46.5 89t84.5 23t85 -23t46 -89q213 -41 326 -235t113 -505zM362 733q0 -397 177 -487q15 38 44 51.5t72 13.5
q41 0 70.5 -13.5t44.5 -51.5q176 90 176 487q0 192 -40.5 314.5t-131.5 169.5q-33 -68 -119 -68q-91 0 -118 68q-175 -91 -175 -484z" />
    <glyph glyph-name="uni047B" unicode="&#x47b;" horiz-adv-x="1083" 
d="M1010 559q0 -225 -90 -372.5t-254 -186.5q-8 -53 -41 -81t-84 -28q-109 0 -125 111q-158 39 -250 185.5t-92 371.5q0 230 91 376t257 183q9 48 40 66t79 18q102 0 118 -84q166 -40 258.5 -188.5t92.5 -370.5zM346 559q0 -255 86 -330q14 34 38 50t71 16q78 0 108 -68
q88 73 88 332q0 240 -82 322q-12 -41 -37.5 -61.5t-76.5 -20.5t-77 20.5t-38 59.5q-80 -84 -80 -320z" />
    <glyph glyph-name="uni047C" unicode="&#x47c;" horiz-adv-x="1704" 
d="M1157 1249q-46 0 -86 -14t-82 -51l-96 190q50 46 126.5 76.5t143.5 30.5q219 0 337 -188t118 -525q0 -372 -127 -580t-358 -208q-88 0 -152 28t-131 90q-57 -63 -122.5 -90.5t-154.5 -27.5q-231 0 -359 207.5t-128 580.5q0 338 119 525.5t336 187.5q69 0 141.5 -29
t128.5 -78l-100 -190q-83 65 -162 65q-91 0 -142 -121t-51 -362q0 -261 65 -398t185 -137q56 0 124.5 44.5t119.5 119.5q47 -72 117.5 -118t130.5 -46q121 0 186.5 138.5t65.5 396.5q0 239 -52 361t-141 122zM1307 1872h-17q-71 0 -128 8t-104 20.5t-147 51.5
q-72 28 -114 28q-59 0 -89 -21.5t-30 -78.5v-10h-154v47q0 92 30.5 147.5t84.5 82t154 26.5q57 0 113 -18.5t115.5 -41t126 -41t144.5 -18.5h15v-182zM1024 1743q0 -92 -76.5 -160t-204.5 -80v84q60 17 88.5 42.5t28.5 49.5q0 14 -11.5 24t-45.5 25q-58 24 -58 66
q0 104 129 104q75 0 112.5 -42t37.5 -113z" />
    <glyph glyph-name="uni047D" unicode="&#x47d;" horiz-adv-x="1419" 
d="M932 -20q-135 0 -221 88q-88 -88 -222 -88q-204 0 -309.5 149.5t-105.5 435.5q0 285 96.5 427.5t294.5 142.5q125 0 229 -66l-67 -195q-45 23 -78 36.5t-70 13.5q-133 0 -133 -359q0 -179 41 -275.5t121 -96.5q92 0 203 145q106 -145 202 -145q78 0 119 93.5t41 278.5
q0 359 -133 359q-37 0 -71 -13.5t-76 -36.5l-66 195q102 66 227 66q199 0 295.5 -142.5t96.5 -427.5q0 -289 -106.5 -437t-307.5 -148zM1133 1559h-17q-71 0 -128 8t-104 20.5t-147 51.5q-72 28 -114 28q-59 0 -89 -21.5t-30 -78.5v-11h-154v48q0 92 30.5 147.5t84.5 82
t153 26.5q58 0 114 -18.5t115.5 -41t126 -41t144.5 -18.5h15v-182zM850 1430q0 -96 -80 -163.5t-201 -76.5v84q60 17 88.5 42t28.5 50q0 19 -18 29t-39.5 20t-39.5 24t-18 42q0 104 129 104q75 0 112.5 -42t37.5 -113z" />
    <glyph glyph-name="uni047E" unicode="&#x47e;" horiz-adv-x="1700" 
d="M1149 1251q-43 0 -81.5 -13.5t-80.5 -51.5l-94 188q50 46 122.5 76.5t141.5 30.5q217 0 337 -188.5t120 -524.5q0 -372 -127 -580t-357 -208q-94 0 -158.5 28.5t-119.5 89.5h-8q-57 -63 -120.5 -90.5t-152.5 -27.5q-231 0 -358 206.5t-127 581.5q0 334 120.5 523.5
t336.5 189.5q69 0 140 -29t124 -78l-98 -188q-79 65 -158 65q-91 0 -145 -121.5t-54 -363.5q0 -257 65 -397t187 -140q54 0 111 64v412h266v-412q49 -64 115 -64q122 0 187 140.5t65 396.5q0 242 -54 363.5t-145 121.5zM1276 1827v-88l-80 -162h-33l-49 93h-186l-50 -93h-32
l-50 93h-188l-47 -93h-33l-80 162v88h828z" />
    <glyph glyph-name="uni047F" unicode="&#x47f;" horiz-adv-x="1462" 
d="M289 0l-289 1114h276l150 -698q12 -48 23 -166h8q28 138 41 182l125 395l-60 287h260l115 -659l31 -205h8q92 170 131 374.5t39 489.5h262q0 -350 -86 -623t-262 -491h-264l-84 395l-117 -395h-307zM1119 1462v-88l-80 -162h-33l-49 93h-186l-50 -93h-32l-50 93h-188
l-47 -93h-33l-80 162v88h828z" />
    <glyph glyph-name="uni0480" unicode="&#x480;" horiz-adv-x="946" 
d="M612 1245q-117 0 -183.5 -136t-66.5 -382q0 -508 261 -508q87 0 172 41v-752h-271v478q-209 0 -324.5 195.5t-115.5 547.5q0 356 136.5 555t377.5 199q80 0 153.5 -22t157.5 -77l-90 -221q-45 31 -96 56.5t-111 25.5z" />
    <glyph glyph-name="uni0481" unicode="&#x481;" horiz-adv-x="760" 
d="M383 -8q-152 32 -230.5 175.5t-78.5 383.5q0 294 99.5 439t303.5 145q68 0 134.5 -19.5t117.5 -50.5l-78 -207q-78 49 -145 49q-85 0 -122.5 -88t-37.5 -266q0 -173 37 -258.5t121 -85.5q34 0 75.5 9.5t69.5 25.5v-736h-266v484z" />
    <glyph glyph-name="uni0482" unicode="&#x482;" horiz-adv-x="1227" 
d="M578 432l284 -166l-71 -123l-285 164l-180 -313l-129 74l180 315l-283 164l70 123l287 -164l198 346l-284 164l71 125l285 -164l182 313l127 -73l-182 -316l287 -164l-74 -123l-283 164z" />
    <glyph glyph-name="uni0483" unicode="&#x483;" horiz-adv-x="1106" 
d="M377 1245q-13 -94 -107 -94q-104 0 -104 123q0 56 24.5 84t81.5 28h457q11 95 107 95q106 0 106 -113q0 -123 -108 -123h-457z" />
    <glyph glyph-name="uni0484" unicode="&#x484;" horiz-adv-x="1145" 
d="M236 1425q139 0 291 60q80 31 138 45t111 14q114 0 172 -66.5t58 -189.5v-47h-175v12q0 101 -100 101q-43 0 -114 -28q-96 -39 -144.5 -52.5t-106.5 -22t-128 -8.5h-17v182h15z" />
    <glyph glyph-name="uni0485" unicode="&#x485;" horiz-adv-x="1096" 
d="M575 1618q66 0 103 -27.5t37 -77.5q0 -27 -18 -40t-39.5 -21.5t-39.5 -17t-18 -27.5q0 -25 28.5 -54t88.5 -46v-84q-128 10 -212.5 78t-84.5 161q0 69 40.5 112.5t114.5 43.5z" />
    <glyph glyph-name="uni0486" unicode="&#x486;" horiz-adv-x="1096" 
d="M717 1462q-2 -94 -87 -161.5t-210 -77.5v84q60 17 88.5 46t28.5 54q0 19 -18 27.5t-39.5 17t-39.5 21.5t-18 40q0 50 36.5 77.5t102.5 27.5q72 0 114 -43.5t42 -112.5z" />
    <glyph glyph-name="uni0488" unicode="&#x488;" horiz-adv-x="2017" 
d="M997 1425q93 0 149.5 -50.5t63.5 -143.5h-80q-5 45 -35 66.5t-98 21.5q-78 0 -103 -19.5t-30 -68.5h-76q5 90 55.5 142t153.5 52zM997 -125q92 0 149.5 -51t63.5 -143h-80q-5 45 -35 66.5t-98 21.5q-78 0 -103 -19.5t-30 -68.5h-76q5 89 55.5 141.5t153.5 52.5zM1710 -41
q-5 45 -35 66.5t-98 21.5q-78 0 -103 -19.5t-30 -68.5h-76q5 90 55.5 142.5t153.5 52.5q92 0 149.5 -51t63.5 -144h-80zM557 -41q-5 45 -35 66.5t-98 21.5q-78 0 -103 -19.5t-30 -68.5h-76q5 90 55.5 142.5t153.5 52.5q92 0 149.5 -51t63.5 -144h-80zM1710 946
q-5 45 -35 66.5t-98 21.5q-78 0 -103 -19.5t-30 -68.5h-76q5 90 55.5 142.5t153.5 52.5q92 0 149.5 -51t63.5 -144h-80zM557 946q-5 45 -35 66.5t-98 21.5q-78 0 -103 -19.5t-30 -68.5h-76q5 90 55.5 142.5t153.5 52.5q92 0 149.5 -51t63.5 -144h-80zM1901 459q-5 44 -35 66
t-99 22q-78 0 -103 -20.5t-30 -67.5h-75q11 194 208 194q92 0 149.5 -51t63.5 -143h-79zM379 459q-5 45 -35 66.5t-98 21.5q-78 0 -103 -19.5t-30 -68.5h-76q5 90 55.5 142t153.5 52q92 0 149.5 -51t63.5 -143h-80z" />
    <glyph glyph-name="uni0489" unicode="&#x489;" horiz-adv-x="1950" 
d="M877 1141l-11 14q19 71 55.5 171t67.5 165h96q-50 -211 -69 -350h-139zM487 877l-16 2q-40 68 -85.5 166.5t-66.5 156.5l68 70q123 -198 199 -297zM629 45l-2 -16q-155 -89 -324 -152l-70 68q177 110 297 198zM387 453l-14 -11q-66 17 -161.5 52t-174.5 71v97
q221 -53 350 -70v-139zM1075 -35l10 -14q-41 -161 -122 -336h-97q53 221 70 350h139zM1421 903l-100 101l4 18q127 75 320 149l69 -71l-75 -48q-128 -81 -218 -149zM1462 190l17 -2q36 -60 80 -151.5t73 -167.5l-67 -70q-118 185 -201 293zM1559 657q2 0 10 5.5t8 7.5
q71 -19 165.5 -54t168.5 -69l-4 -98q-233 55 -348 71v137z" />
    <glyph glyph-name="uni048A" unicode="&#x48a;" horiz-adv-x="1393" 
d="M129 1462h252v-844q0 -125 -19 -247h11l446 1091h334v-1216h207l-172 -664h-320l185 418h-150v842q0 148 23 260h-13l-448 -1102h-336v1462zM633 1579q-198 0 -293 80t-107 270h242q7 -100 43 -143t121 -43q76 0 115.5 44t48.5 142h246q-16 -182 -119.5 -266t-296.5 -84z
" />
    <glyph glyph-name="uni048B" unicode="&#x48b;" horiz-adv-x="1210" 
d="M360 1114v-516q0 -96 -24 -319l362 835h326v-905h162l-142 -606h-270l135 397h-133v524q0 118 23 318l-114 -267l-249 -575h-323v1114h247zM977 1591q-19 -183 -121 -266.5t-295 -83.5q-199 0 -294.5 81t-106.5 269h243q7 -100 43 -143t121 -43q76 0 115.5 44t48.5 142
h246z" />
    <glyph glyph-name="uni048C" unicode="&#x48c;" horiz-adv-x="995" 
d="M29 1305h112v157h273v-157h194v-236h-194v-178h65q223 0 340 -106t117 -320q0 -220 -113.5 -342.5t-330.5 -122.5h-351v1069h-112v236zM414 236h67q181 0 181 219q0 104 -45 151t-154 47h-49v-417z" />
    <glyph glyph-name="uni048D" unicode="&#x48d;" horiz-adv-x="985" 
d="M4 1329h121v227h266v-227h240v-186h-240v-465h111q214 0 318 -81t104 -245q0 -352 -430 -352h-369v1143h-121v186zM651 346q0 71 -40.5 102t-127.5 31h-92v-280h96q79 0 121.5 33.5t42.5 113.5z" />
    <glyph glyph-name="uni048E" unicode="&#x48e;" horiz-adv-x="981" 
d="M926 1012q0 -150 -50.5 -258.5t-144.5 -161.5l76 -172l-145 -64l-80 183q-47 -9 -113 -9h-68v-530h-272v1462h371q426 0 426 -450zM401 766h82l-55 123l145 61l45 -102q33 58 33 153q0 115 -45 170.5t-139 55.5h-66v-461z" />
    <glyph glyph-name="uni048F" unicode="&#x48f;" horiz-adv-x="1016" 
d="M379 127h-14q16 -136 16 -164v-455h-268v1606h206l46 -145h12q83 166 241 166q152 0 238 -150.5t86 -425.5q0 -217 -55.5 -355t-147.5 -192l66 -153l-131 -62l-82 185q-124 0 -213 145zM528 909q-78 0 -112.5 -72.5t-36.5 -240.5v-35q0 -163 24.5 -241.5t83.5 -102.5
l-51 125l133 59l56 -125q45 96 45 287q0 174 -34.5 260t-107.5 86z" />
    <glyph glyph-name="uni0492" unicode="&#x492;" horiz-adv-x="831" 
d="M795 1462v-235h-383v-385h237v-238h-237v-604h-271v604h-127v238h127v620h654z" />
    <glyph glyph-name="uni0493" unicode="&#x493;" horiz-adv-x="741" 
d="M705 1114v-213h-312v-254h205v-217h-205v-430h-268v430h-117v217h117v467h580z" />
    <glyph glyph-name="uni0494" unicode="&#x494;" horiz-adv-x="997" 
d="M399 555v-555h-270v1462h653v-235h-383v-426q15 4 52 4q140 0 260.5 -88.5t181.5 -236t61 -337.5q0 -198 -57 -346.5t-159.5 -228.5t-233.5 -80q-87 0 -148 11.5t-125 41.5v258q132 -59 230 -59q103 0 167 109.5t64 293.5q0 192 -70.5 298t-207.5 114h-15z" />
    <glyph glyph-name="uni0495" unicode="&#x495;" horiz-adv-x="862" 
d="M842 66q0 -179 -49 -306.5t-139.5 -194.5t-213.5 -67q-114 0 -219 60v258q114 -78 193 -78q82 0 126 87.5t44 244.5q0 314 -187 325h-18v-395h-266v1114h577v-213h-311v-260h61q116 0 208 -70t143 -201.5t51 -303.5z" />
    <glyph glyph-name="uni0496" unicode="&#x496;" horiz-adv-x="1575" 
d="M365 758l-359 704h279l333 -708v708h254v-708l334 708h281l-359 -702l254 -531h162v-647h-264v418h-82l-326 741v-741h-254v741l-323 -741h-295z" />
    <glyph glyph-name="uni0497" unicode="&#x497;" horiz-adv-x="1468" 
d="M575 580v534h256v-534l279 534h276l-299 -528l205 -377h154v-606h-264v397h-66l-285 573v-573h-256v573l-286 -573h-289l317 586l-297 528h277z" />
    <glyph glyph-name="uni0498" unicode="&#x498;" horiz-adv-x="991" 
d="M887 1116q0 -136 -80.5 -225.5t-231.5 -120.5v-8q164 -20 254.5 -109.5t90.5 -238.5q0 -202 -129.5 -318t-352.5 -116q-236 0 -368 69v238q148 -82 315 -82q262 0 262 229q0 104 -75.5 158.5t-223.5 54.5h-98v223h88q145 0 214 50.5t69 156.5q0 85 -46 130.5t-133 45.5
q-133 0 -252 -108l-129 182q99 85 201 120.5t227 35.5q181 0 289.5 -100.5t108.5 -266.5zM455 -229q0 52 -38 107.5t-108 121.5h168q99 -72 139 -133t40 -127q0 -100 -65.5 -161.5t-176.5 -61.5q-72 0 -148 22v164q61 -16 109 -16q35 0 57.5 21t22.5 63z" />
    <glyph glyph-name="uni0499" unicode="&#x499;" horiz-adv-x="864" 
d="M340 680q91 0 135.5 29t44.5 100q0 115 -153 115q-54 0 -100 -15.5t-99 -48.5l-96 193q139 82 309 82q177 0 282 -79t105 -216q0 -191 -211 -250v-8q116 -27 177 -99t61 -184q0 -148 -112.5 -233.5t-311.5 -85.5q-92 0 -175.5 20.5t-140.5 52.5v223q139 -77 291 -77
q182 0 182 135q0 72 -43.5 109.5t-144.5 37.5h-109v199h109zM395 -229q0 52 -38 107.5t-108 121.5h168q99 -72 139 -133t40 -127q0 -100 -65.5 -161.5t-176.5 -61.5q-72 0 -148 22v164q61 -16 109 -16q35 0 57.5 21t22.5 63z" />
    <glyph glyph-name="uni049A" unicode="&#x49a;" horiz-adv-x="1141" 
d="M948 229h160v-647h-262v418h-98l-232 621l-115 -113v-508h-272v1462h272v-723l95 219l249 504h291l-338 -631z" />
    <glyph glyph-name="uni049B" unicode="&#x49b;" horiz-adv-x="1024" 
d="M664 1114h280l-305 -528l207 -377h153v-606h-264v397h-65l-291 575v-575h-266v1114h266v-536z" />
    <glyph glyph-name="uni049C" unicode="&#x49c;" horiz-adv-x="1040" 
d="M449 563l-48 -47v-516h-272v1462h272v-725l48 111v452h116v-202l180 364h291l-338 -633l342 -829h-290l-185 481v-268h-116v350z" />
    <glyph glyph-name="uni049D" unicode="&#x49d;" horiz-adv-x="967" 
d="M420 496l-39 79v-575h-268v1114h268v-536l39 73v363h108v-160l136 260h282l-309 -530l328 -584h-293l-144 285v-195h-108v406z" />
    <glyph glyph-name="uni049E" unicode="&#x49e;" horiz-adv-x="1053" 
d="M33 1305h108v157h273v-157h125v-236h-125v-332q27 84 92 219l252 506h289l-336 -633l342 -829h-293l-238 625l-108 -109v-516h-273v1069h-108v236z" />
    <glyph glyph-name="uni049F" unicode="&#x49f;" horiz-adv-x="977" 
d="M12 1339h113v217h266v-217h225v-186h-225v-330l-12 -223h8l67 133l220 381h282l-282 -457l301 -657h-279l-200 471l-105 -94v-377h-266v1153h-113v186z" />
    </font>
</defs>
</svg>
